<svg width="664" height="729" viewBox="0 0 664 729" fill="none" xmlns="http://www.w3.org/2000/svg">
<path opacity="0.8" d="M620.222 384.215V122.675L600.399 107.432H370.737L352.929 122.675H50.9756L35 137.881V377.546L50.9756 392.202V582.256L42.6215 594.494V675.323C42.6215 678.181 50.9756 692.068 50.9756 692.068H620.222L640.337 656.783V405.576L620.222 384.215Z" fill="#080C12"/>
<path d="M620.948 693.653H50.0538L49.6136 692.957C47.6351 689.623 41.0761 678.301 41.0761 675.48V594.211L49.4303 581.973V392.982L33.4922 378.325V137.524L50.2729 121.512H352.301L370.071 106.27H600.906L621.645 122.245V383.895L641.761 405.293V657.306L620.948 693.653ZM51.5557 690.795H619.153L638.683 656.573V406.429L618.567 385.031V123.674L599.698 109.018H371.024L353.254 124.26H51.5557L36.4594 138.66V377.08L52.435 391.736V582.853L44.0809 595.09V675.48C45.9976 680.846 48.5047 685.983 51.5557 690.795Z" fill="#DD56FF"/>
<path opacity="0.7" d="M642.564 125.543H629.264V161.67H642.564V125.543Z" fill="#DD56FF"/>
<path opacity="0.4" d="M642.564 174.054H629.264V210.181H642.564V174.054Z" fill="#DD56FF"/>
<path opacity="0.4" d="M642.564 222.529H629.264V258.657H642.564V222.529Z" fill="#DD56FF"/>
<path opacity="0.2" d="M629.264 319.553V370.923L642.601 386.129V319.553H629.264Z" fill="#DD56FF"/>
<path opacity="0.2" d="M642.564 271.042H629.264V307.17H642.564V271.042Z" fill="#DD56FF"/>
<path d="M599.843 108.175C599.938 108.001 600.012 107.817 600.063 107.626L602.774 97.183C602.882 96.7938 602.896 96.3845 602.813 95.9892C602.73 95.594 602.553 95.2244 602.298 94.9113C602.037 94.6018 601.712 94.353 601.345 94.1821C600.978 94.0113 600.578 93.9226 600.173 93.9221H532.095L537.335 76.4812C537.37 76.1891 537.37 75.8939 537.335 75.6018C537.316 74.8988 537.02 74.2316 536.513 73.7447C536.005 73.2579 535.327 72.9904 534.624 73.0003H507.839C507.263 72.9951 506.7 73.1735 506.233 73.5095C505.765 73.8455 505.417 74.3216 505.238 74.869L499.522 93.9221H489.958L495.198 76.4812C495.234 76.1891 495.234 75.8939 495.198 75.6018C495.179 74.8988 494.884 74.2316 494.376 73.7447C493.869 73.2579 493.19 72.9904 492.487 73.0003H465.666C465.091 73.0007 464.531 73.1812 464.065 73.5164C463.598 73.8516 463.248 74.3246 463.065 74.869L457.385 93.9221H447.822L453.062 76.4812C453.097 76.1891 453.097 75.8939 453.062 75.6018C453.043 74.8988 452.747 74.2316 452.24 73.7447C451.732 73.2579 451.054 72.9904 450.35 73.0003H423.529C422.953 72.9951 422.39 73.1735 421.923 73.5095C421.455 73.8455 421.107 74.3216 420.928 74.869L415.249 93.9221H405.685L410.889 76.4812C410.942 76.1904 410.942 75.8926 410.889 75.6018C410.884 75.2554 410.811 74.9133 410.674 74.595C410.537 74.2768 410.338 73.9886 410.09 73.747C409.841 73.5054 409.548 73.3151 409.226 73.187C408.904 73.0589 408.56 72.9954 408.214 73.0003H381.393C380.817 72.9951 380.254 73.1735 379.786 73.5095C379.318 73.8455 378.97 74.3216 378.791 74.869L369.375 106.27C369.282 106.586 369.253 106.917 369.291 107.245C369.328 107.572 369.432 107.889 369.595 108.175H599.843Z" fill="#DD56FF"/>
<path d="M365.306 693.066H49.5753C49.4604 693.234 49.3735 693.42 49.3186 693.616L46.6072 704.095C46.4994 704.478 46.4866 704.882 46.5696 705.271C46.6526 705.66 46.8293 706.024 47.084 706.33C47.3431 706.644 47.6671 706.899 48.034 707.076C48.4008 707.253 48.8021 707.348 49.2094 707.356H117.287L112.047 724.797C112.009 725.076 112.009 725.36 112.047 725.639C112.052 725.991 112.126 726.338 112.265 726.66C112.404 726.983 112.605 727.275 112.857 727.52C113.109 727.765 113.406 727.958 113.733 728.088C114.059 728.218 114.408 728.282 114.759 728.278H141.58C142.159 728.275 142.722 728.089 143.189 727.746C143.656 727.404 144.004 726.923 144.181 726.372L149.861 707.356H159.423L154.184 724.797C154.146 725.076 154.146 725.36 154.184 725.639C154.189 725.991 154.263 726.338 154.401 726.66C154.54 726.983 154.742 727.275 154.994 727.52C155.245 727.765 155.543 727.958 155.869 728.088C156.196 728.218 156.544 728.282 156.895 728.278H183.46C184.042 728.286 184.61 728.105 185.08 727.761C185.549 727.417 185.894 726.93 186.061 726.372L191.741 707.356H201.304L196.101 724.797C196.045 725.075 196.045 725.361 196.101 725.639C196.11 726.342 196.396 727.013 196.897 727.507C197.397 728.001 198.072 728.278 198.775 728.278H225.596C226.178 728.286 226.747 728.105 227.216 727.761C227.686 727.417 228.03 726.93 228.198 726.372L233.914 707.356H243.441L238.237 724.797C238.182 725.075 238.182 725.361 238.237 725.639C238.242 725.991 238.316 726.338 238.454 726.66C238.593 726.983 238.795 727.275 239.047 727.52C239.298 727.765 239.596 727.958 239.922 728.088C240.249 728.218 240.597 728.282 240.948 728.278H267.733C268.315 728.286 268.883 728.105 269.353 727.761C269.822 727.417 270.167 726.93 270.334 726.372L278.578 698.855H299.977L297.851 705.927C297.831 706.048 297.831 706.172 297.851 706.293C297.851 706.436 297.88 706.577 297.935 706.709C297.991 706.84 298.072 706.959 298.175 707.058C298.278 707.157 298.4 707.235 298.533 707.286C298.666 707.337 298.808 707.361 298.951 707.356H309.943C310.178 707.353 310.406 707.278 310.597 707.14C310.787 707.002 310.93 706.809 311.005 706.586L313.313 698.855H317.197L315.072 705.927C315.052 706.048 315.052 706.172 315.072 706.293C315.082 706.578 315.201 706.849 315.407 707.047C315.612 707.245 315.886 707.356 316.171 707.356H327.164C327.399 707.353 327.627 707.278 327.817 707.14C328.008 707.002 328.151 706.809 328.226 706.586L330.534 698.855H333.686L331.597 705.927C331.576 706.048 331.576 706.172 331.597 706.293C331.597 706.436 331.625 706.577 331.681 706.709C331.737 706.84 331.819 706.959 331.922 707.058C332.024 707.157 332.145 707.235 332.279 707.286C332.412 707.337 332.554 707.361 332.696 707.356H343.688C343.926 707.365 344.16 707.294 344.353 707.155C344.546 707.015 344.686 706.815 344.751 706.586L347.059 698.855H350.943L348.818 705.927C348.798 706.048 348.798 706.172 348.818 706.293C348.818 706.436 348.847 706.577 348.903 706.709C348.958 706.84 349.04 706.959 349.142 707.058C349.245 707.157 349.366 707.235 349.499 707.286C349.633 707.337 349.775 707.361 349.917 707.356H360.909C361.144 707.353 361.373 707.278 361.563 707.14C361.754 707.002 361.896 706.809 361.972 706.586L365.636 693.835C365.628 693.546 365.51 693.271 365.306 693.066Z" fill="#DD56FF"/>
<path d="M632.161 706.623H371.574C371.467 706.648 371.355 706.648 371.248 706.623C371.14 706.599 371.04 706.551 370.954 706.482C370.868 706.413 370.799 706.326 370.751 706.227C370.703 706.128 370.678 706.019 370.678 705.909C370.678 705.799 370.703 705.69 370.751 705.591C370.799 705.492 370.868 705.405 370.954 705.336C371.04 705.268 371.14 705.219 371.248 705.195C371.355 705.17 371.467 705.17 371.574 705.195H631.721L656.16 660.09V542.328C656.16 542.233 656.179 542.139 656.217 542.052C656.254 541.965 656.308 541.887 656.377 541.822C656.445 541.757 656.527 541.706 656.616 541.674C656.704 541.641 656.799 541.626 656.893 541.631C657.078 541.631 657.254 541.705 657.385 541.835C657.516 541.966 657.589 542.143 657.589 542.328V660.273C657.606 660.383 657.606 660.494 657.589 660.603L632.857 706.257C632.791 706.381 632.69 706.483 632.566 706.548C632.442 706.613 632.3 706.64 632.161 706.623Z" fill="#DD56FF"/>
<path d="M664 539.946C664.007 541.362 663.593 542.748 662.811 543.929C662.029 545.109 660.914 546.031 659.607 546.576C658.3 547.121 656.86 547.266 655.471 546.991C654.081 546.717 652.805 546.036 651.804 545.034C650.802 544.033 650.121 542.756 649.847 541.367C649.572 539.978 649.716 538.538 650.262 537.231C650.807 535.924 651.728 534.808 652.909 534.026C654.089 533.244 655.476 532.83 656.892 532.837C657.825 532.837 658.75 533.021 659.612 533.378C660.475 533.736 661.258 534.259 661.918 534.919C662.578 535.579 663.102 536.363 663.46 537.225C663.817 538.088 664 539.012 664 539.946Z" fill="#DD56FF"/>
<path d="M61.998 661.227C61.9979 662.641 61.5779 664.024 60.7912 665.2C60.0045 666.375 58.8857 667.291 57.578 667.831C56.2703 668.371 54.8322 668.51 53.4452 668.231C52.0583 667.953 50.7852 667.268 49.7875 666.266C48.7897 665.263 48.1125 663.986 47.8409 662.598C47.5694 661.209 47.7159 659.772 48.2623 658.467C48.8087 657.162 49.7303 656.048 50.9101 655.268C52.0899 654.487 53.4744 654.074 54.889 654.082C55.8256 654.082 56.7535 654.267 57.6183 654.626C58.4831 654.986 59.2683 655.512 59.9289 656.176C60.5894 656.84 61.1124 657.628 61.4675 658.495C61.8226 659.362 62.0028 660.29 61.998 661.227Z" fill="#DD56FF"/>
<path opacity="0.4" d="M3.66507 125.542H3.44591C3.16772 125.487 2.88054 125.487 2.60235 125.542C2.25275 125.547 1.90773 125.621 1.58705 125.76C1.26636 125.9 0.976607 126.101 0.734547 126.354C0.492486 126.606 0.303164 126.904 0.177247 127.23C0.0513294 127.556 -0.00872231 127.904 0.00102157 128.254V155.038C-0.00414679 155.614 0.17404 156.176 0.510017 156.644C0.845993 157.112 1.32234 157.46 1.86972 157.639L20.9226 163.355V172.918L3.44591 167.679C3.16772 167.623 2.88054 167.623 2.60235 167.679C2.25275 167.683 1.90773 167.758 1.58705 167.897C1.26636 168.036 0.976607 168.238 0.734547 168.49C0.492486 168.742 0.303164 169.04 0.177247 169.367C0.0513294 169.693 -0.00872231 170.041 0.00102157 170.39V196.698C-0.00414679 197.274 0.17404 197.836 0.510017 198.304C0.845993 198.772 1.32234 199.121 1.86972 199.299L20.9226 205.015V214.579L3.44591 209.339C3.16629 209.301 2.88197 209.301 2.60235 209.339C2.25275 209.344 1.90773 209.418 1.58705 209.557C1.26636 209.697 0.976607 209.898 0.734547 210.15C0.492486 210.403 0.303164 210.701 0.177247 211.027C0.0513294 211.353 -0.00872231 211.701 0.00102157 212.05V238.871C0.00145304 239.446 0.181983 240.006 0.517173 240.472C0.852363 240.939 1.32539 241.289 1.86972 241.473L20.9226 247.152V256.715L3.44591 251.476C3.16629 251.437 2.88197 251.437 2.60235 251.476C2.25275 251.48 1.90773 251.554 1.58705 251.694C1.26636 251.833 0.976607 252.035 0.734547 252.287C0.492486 252.539 0.303164 252.837 0.177247 253.163C0.0513294 253.49 -0.00872231 253.837 0.00102157 254.187V280.971C-0.00414679 281.547 0.17404 282.11 0.510017 282.577C0.845993 283.045 1.32234 283.394 1.86972 283.573L29.3868 291.817V313.215L22.3154 311.09H21.9486C21.67 311.108 21.4092 311.232 21.2187 311.436C21.0281 311.641 20.922 311.91 20.9226 312.189V323.181C20.9171 323.413 20.9851 323.64 21.1167 323.831C21.2483 324.022 21.4375 324.166 21.6561 324.244L29.3868 326.552V330.436L22.3154 328.311H21.9486C21.8091 328.315 21.6723 328.348 21.5452 328.405C21.4181 328.463 21.3032 328.545 21.208 328.648C21.1127 328.75 21.0386 328.87 20.9897 329C20.9408 329.131 20.9177 329.27 20.9226 329.41V340.402C20.9112 340.635 20.9771 340.865 21.1096 341.057C21.242 341.249 21.4343 341.392 21.6561 341.465L29.3868 343.773V347.657L22.3154 345.532H21.9486C21.8091 345.536 21.6723 345.569 21.5452 345.626C21.4181 345.684 21.3032 345.767 21.208 345.869C21.1127 345.971 21.0386 346.091 20.9897 346.221C20.9408 346.352 20.9177 346.491 20.9226 346.631V357.623C20.9171 357.855 20.9851 358.082 21.1167 358.273C21.2483 358.464 21.4375 358.608 21.6561 358.686L29.3868 360.994V364.878L22.3154 362.753H21.9486C21.67 362.771 21.4092 362.895 21.2187 363.099C21.0281 363.303 20.922 363.573 20.9226 363.852V374.844C20.9171 375.076 20.9851 375.303 21.1167 375.494C21.2483 375.685 21.4375 375.829 21.6561 375.907L34.4069 379.571C34.5281 379.624 34.6591 379.652 34.7916 379.652C34.9241 379.652 35.055 379.624 35.1762 379.571V139.209C24.6238 134.922 12.6786 129.609 3.66507 125.542Z" fill="#DD56FF"/>
<path d="M360.908 135.509H61.0791V134.08H360.395L378.935 119.827H528.978V121.256H379.448L360.908 135.509Z" fill="#DD56FF"/>
<path d="M618.859 552.77H616.001V417.237L601.748 400.383V127.667H604.606V399.32L618.859 416.175V552.77Z" fill="#DD56FF"/>
<path d="M618.859 127.667H601.748V552.77H618.859V127.667Z" fill="#DD56FF"/>
<path d="M610.285 490.629C606.804 490.629 603.36 490.629 599.952 490.445H600.282V189.994H599.952C603.36 189.994 606.804 189.81 610.285 189.81C613.766 189.81 617.174 189.81 620.581 189.994H620.251V490.445H620.581C617.174 490.555 613.729 490.629 610.285 490.629Z" fill="#DD56FF"/>
<path d="M610.284 415.442C606.803 415.442 603.395 415.442 600.024 415.039H600.281V265.436H600.024C603.395 265.179 606.803 265.032 610.284 265.032C613.765 265.032 617.173 265.033 620.543 265.436H620.25V415.039H620.543C617.173 415.295 613.728 415.442 610.284 415.442Z" fill="#DD56FF"/>
<path d="M56.0618 662.618H54.6328V603.957L63.2067 589.667V454.354H64.6357V590.07L56.0618 604.323V662.618Z" fill="#DD56FF"/>
<path d="M365.306 693.066L373.477 680.242H615.047L634.064 655.51L640.732 543.28V656.939L620.14 692.187L365.306 693.066Z" fill="#DD56FF"/>
<path d="M67.2362 123.857L47.2671 141.92V388.254L35.1758 378.691V139.209L50.8579 122.941L67.2362 123.857Z" fill="#DD56FF"/>
<path opacity="0.7" d="M642.564 125.543H629.264V161.67H642.564V125.543Z" fill="#DD56FF"/>
<path opacity="0.4" d="M642.564 174.054H629.264V210.181H642.564V174.054Z" fill="#DD56FF"/>
<path opacity="0.4" d="M642.564 222.529H629.264V258.657H642.564V222.529Z" fill="#DD56FF"/>
<path opacity="0.2" d="M629.264 319.553V370.923L642.601 386.129V319.553H629.264Z" fill="#DD56FF"/>
<path opacity="0.2" d="M642.564 271.042H629.264V307.17H642.564V271.042Z" fill="#DD56FF"/>
<path d="M599.843 108.175C599.938 108.001 600.012 107.817 600.063 107.626L602.774 97.183C602.882 96.7938 602.896 96.3845 602.813 95.9892C602.73 95.594 602.553 95.2244 602.298 94.9113C602.037 94.6018 601.712 94.353 601.345 94.1821C600.978 94.0113 600.578 93.9226 600.173 93.9221H532.095L537.335 76.4812C537.37 76.1891 537.37 75.8939 537.335 75.6018C537.316 74.8988 537.02 74.2316 536.513 73.7447C536.005 73.2579 535.327 72.9904 534.624 73.0003H507.839C507.263 72.9951 506.7 73.1735 506.233 73.5095C505.765 73.8455 505.417 74.3216 505.238 74.869L499.522 93.9221H489.958L495.198 76.4812C495.234 76.1891 495.234 75.8939 495.198 75.6018C495.179 74.8988 494.884 74.2316 494.376 73.7447C493.869 73.2579 493.19 72.9904 492.487 73.0003H465.666C465.091 73.0007 464.531 73.1812 464.065 73.5164C463.598 73.8516 463.248 74.3246 463.065 74.869L457.385 93.9221H447.822L453.062 76.4812C453.097 76.1891 453.097 75.8939 453.062 75.6018C453.043 74.8988 452.747 74.2316 452.24 73.7447C451.732 73.2579 451.054 72.9904 450.35 73.0003H423.529C422.953 72.9951 422.39 73.1735 421.923 73.5095C421.455 73.8455 421.107 74.3216 420.928 74.869L415.249 93.9221H405.685L410.889 76.4812C410.942 76.1904 410.942 75.8926 410.889 75.6018C410.884 75.2554 410.811 74.9133 410.674 74.595C410.537 74.2768 410.338 73.9886 410.09 73.747C409.841 73.5054 409.548 73.3151 409.226 73.187C408.904 73.0589 408.56 72.9954 408.214 73.0003H381.393C380.817 72.9951 380.254 73.1735 379.786 73.5095C379.318 73.8455 378.97 74.3216 378.791 74.869L369.375 106.27C369.282 106.586 369.253 106.917 369.291 107.245C369.328 107.572 369.432 107.889 369.595 108.175H599.843Z" fill="#DD56FF"/>
<path d="M365.306 693.066H49.5753C49.4604 693.234 49.3735 693.42 49.3186 693.616L46.6072 704.095C46.4994 704.478 46.4866 704.882 46.5696 705.271C46.6526 705.66 46.8293 706.024 47.084 706.33C47.3431 706.644 47.6671 706.899 48.034 707.076C48.4008 707.253 48.8021 707.348 49.2094 707.356H117.287L112.047 724.797C112.009 725.076 112.009 725.36 112.047 725.639C112.052 725.991 112.126 726.338 112.265 726.66C112.404 726.983 112.605 727.275 112.857 727.52C113.109 727.765 113.406 727.958 113.733 728.088C114.059 728.218 114.408 728.282 114.759 728.278H141.58C142.159 728.275 142.722 728.089 143.189 727.746C143.656 727.404 144.004 726.923 144.181 726.372L149.861 707.356H159.423L154.184 724.797C154.146 725.076 154.146 725.36 154.184 725.639C154.189 725.991 154.263 726.338 154.401 726.66C154.54 726.983 154.742 727.275 154.994 727.52C155.245 727.765 155.543 727.958 155.869 728.088C156.196 728.218 156.544 728.282 156.895 728.278H183.46C184.042 728.286 184.61 728.105 185.08 727.761C185.549 727.417 185.894 726.93 186.061 726.372L191.741 707.356H201.304L196.101 724.797C196.045 725.075 196.045 725.361 196.101 725.639C196.11 726.342 196.396 727.013 196.897 727.507C197.397 728.001 198.072 728.278 198.775 728.278H225.596C226.178 728.286 226.747 728.105 227.216 727.761C227.686 727.417 228.03 726.93 228.198 726.372L233.914 707.356H243.441L238.237 724.797C238.182 725.075 238.182 725.361 238.237 725.639C238.242 725.991 238.316 726.338 238.454 726.66C238.593 726.983 238.795 727.275 239.047 727.52C239.298 727.765 239.596 727.958 239.922 728.088C240.249 728.218 240.597 728.282 240.948 728.278H267.733C268.315 728.286 268.883 728.105 269.353 727.761C269.822 727.417 270.167 726.93 270.334 726.372L278.578 698.855H299.977L297.851 705.927C297.831 706.048 297.831 706.172 297.851 706.293C297.851 706.436 297.88 706.577 297.935 706.709C297.991 706.84 298.072 706.959 298.175 707.058C298.278 707.157 298.4 707.235 298.533 707.286C298.666 707.337 298.808 707.361 298.951 707.356H309.943C310.178 707.353 310.406 707.278 310.597 707.14C310.787 707.002 310.93 706.809 311.005 706.586L313.313 698.855H317.197L315.072 705.927C315.052 706.048 315.052 706.172 315.072 706.293C315.082 706.578 315.201 706.849 315.407 707.047C315.612 707.245 315.886 707.356 316.171 707.356H327.164C327.399 707.353 327.627 707.278 327.817 707.14C328.008 707.002 328.151 706.809 328.226 706.586L330.534 698.855H333.686L331.597 705.927C331.576 706.048 331.576 706.172 331.597 706.293C331.597 706.436 331.625 706.577 331.681 706.709C331.737 706.84 331.819 706.959 331.922 707.058C332.024 707.157 332.145 707.235 332.279 707.286C332.412 707.337 332.554 707.361 332.696 707.356H343.688C343.926 707.365 344.16 707.294 344.353 707.155C344.546 707.015 344.686 706.815 344.751 706.586L347.059 698.855H350.943L348.818 705.927C348.798 706.048 348.798 706.172 348.818 706.293C348.818 706.436 348.847 706.577 348.903 706.709C348.958 706.84 349.04 706.959 349.142 707.058C349.245 707.157 349.366 707.235 349.499 707.286C349.633 707.337 349.775 707.361 349.917 707.356H360.909C361.144 707.353 361.373 707.278 361.563 707.14C361.754 707.002 361.896 706.809 361.972 706.586L365.636 693.835C365.628 693.546 365.51 693.271 365.306 693.066Z" fill="#DD56FF"/>
<path d="M664 539.946C664.007 541.362 663.593 542.748 662.811 543.929C662.029 545.109 660.914 546.031 659.607 546.576C658.3 547.121 656.86 547.266 655.471 546.991C654.081 546.717 652.805 546.036 651.804 545.034C650.802 544.033 650.121 542.756 649.847 541.367C649.572 539.978 649.716 538.538 650.262 537.231C650.807 535.924 651.728 534.808 652.909 534.026C654.089 533.244 655.476 532.83 656.892 532.837C657.825 532.837 658.75 533.021 659.612 533.378C660.475 533.736 661.258 534.259 661.918 534.919C662.578 535.579 663.102 536.363 663.46 537.225C663.817 538.088 664 539.012 664 539.946Z" fill="#DD56FF"/>
<path d="M61.998 661.227C61.9979 662.641 61.5779 664.024 60.7912 665.2C60.0045 666.375 58.8857 667.291 57.578 667.831C56.2703 668.371 54.8322 668.51 53.4452 668.231C52.0583 667.953 50.7852 667.268 49.7875 666.266C48.7897 665.263 48.1125 663.986 47.8409 662.598C47.5694 661.209 47.7159 659.772 48.2623 658.467C48.8087 657.162 49.7303 656.048 50.9101 655.268C52.0899 654.487 53.4744 654.074 54.889 654.082C55.8256 654.082 56.7535 654.267 57.6183 654.626C58.4831 654.986 59.2683 655.512 59.9289 656.176C60.5894 656.84 61.1124 657.628 61.4675 658.495C61.8226 659.362 62.0028 660.29 61.998 661.227Z" fill="#DD56FF"/>
<path d="M365.306 693.066L373.477 680.242H615.047L634.064 655.51L640.732 543.28V656.939L620.14 692.187L365.306 693.066Z" fill="#DD56FF"/>
<path d="M67.2362 123.857L47.2671 141.92V388.254L35.1758 378.691V139.209L50.8579 122.941L67.2362 123.857Z" fill="#DD56FF"/>
<path d="M167.522 4.29053H83.166V4.92221H167.522V4.29053Z" fill="#DD56FF"/>
<path d="M167.495 100.411H77.4805V101.043H167.495V100.411Z" fill="#DD56FF"/>
<path d="M55.2157 37.4799H54.584V78.0918H55.2157V37.4799Z" fill="#DD56FF"/>
<path d="M309.388 37.5852H308.756V75.4073H309.388V37.5852Z" fill="#DD56FF"/>
<path d="M269.119 100.411H196.607V101.043H269.119V100.411Z" fill="#DD56FF"/>
<path d="M276.094 4.29053H196.607V4.92221H276.094V4.29053Z" fill="#DD56FF"/>
<path d="M187.131 4.71133C187.131 3.77952 186.854 2.86862 186.337 2.09385C185.819 1.31908 185.083 0.715229 184.222 0.358641C183.362 0.0020538 182.414 -0.0912626 181.5 0.0905242C180.586 0.272311 179.746 0.721057 179.088 1.37994C178.429 2.03883 177.98 2.87829 177.799 3.7922C177.617 4.7061 177.71 5.65337 178.067 6.51425C178.423 7.37513 179.027 8.11098 179.802 8.62867C180.576 9.14635 181.488 9.42266 182.419 9.42266C183.669 9.42266 184.867 8.92625 185.751 8.04271C186.634 7.15917 187.131 5.96084 187.131 4.71133Z" fill="#DD56FF"/>
<path d="M69.2954 14.8971C69.2954 14.0017 69.0295 13.1265 68.532 12.382C68.0346 11.6375 67.328 11.0572 66.5008 10.7146C65.6736 10.3719 64.763 10.2823 63.8849 10.457C63.0067 10.6317 62.2002 11.0628 61.5671 11.696C60.934 12.3291 60.5029 13.1358 60.3282 14.0139C60.1535 14.8921 60.2432 15.8023 60.5859 16.6295C60.9285 17.4568 61.5089 18.1638 62.2534 18.6612C62.9978 19.1587 63.8731 19.4241 64.7684 19.4241C65.9691 19.4241 67.1201 18.9472 67.9691 18.0982C68.8181 17.2492 69.2954 16.0977 69.2954 14.8971Z" fill="#DD56FF"/>
<path d="M297.544 89.4619C297.549 89.0287 297.425 88.6038 297.189 88.2411C296.952 87.8784 296.612 87.5943 296.214 87.4249C295.815 87.2555 295.375 87.2085 294.949 87.2898C294.524 87.3711 294.132 87.577 293.824 87.8815C293.516 88.1859 293.305 88.5751 293.219 88.9995C293.132 89.424 293.174 89.8646 293.339 90.2654C293.503 90.6661 293.783 91.0088 294.143 91.25C294.502 91.4913 294.926 91.62 295.359 91.6201C295.934 91.6201 296.486 91.3936 296.895 90.9896C297.304 90.5856 297.537 90.0367 297.544 89.4619Z" fill="#DD56FF"/>
<path d="M63.9522 96.3843C63.9574 95.95 63.8329 95.5241 63.5949 95.1608C63.3569 94.7976 63.0159 94.5135 62.6156 94.3449C62.2154 94.1763 61.774 94.1308 61.3478 94.2143C60.9216 94.2978 60.5297 94.5063 60.2226 94.8134C59.9156 95.1205 59.7072 95.5122 59.6238 95.9384C59.5403 96.3646 59.5856 96.806 59.7542 97.2062C59.9228 97.6065 60.207 97.9473 60.5703 98.1854C60.9335 98.4234 61.3595 98.5478 61.7938 98.5426C62.364 98.5357 62.9089 98.3062 63.3122 97.9029C63.7155 97.4996 63.9454 96.9546 63.9522 96.3843Z" fill="#DD56FF"/>
<path d="M305.701 13.7921C305.701 12.8082 305.409 11.8464 304.863 11.0283C304.316 10.2103 303.54 9.57266 302.631 9.19615C301.722 8.81964 300.721 8.72115 299.756 8.9131C298.791 9.10504 297.905 9.57879 297.209 10.2745C296.513 10.9702 296.039 11.8566 295.847 12.8215C295.656 13.7865 295.754 14.7867 296.131 15.6957C296.507 16.6047 297.145 17.3816 297.963 17.9282C298.781 18.4748 299.743 18.7665 300.727 18.7665C302.046 18.7665 303.311 18.2425 304.244 17.3096C305.177 16.3766 305.701 15.1114 305.701 13.7921Z" fill="#DD56FF"/>
<path d="M184.603 100.543C184.603 100.111 184.476 99.6888 184.236 99.3295C183.996 98.9703 183.654 98.6903 183.255 98.525C182.856 98.3596 182.417 98.3163 181.993 98.4006C181.569 98.4849 181.18 98.6929 180.875 98.9985C180.569 99.304 180.361 99.6933 180.276 100.117C180.192 100.541 180.236 100.98 180.401 101.379C180.566 101.778 180.846 102.12 181.205 102.36C181.565 102.6 181.987 102.728 182.419 102.728C182.999 102.728 183.554 102.498 183.964 102.088C184.374 101.678 184.603 101.123 184.603 100.543Z" fill="#DD56FF"/>
<path d="M83.6657 18.5558V13.8181H284.598L300.202 29.3965V74.9073H294.464H294.257L294.111 75.0535L277.202 91.9365H69.4232L62.7412 85.2545V30.3438L74.0292 19.0558H83.1657H83.6657V18.5558Z" fill="#080C12" stroke="#DD56FF"/>
<path d="M277.487 92.963L277.04 92.5155L294.332 75.2495H300.649V75.8549H294.596L277.487 92.963Z" fill="#DD56FF"/>
<path d="M285.049 13.0701L284.603 13.5167L300.496 29.4107L300.943 28.964L285.049 13.0701Z" fill="#DD56FF"/>
<path d="M62.3722 30.2947L61.9248 29.8472L73.8478 17.9242H83.2968V18.5559H74.111L62.3722 30.2947Z" fill="#DD56FF"/>
<path d="M105.171 104.228L107.803 106.86H134.755L136.966 109.097H155.916L161.786 103.201H104.065L105.171 104.228Z" fill="#DD56FF"/>
<path d="M259.563 104.228L256.931 106.86H229.979L227.768 109.097H208.844L202.948 103.201H260.695L259.563 104.228Z" fill="#DD56FF"/>
<path d="M635.705 648.564C635.707 648.623 635.902 648.503 635.844 648.546C635.556 648.763 635.476 648.785 635.392 648.785C635.309 648.785 635.228 648.763 635.167 648.725L626.15 642.188C626.116 642.168 626.089 642.144 626.072 642.116C626.054 642.088 626.046 642.058 626.048 642.028L626.048 600.873L563.873 600.873C563.788 600.873 563.707 600.85 563.647 600.809C563.586 600.768 563.553 600.711 563.553 600.653C563.553 600.595 563.586 600.539 563.647 600.497C563.707 600.456 563.788 600.433 563.873 600.433L626.368 600.433C626.453 600.433 626.534 600.456 626.594 600.497C626.654 600.539 626.688 600.595 626.688 600.653L626.688 641.938L635.618 648.414C635.673 648.455 635.705 648.508 635.705 648.564Z" fill="#DD56FF"/>
<path d="M629.354 644.433L626.354 641.933L625.924 600.433L628.151 602.335L628.151 612.569L629.854 614.321L629.854 636.69L627.729 640.495L629.354 644.433Z" fill="#DD56FF"/>
</svg>
