<svg width="477" height="561" viewBox="0 0 477 561" fill="none" xmlns="http://www.w3.org/2000/svg">
<path opacity="0.8" d="M445.444 313.368V125.495L431.205 114.545H266.23L253.439 125.495H36.5345L25.0586 136.417V308.578L36.5345 319.106V455.628L30.5334 464.419V522.481C30.5334 524.534 36.5345 534.51 36.5345 534.51H445.444L459.894 509.163V328.712L445.444 313.368Z" fill="#DD56FF"/>
<path d="M446.049 535.457H35.9554L35.6392 534.957C34.2179 532.562 29.5064 524.429 29.5064 522.403V464.025L35.5075 455.234V319.474L24.0586 308.946V135.97L36.1128 124.468H253.07L265.835 113.519H431.652L446.55 124.995V312.947L460.999 328.318V509.348L446.049 535.457ZM37.0342 533.404H444.759L458.788 508.821V329.134L444.338 313.763V126.021L430.784 115.493H266.519L253.755 126.442H37.0342L26.19 136.786V308.051L37.6659 318.579V455.865L31.6648 464.656V522.403C33.0417 526.257 34.8426 529.947 37.0342 533.404V533.404Z" fill="#DD56FF"/>
<path opacity="0.7" d="M461.577 127.364H452.022V153.315H461.577V127.364Z" fill="#DD56FF"/>
<path opacity="0.4" d="M461.577 162.211H452.022V188.162H461.577V162.211Z" fill="#DD56FF"/>
<path opacity="0.4" d="M461.577 197.032H452.022V222.984H461.577V197.032Z" fill="#DD56FF"/>
<path opacity="0.2" d="M452.022 266.728V303.629L461.603 314.552V266.728H452.022Z" fill="#DD56FF"/>
<path opacity="0.2" d="M461.577 231.881H452.022V257.833H461.577V231.881Z" fill="#DD56FF"/>
<path d="M430.888 114.888C430.957 114.763 431.01 114.63 431.046 114.493L432.994 106.992C433.071 106.712 433.081 106.418 433.022 106.134C432.962 105.85 432.835 105.585 432.652 105.36C432.465 105.138 432.231 104.959 431.967 104.836C431.703 104.713 431.416 104.65 431.125 104.649H382.222L385.986 92.1209C386.012 91.9111 386.012 91.699 385.986 91.4892C385.973 90.9842 385.76 90.505 385.396 90.1552C385.031 89.8055 384.544 89.6133 384.039 89.6204H364.799C364.385 89.6167 363.981 89.7449 363.645 89.9862C363.309 90.2276 363.059 90.5696 362.93 90.9628L358.824 104.649H351.954L355.718 92.1209C355.744 91.9111 355.744 91.699 355.718 91.4892C355.705 90.9842 355.492 90.505 355.128 90.1552C354.763 89.8055 354.276 89.6133 353.771 89.6204H334.504C334.091 89.6207 333.689 89.7504 333.354 89.9912C333.019 90.232 332.768 90.5718 332.635 90.9628L328.556 104.649H321.686L325.45 92.1209C325.475 91.9111 325.475 91.699 325.45 91.4892C325.436 90.9842 325.224 90.505 324.86 90.1552C324.495 89.8055 324.008 89.6133 323.502 89.6204H304.236C303.822 89.6167 303.418 89.7449 303.082 89.9862C302.746 90.2276 302.496 90.5696 302.367 90.9628L298.288 104.649H291.418L295.156 92.1209C295.194 91.912 295.194 91.6981 295.156 91.4892C295.152 91.2403 295.1 90.9946 295.001 90.766C294.903 90.5374 294.76 90.3304 294.582 90.1568C294.403 89.9833 294.192 89.8466 293.961 89.7546C293.73 89.6625 293.483 89.6169 293.234 89.6204H273.968C273.554 89.6167 273.15 89.7449 272.814 89.9862C272.478 90.2276 272.228 90.5696 272.099 90.9628L265.335 113.519C265.268 113.746 265.247 113.984 265.274 114.22C265.301 114.455 265.376 114.682 265.493 114.888H430.888Z" fill="#DD56FF"/>
<path d="M262.412 535.035H35.6119C35.5294 535.156 35.467 535.29 35.4275 535.43L33.4798 542.958C33.4024 543.233 33.3932 543.523 33.4529 543.803C33.5125 544.082 33.6394 544.344 33.8223 544.563C34.0085 544.789 34.2412 544.972 34.5048 545.099C34.7683 545.226 35.0565 545.295 35.3491 545.3H84.2515L80.4879 557.829C80.4605 558.03 80.4605 558.233 80.4879 558.434C80.4913 558.686 80.5443 558.936 80.6441 559.167C80.7438 559.399 80.8886 559.609 81.0694 559.785C81.2503 559.961 81.4641 560.1 81.6985 560.193C81.933 560.286 82.1832 560.333 82.4356 560.329H101.702C102.118 560.327 102.523 560.193 102.858 559.948C103.194 559.702 103.443 559.356 103.571 558.96L107.65 545.3H114.52L110.756 557.829C110.729 558.03 110.729 558.233 110.756 558.434C110.76 558.686 110.812 558.936 110.912 559.167C111.012 559.399 111.157 559.609 111.338 559.785C111.518 559.961 111.732 560.1 111.967 560.193C112.201 560.286 112.451 560.333 112.704 560.329H131.786C132.204 560.335 132.612 560.205 132.95 559.958C133.287 559.711 133.534 559.361 133.654 558.96L137.734 545.3H144.604L140.866 557.829C140.826 558.029 140.826 558.234 140.866 558.434C140.873 558.939 141.078 559.421 141.438 559.776C141.798 560.13 142.282 560.329 142.787 560.329H162.054C162.472 560.335 162.88 560.205 163.218 559.958C163.555 559.711 163.802 559.361 163.923 558.96L168.029 545.3H174.872L171.134 557.829C171.095 558.029 171.095 558.234 171.134 558.434C171.138 558.686 171.191 558.936 171.29 559.167C171.39 559.399 171.535 559.609 171.716 559.785C171.897 559.961 172.111 560.1 172.345 560.193C172.579 560.286 172.83 560.333 173.082 560.329H192.322C192.74 560.335 193.149 560.205 193.486 559.958C193.823 559.711 194.071 559.361 194.191 558.96L200.113 539.194H215.484L213.957 544.274C213.943 544.361 213.943 544.45 213.957 544.537C213.957 544.64 213.978 544.741 214.018 544.835C214.058 544.93 214.116 545.015 214.19 545.086C214.264 545.158 214.351 545.213 214.447 545.25C214.543 545.287 214.645 545.304 214.747 545.3H222.643C222.812 545.298 222.976 545.244 223.113 545.145C223.249 545.046 223.352 544.907 223.406 544.748L225.064 539.194H227.854L226.328 544.274C226.313 544.361 226.313 544.45 226.328 544.537C226.334 544.742 226.421 544.936 226.568 545.078C226.715 545.221 226.912 545.3 227.117 545.3H235.013C235.182 545.298 235.346 545.244 235.483 545.145C235.62 545.046 235.722 544.907 235.777 544.748L237.435 539.194H239.698L238.198 544.274C238.183 544.361 238.183 544.45 238.198 544.537C238.198 544.64 238.218 544.741 238.258 544.835C238.298 544.93 238.358 545.015 238.431 545.086C238.505 545.158 238.592 545.213 238.688 545.25C238.783 545.287 238.885 545.304 238.988 545.3H246.884C247.055 545.307 247.223 545.256 247.361 545.156C247.5 545.056 247.6 544.912 247.647 544.748L249.305 539.194H252.095L250.568 544.274C250.554 544.361 250.554 544.45 250.568 544.537C250.568 544.64 250.589 544.741 250.629 544.835C250.669 544.93 250.728 545.015 250.802 545.086C250.875 545.158 250.962 545.213 251.058 545.25C251.154 545.287 251.256 545.304 251.358 545.3H259.254C259.423 545.298 259.587 545.244 259.724 545.145C259.861 545.046 259.963 544.907 260.018 544.748L262.65 535.588C262.644 535.381 262.559 535.183 262.412 535.035Z" fill="#DD56FF"/>
<path d="M454.103 544.774H266.914C266.837 544.792 266.757 544.792 266.68 544.774C266.603 544.757 266.531 544.722 266.469 544.673C266.407 544.623 266.357 544.561 266.323 544.489C266.289 544.418 266.271 544.34 266.271 544.261C266.271 544.182 266.289 544.104 266.323 544.033C266.357 543.961 266.407 543.899 266.469 543.85C266.531 543.8 266.603 543.766 266.68 543.748C266.757 543.73 266.837 543.73 266.914 543.748H453.787L471.343 511.348V426.755C471.343 426.687 471.356 426.62 471.383 426.557C471.41 426.495 471.449 426.438 471.498 426.392C471.548 426.345 471.606 426.308 471.67 426.285C471.734 426.261 471.801 426.251 471.869 426.255C472.002 426.255 472.129 426.307 472.222 426.401C472.316 426.495 472.369 426.622 472.369 426.755V511.479C472.381 511.558 472.381 511.638 472.369 511.716L454.603 544.511C454.556 544.6 454.483 544.673 454.394 544.72C454.305 544.767 454.203 544.786 454.103 544.774V544.774Z" fill="#DD56FF"/>
<path d="M476.974 425.044C476.979 426.061 476.682 427.057 476.12 427.905C475.558 428.753 474.757 429.415 473.819 429.807C472.88 430.198 471.845 430.302 470.847 430.105C469.849 429.908 468.933 429.419 468.213 428.699C467.494 427.98 467.005 427.063 466.807 426.065C466.61 425.067 466.714 424.033 467.106 423.094C467.497 422.155 468.159 421.354 469.007 420.792C469.855 420.23 470.851 419.932 471.868 419.938C472.539 419.938 473.203 420.07 473.822 420.326C474.442 420.583 475.005 420.959 475.479 421.433C475.953 421.907 476.33 422.47 476.586 423.09C476.843 423.709 476.974 424.373 476.974 425.044V425.044Z" fill="#DD56FF"/>
<path d="M44.5355 512.164C44.5355 513.18 44.2338 514.174 43.6686 515.018C43.1035 515.863 42.2999 516.521 41.3605 516.908C40.4211 517.296 39.3881 517.396 38.3918 517.196C37.3955 516.996 36.481 516.504 35.7642 515.784C35.0475 515.064 34.561 514.147 34.366 513.149C34.1709 512.152 34.2761 511.119 34.6686 510.182C35.0611 509.244 35.7232 508.445 36.5707 507.884C37.4182 507.323 38.4127 507.027 39.4289 507.032C40.1017 507.032 40.7682 507.165 41.3894 507.423C42.0106 507.681 42.5747 508.06 43.0492 508.537C43.5237 509.014 43.8994 509.58 44.1544 510.202C44.4095 510.825 44.539 511.492 44.5355 512.164V512.164Z" fill="#DD56FF"/>
<path opacity="0.4" d="M2.63275 127.363H2.47532C2.27548 127.323 2.0692 127.323 1.86936 127.363C1.61823 127.367 1.37039 127.42 1.14003 127.52C0.909672 127.62 0.701532 127.765 0.527651 127.946C0.35377 128.127 0.217773 128.341 0.127322 128.576C0.0368717 128.81 -0.00626554 129.06 0.000733829 129.311V148.551C-0.00297878 148.965 0.125019 149.369 0.366363 149.705C0.607707 150.041 0.949886 150.291 1.34309 150.42L15.0294 154.526V161.395L2.47532 157.631C2.27548 157.592 2.0692 157.592 1.86936 157.631C1.61823 157.635 1.37039 157.688 1.14003 157.788C0.909672 157.888 0.701532 158.033 0.527651 158.214C0.35377 158.395 0.217773 158.609 0.127322 158.844C0.0368717 159.078 -0.00626554 159.328 0.000733829 159.579V178.477C-0.00297878 178.891 0.125019 179.295 0.366363 179.631C0.607707 179.967 0.949886 180.217 1.34309 180.346L15.0294 184.452V191.321L2.47532 187.557C2.27446 187.53 2.07022 187.53 1.86936 187.557C1.61823 187.561 1.37039 187.614 1.14003 187.714C0.909672 187.814 0.701532 187.959 0.527651 188.14C0.35377 188.321 0.217773 188.535 0.127322 188.77C0.0368717 189.004 -0.00626554 189.254 0.000733829 189.505V208.771C0.00104377 209.184 0.130725 209.586 0.371503 209.922C0.612282 210.257 0.952073 210.508 1.34309 210.64L15.0294 214.72V221.589L2.47532 217.826C2.27446 217.798 2.07022 217.798 1.86936 217.826C1.61823 217.829 1.37039 217.882 1.14003 217.982C0.909672 218.082 0.701532 218.227 0.527651 218.408C0.35377 218.59 0.217773 218.804 0.127322 219.038C0.0368717 219.272 -0.00626554 219.522 0.000733829 219.773V239.013C-0.00297878 239.427 0.125019 239.831 0.366363 240.167C0.607707 240.503 0.949886 240.753 1.34309 240.882L21.1095 246.804V262.175L16.0299 260.648H15.7665C15.5663 260.662 15.379 260.751 15.2421 260.897C15.1053 261.044 15.029 261.237 15.0294 261.438V269.334C15.0255 269.501 15.0743 269.664 15.1689 269.801C15.2634 269.938 15.3993 270.042 15.5564 270.097L21.1095 271.756V274.545L16.0299 273.019H15.7665C15.6662 273.022 15.568 273.045 15.4767 273.087C15.3854 273.128 15.3029 273.188 15.2344 273.261C15.166 273.334 15.1128 273.42 15.0776 273.514C15.0425 273.608 15.0259 273.708 15.0294 273.808V281.705C15.0212 281.872 15.0686 282.037 15.1637 282.175C15.2589 282.313 15.397 282.416 15.5564 282.468L21.1095 284.126V286.916L16.0299 285.389H15.7665C15.6662 285.393 15.568 285.416 15.4767 285.457C15.3854 285.499 15.3029 285.558 15.2344 285.631C15.166 285.705 15.1128 285.791 15.0776 285.885C15.0425 285.979 15.0259 286.079 15.0294 286.179V294.075C15.0255 294.241 15.0743 294.405 15.1689 294.542C15.2634 294.679 15.3993 294.783 15.5564 294.838L21.1095 296.497V299.286L16.0299 297.76H15.7665C15.5663 297.773 15.379 297.862 15.2421 298.009C15.1053 298.155 15.029 298.349 15.0294 298.549V306.445C15.0255 306.612 15.0743 306.775 15.1689 306.912C15.2634 307.05 15.3993 307.153 15.5564 307.209L24.7157 309.841C24.8028 309.879 24.8968 309.899 24.992 309.899C25.0872 309.899 25.1813 309.879 25.2683 309.841V137.181C17.6881 134.101 9.1075 130.285 2.63275 127.363Z" fill="#DD56FF"/>
<path d="M259.253 134.522H43.875V133.496H258.884L272.202 123.257H379.983V124.284H272.571L259.253 134.522Z" fill="#DD56FF"/>
<path d="M444.548 434.256H442.495V336.898L432.257 324.791V128.89H434.31V324.027L444.548 336.135V434.256Z" fill="#DD56FF"/>
<path d="M444.548 128.89H432.257V434.256H444.548V128.89Z" fill="#DD56FF"/>
<path d="M438.389 389.618C435.889 389.618 433.415 389.618 430.967 389.486H431.204V173.661H430.967C433.415 173.661 435.889 173.529 438.389 173.529C440.89 173.529 443.338 173.529 445.785 173.661H445.548V389.486H445.785C443.338 389.565 440.863 389.618 438.389 389.618Z" fill="#DD56FF"/>
<path d="M438.388 335.608C435.888 335.608 433.44 335.608 431.019 335.319H431.203V227.854H431.019C433.44 227.669 435.888 227.564 438.388 227.564C440.889 227.564 443.337 227.564 445.758 227.854H445.547V335.319H445.758C443.337 335.503 440.862 335.608 438.388 335.608Z" fill="#DD56FF"/>
<path d="M40.2706 513.164H39.2441V471.025L45.4031 460.76V363.56H46.4295V461.05L40.2706 471.288V513.164Z" fill="#DD56FF"/>
<path d="M262.412 535.036L268.282 525.824H441.81L455.47 508.058L460.261 427.439V509.084L445.469 534.404L262.412 535.036Z" fill="#DD56FF"/>
<path d="M48.2987 126.152L33.9542 139.128V316.079L25.2686 309.209V137.181L36.5336 125.494L48.2987 126.152Z" fill="#DD56FF"/>
<path opacity="0.7" d="M461.577 127.364H452.022V153.315H461.577V127.364Z" fill="#DD56FF"/>
<path opacity="0.4" d="M461.577 162.211H452.022V188.162H461.577V162.211Z" fill="#DD56FF"/>
<path opacity="0.4" d="M461.577 197.032H452.022V222.984H461.577V197.032Z" fill="#DD56FF"/>
<path opacity="0.2" d="M452.022 266.728V303.629L461.603 314.552V266.728H452.022Z" fill="#DD56FF"/>
<path opacity="0.2" d="M461.577 231.881H452.022V257.833H461.577V231.881Z" fill="#DD56FF"/>
<path d="M430.888 114.888C430.957 114.763 431.01 114.63 431.046 114.493L432.994 106.992C433.071 106.712 433.081 106.418 433.022 106.134C432.962 105.85 432.835 105.585 432.652 105.36C432.465 105.138 432.231 104.959 431.967 104.836C431.703 104.713 431.416 104.65 431.125 104.649H382.222L385.986 92.1209C386.012 91.9111 386.012 91.699 385.986 91.4892C385.973 90.9842 385.76 90.505 385.396 90.1552C385.031 89.8055 384.544 89.6133 384.039 89.6204H364.799C364.385 89.6167 363.981 89.7449 363.645 89.9862C363.309 90.2276 363.059 90.5696 362.93 90.9628L358.824 104.649H351.954L355.718 92.1209C355.744 91.9111 355.744 91.699 355.718 91.4892C355.705 90.9842 355.492 90.505 355.128 90.1552C354.763 89.8055 354.276 89.6133 353.771 89.6204H334.504C334.091 89.6207 333.689 89.7504 333.354 89.9912C333.019 90.232 332.768 90.5718 332.635 90.9628L328.556 104.649H321.686L325.45 92.1209C325.475 91.9111 325.475 91.699 325.45 91.4892C325.436 90.9842 325.224 90.505 324.86 90.1552C324.495 89.8055 324.008 89.6133 323.502 89.6204H304.236C303.822 89.6167 303.418 89.7449 303.082 89.9862C302.746 90.2276 302.496 90.5696 302.367 90.9628L298.288 104.649H291.418L295.156 92.1209C295.194 91.912 295.194 91.6981 295.156 91.4892C295.152 91.2403 295.1 90.9946 295.001 90.766C294.903 90.5374 294.76 90.3304 294.582 90.1568C294.403 89.9833 294.192 89.8466 293.961 89.7546C293.73 89.6625 293.483 89.6169 293.234 89.6204H273.968C273.554 89.6167 273.15 89.7449 272.814 89.9862C272.478 90.2276 272.228 90.5696 272.099 90.9628L265.335 113.519C265.268 113.746 265.247 113.984 265.274 114.22C265.301 114.455 265.376 114.682 265.493 114.888H430.888Z" fill="#DD56FF"/>
<path d="M262.412 535.035H35.6119C35.5294 535.156 35.467 535.29 35.4275 535.43L33.4798 542.958C33.4024 543.233 33.3932 543.523 33.4529 543.803C33.5125 544.082 33.6394 544.344 33.8223 544.563C34.0085 544.789 34.2412 544.972 34.5048 545.099C34.7683 545.226 35.0565 545.295 35.3491 545.3H84.2515L80.4879 557.829C80.4605 558.03 80.4605 558.233 80.4879 558.434C80.4913 558.686 80.5443 558.936 80.6441 559.167C80.7438 559.399 80.8886 559.609 81.0694 559.785C81.2503 559.961 81.4641 560.1 81.6985 560.193C81.933 560.286 82.1832 560.333 82.4356 560.329H101.702C102.118 560.327 102.523 560.193 102.858 559.948C103.194 559.702 103.443 559.356 103.571 558.96L107.65 545.3H114.52L110.756 557.829C110.729 558.03 110.729 558.233 110.756 558.434C110.76 558.686 110.812 558.936 110.912 559.167C111.012 559.399 111.157 559.609 111.338 559.785C111.518 559.961 111.732 560.1 111.967 560.193C112.201 560.286 112.451 560.333 112.704 560.329H131.786C132.204 560.335 132.612 560.205 132.95 559.958C133.287 559.711 133.534 559.361 133.654 558.96L137.734 545.3H144.604L140.866 557.829C140.826 558.029 140.826 558.234 140.866 558.434C140.873 558.939 141.078 559.421 141.438 559.776C141.798 560.13 142.282 560.329 142.787 560.329H162.054C162.472 560.335 162.88 560.205 163.218 559.958C163.555 559.711 163.802 559.361 163.923 558.96L168.029 545.3H174.872L171.134 557.829C171.095 558.029 171.095 558.234 171.134 558.434C171.138 558.686 171.191 558.936 171.29 559.167C171.39 559.399 171.535 559.609 171.716 559.785C171.897 559.961 172.111 560.1 172.345 560.193C172.579 560.286 172.83 560.333 173.082 560.329H192.322C192.74 560.335 193.149 560.205 193.486 559.958C193.823 559.711 194.071 559.361 194.191 558.96L200.113 539.194H215.484L213.957 544.274C213.943 544.361 213.943 544.45 213.957 544.537C213.957 544.64 213.978 544.741 214.018 544.835C214.058 544.93 214.116 545.015 214.19 545.086C214.264 545.158 214.351 545.213 214.447 545.25C214.543 545.287 214.645 545.304 214.747 545.3H222.643C222.812 545.298 222.976 545.244 223.113 545.145C223.249 545.046 223.352 544.907 223.406 544.748L225.064 539.194H227.854L226.328 544.274C226.313 544.361 226.313 544.45 226.328 544.537C226.334 544.742 226.421 544.936 226.568 545.078C226.715 545.221 226.912 545.3 227.117 545.3H235.013C235.182 545.298 235.346 545.244 235.483 545.145C235.62 545.046 235.722 544.907 235.777 544.748L237.435 539.194H239.698L238.198 544.274C238.183 544.361 238.183 544.45 238.198 544.537C238.198 544.64 238.218 544.741 238.258 544.835C238.298 544.93 238.358 545.015 238.431 545.086C238.505 545.158 238.592 545.213 238.688 545.25C238.783 545.287 238.885 545.304 238.988 545.3H246.884C247.055 545.307 247.223 545.256 247.361 545.156C247.5 545.056 247.6 544.912 247.647 544.748L249.305 539.194H252.095L250.568 544.274C250.554 544.361 250.554 544.45 250.568 544.537C250.568 544.64 250.589 544.741 250.629 544.835C250.669 544.93 250.728 545.015 250.802 545.086C250.875 545.158 250.962 545.213 251.058 545.25C251.154 545.287 251.256 545.304 251.358 545.3H259.254C259.423 545.298 259.587 545.244 259.724 545.145C259.861 545.046 259.963 544.907 260.018 544.748L262.65 535.588C262.644 535.381 262.559 535.183 262.412 535.035Z" fill="#DD56FF"/>
<path d="M476.974 425.044C476.979 426.061 476.682 427.057 476.12 427.905C475.558 428.753 474.757 429.415 473.819 429.807C472.88 430.198 471.845 430.302 470.847 430.105C469.849 429.908 468.933 429.419 468.213 428.699C467.494 427.98 467.005 427.063 466.807 426.065C466.61 425.067 466.714 424.033 467.106 423.094C467.497 422.155 468.159 421.354 469.007 420.792C469.855 420.23 470.851 419.932 471.868 419.938C472.539 419.938 473.203 420.07 473.822 420.326C474.442 420.583 475.005 420.959 475.479 421.433C475.953 421.907 476.33 422.47 476.586 423.09C476.843 423.709 476.974 424.373 476.974 425.044V425.044Z" fill="#DD56FF"/>
<path d="M44.5355 512.164C44.5355 513.18 44.2338 514.174 43.6686 515.018C43.1035 515.863 42.2999 516.521 41.3605 516.908C40.4211 517.296 39.3881 517.396 38.3918 517.196C37.3955 516.996 36.481 516.504 35.7642 515.784C35.0475 515.064 34.561 514.147 34.366 513.149C34.1709 512.152 34.2761 511.119 34.6686 510.182C35.0611 509.244 35.7232 508.445 36.5707 507.884C37.4182 507.323 38.4127 507.027 39.4289 507.032C40.1017 507.032 40.7682 507.165 41.3894 507.423C42.0106 507.681 42.5747 508.06 43.0492 508.537C43.5237 509.014 43.8994 509.58 44.1544 510.202C44.4095 510.825 44.539 511.492 44.5355 512.164V512.164Z" fill="#DD56FF"/>
<path d="M262.412 535.036L268.282 525.824H441.81L455.47 508.058L460.261 427.439V509.084L445.469 534.404L262.412 535.036Z" fill="#DD56FF"/>
<path d="M48.2987 126.152L33.9542 139.128V316.079L25.2686 309.209V137.181L36.5336 125.494L48.2987 126.152Z" fill="#DD56FF"/>
<path d="M129.522 4.34326H45.166V4.97495H129.522V4.34326Z" fill="#DD56FF"/>
<path d="M129.495 100.464H39.4805V101.096H129.495V100.464Z" fill="#DD56FF"/>
<path d="M17.2157 37.5326H16.584V78.1446H17.2157V37.5326Z" fill="#DD56FF"/>
<path d="M271.388 37.6379H270.756V75.46H271.388V37.6379Z" fill="#DD56FF"/>
<path d="M231.119 100.464H158.607V101.096H231.119V100.464Z" fill="#DD56FF"/>
<path d="M238.094 4.34326H158.607V4.97495H238.094V4.34326Z" fill="#DD56FF"/>
<path d="M149.131 4.76406C149.131 3.83226 148.854 2.92136 148.337 2.14659C147.819 1.37182 147.083 0.767963 146.222 0.411376C145.362 0.0547882 144.414 -0.0385282 143.5 0.143259C142.586 0.325045 141.746 0.773791 141.088 1.43268C140.429 2.09157 139.98 2.93103 139.799 3.84493C139.617 4.75883 139.71 5.70611 140.067 6.56699C140.423 7.42787 141.027 8.16372 141.802 8.6814C142.576 9.19909 143.488 9.47539 144.419 9.47539C145.669 9.47539 146.867 8.97899 147.751 8.09545C148.634 7.21191 149.131 6.01358 149.131 4.76406V4.76406Z" fill="#DD56FF"/>
<path d="M31.2954 14.9498C31.2954 14.0544 31.0295 13.1792 30.532 12.4347C30.0346 11.6903 29.328 11.11 28.5008 10.7673C27.6736 10.4247 26.763 10.335 25.8849 10.5097C25.0067 10.6844 24.2002 11.1156 23.5671 11.7487C22.934 12.3818 22.5029 13.1885 22.3282 14.0667C22.1535 14.9448 22.2432 15.8551 22.5859 16.6823C22.9285 17.5095 23.5089 18.2165 24.2534 18.714C24.9978 19.2114 25.8731 19.4769 26.7684 19.4769C27.9691 19.4769 29.1201 18.9999 29.9691 18.1509C30.8181 17.3019 31.2954 16.1505 31.2954 14.9498V14.9498Z" fill="#DD56FF"/>
<path d="M259.544 89.5146C259.549 89.0815 259.425 88.6565 259.189 88.2938C258.952 87.9311 258.612 87.647 258.214 87.4776C257.815 87.3082 257.375 87.2612 256.949 87.3425C256.524 87.4238 256.132 87.6297 255.824 87.9342C255.516 88.2386 255.305 88.6278 255.219 89.0523C255.132 89.4768 255.174 89.9174 255.339 90.3181C255.503 90.7188 255.783 91.0615 256.143 91.3028C256.502 91.544 256.926 91.6728 257.359 91.6728C257.934 91.6729 258.486 91.4464 258.895 91.0424C259.304 90.6383 259.537 90.0894 259.544 89.5146V89.5146Z" fill="#DD56FF"/>
<path d="M25.9522 96.437C25.9574 96.0028 25.8329 95.5768 25.5949 95.2136C25.3569 94.8503 25.0159 94.5662 24.6156 94.3976C24.2154 94.229 23.774 94.1836 23.3478 94.267C22.9216 94.3505 22.5297 94.5591 22.2226 94.8662C21.9156 95.1733 21.7072 95.565 21.6238 95.9912C21.5403 96.4174 21.5856 96.8587 21.7542 97.259C21.9228 97.6592 22.207 98.0001 22.5703 98.2381C22.9335 98.4761 23.3595 98.6005 23.7938 98.5953C24.364 98.5885 24.9089 98.3589 25.3122 97.9556C25.7155 97.5523 25.9454 97.0073 25.9522 96.437V96.437Z" fill="#DD56FF"/>
<path d="M267.701 13.8448C267.701 12.8609 267.409 11.8991 266.863 11.081C266.316 10.263 265.54 9.6254 264.631 9.24889C263.722 8.87238 262.721 8.77389 261.756 8.96583C260.791 9.15777 259.905 9.63152 259.209 10.3272C258.513 11.0229 258.039 11.9093 257.847 12.8743C257.656 13.8392 257.754 14.8395 258.131 15.7484C258.507 16.6574 259.145 17.4343 259.963 17.9809C260.781 18.5275 261.743 18.8193 262.727 18.8193C264.046 18.8193 265.311 18.2952 266.244 17.3623C267.177 16.4294 267.701 15.1641 267.701 13.8448V13.8448Z" fill="#DD56FF"/>
<path d="M146.603 100.596C146.603 100.164 146.476 99.7415 146.236 99.3823C145.996 99.023 145.654 98.743 145.255 98.5777C144.856 98.4123 144.417 98.3691 143.993 98.4533C143.569 98.5376 143.18 98.7457 142.875 99.0512C142.569 99.3567 142.361 99.746 142.276 100.17C142.192 100.594 142.236 101.033 142.401 101.432C142.566 101.831 142.846 102.172 143.205 102.412C143.565 102.652 143.987 102.78 144.419 102.78C144.999 102.78 145.554 102.55 145.964 102.141C146.374 101.731 146.603 101.175 146.603 100.596V100.596Z" fill="#DD56FF"/>
<path d="M45.6657 18.6086V13.8708H246.598L262.202 29.4492V74.9601H256.464H256.257L256.111 75.1062L239.202 91.9892H31.4232L24.7412 85.3073V30.3965L36.0292 19.1086H45.1657H45.6657V18.6086Z" fill="#080C12" stroke="#DD56FF"/>
<path d="M239.487 93.0157L239.04 92.5683L256.332 75.3022H262.649V75.9076H256.596L239.487 93.0157Z" fill="#DD56FF"/>
<path d="M247.049 13.1228L246.603 13.5695L262.496 29.4634L262.943 29.0167L247.049 13.1228Z" fill="#DD56FF"/>
<path d="M24.3722 30.3474L23.9248 29.9L35.8478 17.9769H45.2968V18.6086H36.111L24.3722 30.3474Z" fill="#DD56FF"/>
<path d="M67.1709 104.28L69.8029 106.912H96.7547L98.9656 109.15H117.916L123.786 103.254H66.0654L67.1709 104.28Z" fill="#DD56FF"/>
<path d="M221.563 104.28L218.931 106.912H191.979L189.768 109.15H170.844L164.948 103.254H222.695L221.563 104.28Z" fill="#DD56FF"/>
<rect x="45.5" y="133.5" width="384" height="384" fill="#DD56FF"/>
<rect x="45.5" y="133.5" width="384" height="384" fill="#C4C4C4"/>
<rect x="45.5" y="133.5" width="384" height="384" stroke="#DD56FF"/>
</svg>
