<svg width="28" height="28" viewBox="0 0 28 28" fill="none" xmlns="http://www.w3.org/2000/svg">
<path d="M23.9736 13.8945C24.058 14.1055 23.9314 14.2743 23.7203 14.2743H4.3058C4.05256 14.2743 3.96816 14.1055 4.01036 13.8945L6.41607 7.35263C6.50048 7.1416 6.75372 6.97278 6.96475 6.97278H20.7659C20.977 6.97278 21.2724 7.1416 21.3568 7.35263L23.9736 13.8945Z" stroke="#7EFACD" stroke-miterlimit="10" stroke-linecap="round" stroke-linejoin="round"/>
<path d="M16.4189 10.3916C16.5877 11.5734 15.4904 12.5863 13.971 12.5863C12.4516 12.5863 11.3542 11.5312 11.4386 10.3916C11.5653 9.33648 12.6626 8.57678 13.8866 8.57678C15.1527 8.57678 16.2923 9.37869 16.4189 10.3916Z" stroke="#7EFACD" stroke-miterlimit="10" stroke-linecap="round" stroke-linejoin="round"/>
<path d="M9.20705 10.5545C9.2685 10.9847 8.86907 11.3534 8.31601 11.3534C7.76295 11.3534 7.36351 10.9693 7.39424 10.5545C7.44033 10.1705 7.83976 9.89392 8.28528 9.89392C8.74617 9.89392 9.16096 10.1858 9.20705 10.5545Z" stroke="#7EFACD" stroke-miterlimit="10" stroke-linecap="round" stroke-linejoin="round"/>
<path d="M20.4717 10.5545C20.5332 10.9847 20.1337 11.3534 19.5807 11.3534C19.0276 11.3534 18.6282 10.9693 18.6589 10.5545C18.705 10.1705 19.1044 9.89392 19.5499 9.89392C20.0108 9.89392 20.4256 10.1858 20.4717 10.5545Z" stroke="#7EFACD" stroke-miterlimit="10" stroke-linecap="round" stroke-linejoin="round"/>
<path d="M4.55908 16.5114H23.4249" stroke="#7EFACD" stroke-miterlimit="10" stroke-linecap="round" stroke-linejoin="round"/>
<path d="M4.55908 18.748H23.4249" stroke="#7EFACD" stroke-miterlimit="10" stroke-linecap="round" stroke-linejoin="round"/>
<path d="M4.55908 21.0272H23.4249" stroke="#7EFACD" stroke-miterlimit="10" stroke-linecap="round" stroke-linejoin="round"/>
</svg>
