<svg width="62" height="57" viewBox="0 0 62 57" fill="none" xmlns="http://www.w3.org/2000/svg">
<path d="M2.88477 41.749V44.8936H4.66211C5.18164 44.8936 5.58496 44.7546 5.87207 44.4766C6.16374 44.1986 6.30957 43.8135 6.30957 43.3213C6.30957 42.8428 6.15918 42.4622 5.8584 42.1797C5.55762 41.8926 5.15202 41.749 4.6416 41.749H2.88477ZM2.88477 46.3906V50H0.820312V40.1357H4.86035C5.986 40.1357 6.861 40.416 7.48535 40.9766C8.11426 41.5326 8.42871 42.3005 8.42871 43.2803C8.42871 43.9229 8.26921 44.4971 7.9502 45.0029C7.63574 45.5042 7.19824 45.8643 6.6377 46.083L8.71582 50H6.37793L4.53906 46.3906H2.88477ZM16.4292 48.291V50H9.89406V40.1357H16.4292V41.8379H11.9585V44.2168H16.1763V45.8027H11.9585V48.291H16.4292ZM18.0245 40.1357H21.7911C23.2767 40.1357 24.432 40.5618 25.2569 41.4141C26.0817 42.2663 26.4942 43.4717 26.4942 45.0303C26.4942 46.5934 26.0795 47.8125 25.25 48.6875C24.4252 49.5625 23.2722 50 21.7911 50H18.0245V40.1357ZM20.0889 41.8379V48.291H21.545C22.4701 48.291 23.1742 48.0153 23.6573 47.4639C24.1449 46.9079 24.3887 46.099 24.3887 45.0371C24.3887 44.0072 24.1426 43.2165 23.6504 42.665C23.1582 42.1136 22.4564 41.8379 21.545 41.8379H20.0889ZM30.4434 47.1904H32.4327C32.4783 47.5915 32.6902 47.9173 33.0684 48.168C33.4513 48.4141 33.9184 48.5371 34.4698 48.5371C35.0167 48.5371 35.461 48.4209 35.8028 48.1885C36.1492 47.9515 36.3223 47.6507 36.3223 47.2861C36.3223 46.9671 36.1947 46.7096 35.9395 46.5137C35.6843 46.3177 35.2582 46.1536 34.6612 46.0215L33.3761 45.7412C31.5668 45.3538 30.6622 44.4355 30.6622 42.9863C30.6622 42.084 31.0131 41.3548 31.7149 40.7988C32.4213 40.2428 33.3282 39.9648 34.4356 39.9648C35.5749 39.9648 36.4841 40.236 37.1632 40.7783C37.8422 41.3161 38.1908 42.0339 38.2091 42.9316H36.2745C36.2426 42.5169 36.058 42.1911 35.7208 41.9541C35.3881 41.7126 34.962 41.5918 34.4425 41.5918C33.932 41.5918 33.5196 41.7035 33.2052 41.9268C32.8953 42.1501 32.7403 42.444 32.7403 42.8086C32.7403 43.1094 32.8656 43.3532 33.1163 43.54C33.3715 43.7269 33.7839 43.8864 34.3536 44.0186L35.5499 44.2715C36.5388 44.4811 37.2589 44.8092 37.71 45.2559C38.1612 45.6979 38.3868 46.2949 38.3868 47.0469C38.3868 48.0039 38.0268 48.765 37.3067 49.3301C36.5867 49.8906 35.6137 50.1709 34.3878 50.1709C33.1983 50.1709 32.2504 49.9066 31.544 49.3779C30.8422 48.8447 30.4753 48.1156 30.4434 47.1904ZM41.8277 40.1357V46.3086C41.8277 46.9512 42.0077 47.4616 42.3678 47.8398C42.7324 48.2135 43.2428 48.4004 43.899 48.4004C44.5507 48.4004 45.0566 48.2135 45.4166 47.8398C45.7812 47.4616 45.9635 46.9512 45.9635 46.3086V40.1357H48.0279V46.5137C48.0279 47.6074 47.652 48.4915 46.9 49.166C46.1526 49.8359 45.1523 50.1709 43.899 50.1709C42.6412 50.1709 41.6363 49.8359 40.8844 49.166C40.137 48.4915 39.7633 47.6074 39.7633 46.5137V40.1357H41.8277ZM51.8448 50H49.7804V40.1357H51.8448V50ZM58.0133 50H55.9489V41.8379H53.0983V40.1357H60.8707V41.8379H58.0133V50Z" fill="#DB0A0A"/>
<path d="M41.9093 22.9346C41.6199 22.9346 41.3425 23.0485 41.1379 23.2513C40.9333 23.4541 40.8184 23.7292 40.8184 24.016V24.1061C40.8184 24.3929 40.9333 24.668 41.1379 24.8708C41.3425 25.0736 41.6199 25.1875 41.9093 25.1875C42.1986 25.1875 42.4761 25.0736 42.6807 24.8708C42.8852 24.668 43.0002 24.3929 43.0002 24.1061V24.016C43.0002 23.7292 42.8852 23.4541 42.6807 23.2513C42.4761 23.0485 42.1986 22.9346 41.9093 22.9346V22.9346Z" fill="#DB0A0A"/>
<path d="M39.4821 3.48904C38.267 2.28286 36.8046 1.34964 35.194 0.752581C33.5834 0.155527 31.8621 -0.0914128 30.1468 0.0284894C27.0848 0.287471 24.2347 1.68394 22.1676 3.93808C20.1004 6.19221 18.9689 9.13746 18.9999 12.1837V27.7561C18.9999 28.6165 19.3447 29.4417 19.9584 30.0502C20.5722 30.6586 21.4046 31.0004 22.2726 31.0004C23.1406 31.0004 23.973 30.6586 24.5868 30.0502C25.2005 29.4417 25.5453 28.6165 25.5453 27.7561V26.3142C25.5453 26.0274 25.6603 25.7523 25.8649 25.5495C26.0694 25.3467 26.3469 25.2328 26.6362 25.2328C26.9256 25.2328 27.2031 25.3467 27.4076 25.5495C27.6122 25.7523 27.7272 26.0274 27.7272 26.3142V27.7561C27.7272 28.6165 28.072 29.4417 28.6857 30.0502C29.2995 30.6586 30.1319 31.0004 30.9999 31.0004C31.8679 31.0004 32.7003 30.6586 33.3141 30.0502C33.9278 29.4417 34.2726 28.6165 34.2726 27.7561V26.3142C34.2726 26.0274 34.3875 25.7523 34.5921 25.5495C34.7967 25.3467 35.0742 25.2328 35.3635 25.2328C35.6528 25.2328 35.9303 25.3467 36.1349 25.5495C36.3395 25.7523 36.4544 26.0274 36.4544 26.3142V27.7561C36.4544 28.6165 36.7992 29.4417 37.413 30.0502C38.0267 30.6586 38.8592 31.0004 39.7272 31.0004C40.5951 31.0004 41.4276 30.6586 42.0413 30.0502C42.6551 29.4417 42.9999 28.6165 42.9999 27.7561C42.9999 27.4693 42.885 27.1942 42.6804 26.9914C42.4758 26.7886 42.1983 26.6747 41.909 26.6747C41.6196 26.6747 41.3422 26.7886 41.1376 26.9914C40.933 27.1942 40.8181 27.4693 40.8181 27.7561C40.8181 28.0429 40.7031 28.318 40.4985 28.5208C40.294 28.7236 40.0165 28.8375 39.7272 28.8375C39.4378 28.8375 39.1604 28.7236 38.9558 28.5208C38.7512 28.318 38.6362 28.0429 38.6362 27.7561V26.3142C38.6362 25.4538 38.2914 24.6286 37.6777 24.0202C37.0639 23.4118 36.2315 23.07 35.3635 23.07C34.4955 23.07 33.6631 23.4118 33.0494 24.0202C32.4356 24.6286 32.0908 25.4538 32.0908 26.3142V27.7561C32.0908 28.0429 31.9759 28.318 31.7713 28.5208C31.5667 28.7236 31.2892 28.8375 30.9999 28.8375C30.7106 28.8375 30.4331 28.7236 30.2285 28.5208C30.0239 28.318 29.909 28.0429 29.909 27.7561V26.3142C29.909 25.4538 29.5642 24.6286 28.9504 24.0202C28.3367 23.4118 27.5042 23.07 26.6362 23.07C25.7683 23.07 24.9358 23.4118 24.3221 24.0202C23.7083 24.6286 23.3635 25.4538 23.3635 26.3142V27.7561C23.3635 28.0429 23.2486 28.318 23.044 28.5208C22.8394 28.7236 22.5619 28.8375 22.2726 28.8375C21.9833 28.8375 21.7058 28.7236 21.5012 28.5208C21.2966 28.318 21.1817 28.0429 21.1817 27.7561V12.1837C21.1494 9.68474 22.0708 7.26601 23.7614 5.41207C25.4519 3.55813 27.7868 2.40592 30.2981 2.18628C31.6427 2.09278 32.9924 2.27437 34.2633 2.71976C35.5342 3.16516 36.6991 3.86486 37.6857 4.77538C38.6723 5.6859 39.4594 6.78781 39.9983 8.01263C40.5371 9.23746 40.8162 10.559 40.8181 11.8953V20.0059C40.8181 20.2927 40.933 20.5678 41.1376 20.7706C41.3422 20.9734 41.6196 21.0874 41.909 21.0874C42.1983 21.0874 42.4758 20.9734 42.6804 20.7706C42.885 20.5678 42.9999 20.2927 42.9999 20.0059V11.8953C43.0048 10.3329 42.6963 8.78516 42.0924 7.34203C41.4885 5.89891 40.6012 4.58919 39.4821 3.48904Z" fill="#DB0A0A"/>
<path d="M35 13.3375C35 13.694 35.1066 14.0425 35.3064 14.3389C35.5062 14.6353 35.7902 14.8663 36.1224 15.0027C36.4546 15.1391 36.8202 15.1748 37.1729 15.1053C37.5256 15.0357 37.8496 14.8641 38.1038 14.612C38.3581 14.3599 38.5313 14.0388 38.6014 13.6891C38.6716 13.3395 38.6356 12.9771 38.498 12.6478C38.3603 12.3184 38.1273 12.037 37.8283 11.8389C37.5293 11.6409 37.1778 11.5352 36.8182 11.5352C36.336 11.5352 35.8735 11.725 35.5325 12.0631C35.1916 12.4011 35 12.8595 35 13.3375ZM37.1818 13.3375C37.1818 13.4088 37.1605 13.4785 37.1205 13.5378C37.0806 13.5971 37.0238 13.6433 36.9573 13.6706C36.8909 13.6978 36.8178 13.705 36.7472 13.6911C36.6767 13.6772 36.6119 13.6428 36.5611 13.5924C36.5102 13.542 36.4756 13.4778 36.4615 13.4078C36.4475 13.3379 36.4547 13.2654 36.4822 13.1996C36.5097 13.1337 36.5564 13.0774 36.6162 13.0378C36.676 12.9982 36.7463 12.9771 36.8182 12.9771C36.9146 12.9771 37.0071 13.015 37.0753 13.0826C37.1435 13.1502 37.1818 13.2419 37.1818 13.3375Z" fill="#DB0A0A"/>
<path d="M29.5455 11.5352C29.1859 11.5352 28.8343 11.6409 28.5353 11.8389C28.2364 12.037 28.0033 12.3184 27.8657 12.6478C27.7281 12.9771 27.6921 13.3395 27.7622 13.6891C27.8324 14.0388 28.0056 14.3599 28.2598 14.612C28.5141 14.8641 28.8381 15.0357 29.1908 15.1053C29.5435 15.1748 29.909 15.1391 30.2413 15.0027C30.5735 14.8663 30.8575 14.6353 31.0572 14.3389C31.257 14.0425 31.3637 13.694 31.3637 13.3375C31.3637 12.8595 31.1721 12.4011 30.8311 12.0631C30.4902 11.725 30.0277 11.5352 29.5455 11.5352V11.5352ZM29.5455 13.698C29.4736 13.698 29.4033 13.6769 29.3435 13.6372C29.2837 13.5976 29.237 13.5413 29.2095 13.4755C29.182 13.4096 29.1748 13.3371 29.1888 13.2672C29.2029 13.1973 29.2375 13.133 29.2883 13.0826C29.3392 13.0322 29.404 12.9979 29.4745 12.984C29.5451 12.9701 29.6182 12.9772 29.6846 13.0045C29.7511 13.0318 29.8079 13.078 29.8478 13.1373C29.8878 13.1965 29.9091 13.2662 29.9091 13.3375C29.9091 13.4331 29.8708 13.5248 29.8026 13.5924C29.7344 13.66 29.6419 13.698 29.5455 13.698Z" fill="#DB0A0A"/>
</svg>
