<svg width="95" height="57" viewBox="0 0 95 57" fill="none" xmlns="http://www.w3.org/2000/svg">
<path d="M9.63867 45.8574C9.63867 47.2018 9.2513 48.2568 8.47656 49.0225C7.70638 49.7881 6.63542 50.1709 5.26367 50.1709C3.78711 50.1709 2.625 49.7152 1.77734 48.8037C0.934245 47.8923 0.512695 46.6367 0.512695 45.0371C0.512695 43.4603 0.931966 42.2207 1.77051 41.3184C2.61361 40.416 3.76204 39.9648 5.21582 39.9648C6.36426 39.9648 7.33724 40.2747 8.13477 40.8945C8.93229 41.5143 9.40397 42.3232 9.5498 43.3213H7.47852C7.32812 42.8063 7.05241 42.403 6.65137 42.1113C6.25488 41.8197 5.77865 41.6738 5.22266 41.6738C4.4069 41.6738 3.76888 41.9678 3.30859 42.5557C2.84831 43.1436 2.61816 43.9616 2.61816 45.0098C2.61816 46.0762 2.85742 46.917 3.33594 47.5322C3.81901 48.1475 4.47298 48.4551 5.29785 48.4551C5.97233 48.4551 6.52148 48.266 6.94531 47.8877C7.3737 47.5094 7.59928 47.015 7.62207 46.4043L7.62891 46.2471H5.48242V44.7432H9.63867V45.8574ZM12.0816 41.3389C12.9383 40.4229 14.0982 39.9648 15.5611 39.9648C17.0239 39.9648 18.1815 40.4229 19.0337 41.3389C19.8905 42.2549 20.3189 43.499 20.3189 45.0713C20.3189 46.639 19.8905 47.8809 19.0337 48.7969C18.1769 49.7129 17.0194 50.1709 15.5611 50.1709C14.0982 50.1709 12.9383 49.7129 12.0816 48.7969C11.2293 47.8809 10.8032 46.639 10.8032 45.0713C10.8032 43.499 11.2293 42.2549 12.0816 41.3389ZM17.4888 42.6035C17.0103 41.9928 16.3677 41.6875 15.5611 41.6875C14.7544 41.6875 14.1096 41.9928 13.6265 42.6035C13.148 43.2142 12.9087 44.0368 12.9087 45.0713C12.9087 46.1012 13.148 46.9215 13.6265 47.5322C14.105 48.1383 14.7499 48.4414 15.5611 48.4414C16.3677 48.4414 17.0103 48.1383 17.4888 47.5322C17.9673 46.9215 18.2066 46.1012 18.2066 45.0713C18.2066 44.0368 17.9673 43.2142 17.4888 42.6035ZM28.1348 48.291V50H21.7569V40.1357H23.8213V48.291H28.1348ZM29.4634 40.1357H33.23C34.7157 40.1357 35.871 40.5618 36.6959 41.4141C37.5207 42.2663 37.9332 43.4717 37.9332 45.0303C37.9332 46.5934 37.5185 47.8125 36.689 48.6875C35.8642 49.5625 34.7112 50 33.23 50H29.4634V40.1357ZM31.5279 41.8379V48.291H32.9839C33.9091 48.291 34.6132 48.0153 35.0963 47.4639C35.5839 46.9079 35.8277 46.099 35.8277 45.0371C35.8277 44.0072 35.5816 43.2165 35.0894 42.665C34.5972 42.1136 33.8954 41.8379 32.9839 41.8379H31.5279ZM46.6129 50.1709C45.1728 50.1709 44.0335 49.7174 43.1949 48.8105C42.3609 47.8991 41.9439 46.6504 41.9439 45.0645C41.9439 43.4831 42.3632 42.2389 43.2018 41.332C44.0403 40.4206 45.1773 39.9648 46.6129 39.9648C47.3967 39.9648 48.1077 40.1198 48.7457 40.4297C49.3883 40.7396 49.9033 41.1771 50.2906 41.7422C50.678 42.3073 50.8967 42.9521 50.9469 43.6768H48.9371C48.8414 43.0706 48.5794 42.5853 48.151 42.2207C47.7271 41.8561 47.2145 41.6738 46.6129 41.6738C45.8336 41.6738 45.2115 41.9792 44.7467 42.5898C44.2818 43.2005 44.0494 44.0231 44.0494 45.0576C44.0494 46.1104 44.2796 46.9421 44.7398 47.5527C45.2001 48.1589 45.8268 48.4619 46.6197 48.4619C47.2304 48.4619 47.7431 48.2933 48.1578 47.9561C48.5725 47.6188 48.8346 47.1585 48.9439 46.5752H50.9537C50.8398 47.6735 50.3909 48.5485 49.607 49.2002C48.8232 49.8473 47.8251 50.1709 46.6129 50.1709ZM54.4015 41.749V44.8936H56.1788C56.6984 44.8936 57.1017 44.7546 57.3888 44.4766C57.6805 44.1986 57.8263 43.8135 57.8263 43.3213C57.8263 42.8428 57.6759 42.4622 57.3751 42.1797C57.0743 41.8926 56.6687 41.749 56.1583 41.749H54.4015ZM54.4015 46.3906V50H52.337V40.1357H56.3771C57.5027 40.1357 58.3777 40.416 59.0021 40.9766C59.631 41.5326 59.9454 42.3005 59.9454 43.2803C59.9454 43.9229 59.7859 44.4971 59.4669 45.0029C59.1525 45.5042 58.715 45.8643 58.1544 46.083L60.2325 50H57.8946L56.0558 46.3906H54.4015ZM62.3815 41.3389C63.2383 40.4229 64.3981 39.9648 65.861 39.9648C67.3239 39.9648 68.4814 40.4229 69.3336 41.3389C70.1904 42.2549 70.6188 43.499 70.6188 45.0713C70.6188 46.639 70.1904 47.8809 69.3336 48.7969C68.4769 49.7129 67.3193 50.1709 65.861 50.1709C64.3981 50.1709 63.2383 49.7129 62.3815 48.7969C61.5293 47.8809 61.1032 46.639 61.1032 45.0713C61.1032 43.499 61.5293 42.2549 62.3815 41.3389ZM67.7887 42.6035C67.3102 41.9928 66.6676 41.6875 65.861 41.6875C65.0543 41.6875 64.4095 41.9928 63.9264 42.6035C63.4479 43.2142 63.2086 44.0368 63.2086 45.0713C63.2086 46.1012 63.4479 46.9215 63.9264 47.5322C64.4049 48.1383 65.0498 48.4414 65.861 48.4414C66.6676 48.4414 67.3102 48.1383 67.7887 47.5322C68.2672 46.9215 68.5065 46.1012 68.5065 45.0713C68.5065 44.0368 68.2672 43.2142 67.7887 42.6035ZM77.6212 43.2598L75.7482 50H73.8L71.1886 40.1357H73.3283L74.88 47.2793H74.9347L76.7804 40.1357H78.5236L80.3693 47.2793H80.424L81.9826 40.1357H84.1222L81.5041 50H79.5558L77.6828 43.2598H77.6212ZM87.3171 50H85.3415V40.1357H87.0641L91.6716 46.5615H91.7262V40.1357H93.7018V50H91.9929L87.3786 43.54H87.3171V50Z" fill="#FB9700"/>
<g clip-path="url(#clip0_81_2)">
<path d="M62.4514 4.45008C62.2848 4.3557 62.0962 4.30724 61.9049 4.30965C61.7135 4.31206 61.5262 4.36525 61.362 4.46379L54.9458 8.31525L48.3305 0.370658C48.2257 0.254652 48.0978 0.161922 47.955 0.0984557C47.8122 0.0349893 47.6577 0.00219727 47.5014 0.00219727C47.3452 0.00219727 47.1907 0.0349893 47.0479 0.0984557C46.9051 0.161922 46.7771 0.254652 46.6724 0.370658L40.0528 8.31525L33.6365 4.46379C33.4725 4.36559 33.2853 4.31267 33.0942 4.31041C32.903 4.30815 32.7147 4.35664 32.5484 4.45092C32.382 4.54521 32.2437 4.68193 32.1473 4.84715C32.051 5.01238 32.0002 5.2002 32 5.39148V26.3116C32 30.013 41.7434 31.0006 47.5 31.0006C49.6222 31.006 51.7428 30.8856 53.8507 30.6399C53.9939 30.6258 54.1329 30.5832 54.2595 30.5147C54.3861 30.4461 54.4978 30.3529 54.5879 30.2407C54.678 30.1284 54.7449 29.9992 54.7845 29.8607C54.8241 29.7222 54.8357 29.5772 54.8185 29.4342C54.8014 29.2912 54.7559 29.1531 54.6847 29.0279C54.6135 28.9027 54.5181 28.793 54.4039 28.7052C54.2898 28.6174 54.1593 28.5533 54.0201 28.5166C53.8809 28.4799 53.7358 28.4714 53.5933 28.4916C51.5708 28.7267 49.5361 28.8416 47.5 28.8357C39.4753 28.8357 34.6271 27.2148 34.1743 26.3109C34.6271 25.4077 39.4753 23.786 47.5 23.786C55.6415 23.786 60.5142 25.4553 60.8372 26.3109C60.8372 26.5979 60.9511 26.8731 61.1539 27.076C61.3567 27.2789 61.6318 27.393 61.9186 27.393C62.2054 27.393 62.4805 27.2789 62.6833 27.076C62.8861 26.8731 63 26.5979 63 26.3109V5.39076C62.9998 5.19943 62.949 5.01157 62.8526 4.84632C62.7562 4.68107 62.6178 4.54434 62.4514 4.45008ZM47.5 21.6226C43.4275 21.6226 37.3644 22.1182 34.1628 23.7146V7.30315L39.7341 10.6475C39.9553 10.7804 40.2166 10.8298 40.471 10.7868C40.7253 10.7438 40.956 10.6112 41.1212 10.413L47.5 2.75339L53.8788 10.413C54.044 10.6112 54.2747 10.7438 54.529 10.7868C54.7834 10.8298 55.0447 10.7804 55.2659 10.6475L60.8372 7.30315V23.7175C57.6356 22.1182 51.5725 21.6226 47.5 21.6226Z" fill="#FB9700"/>
<path d="M48.3997 10.5617C48.2953 10.421 48.1594 10.3067 48.0029 10.2279C47.8464 10.1492 47.6737 10.1082 47.4985 10.1082C47.3234 10.1082 47.1507 10.1492 46.9942 10.2279C46.8377 10.3067 46.7018 10.421 46.5974 10.5617L44.1938 14.1686C44.0754 14.3463 44.0122 14.5552 44.0122 14.7688C44.0122 14.9824 44.0754 15.1912 44.1938 15.369L46.5974 18.9759C46.696 19.1247 46.8299 19.2468 46.9872 19.3312C47.1444 19.4156 47.3201 19.4598 47.4985 19.4598C47.677 19.4598 47.8527 19.4156 48.0099 19.3312C48.1672 19.2468 48.3011 19.1247 48.3997 18.9759L50.8033 15.369C50.9217 15.1912 50.9849 14.9824 50.9849 14.7688C50.9849 14.5552 50.9217 14.3463 50.8033 14.1686L48.3997 10.5617ZM47.5 16.4251L46.3962 14.7659L47.5 13.1067L48.6037 14.7659L47.5 16.4251Z" fill="#FB9700"/>
<path d="M38.128 14.4082C37.8412 14.4082 37.5662 14.5222 37.3634 14.7251C37.1606 14.9281 37.0466 15.2033 37.0466 15.4903V16.933C37.0466 17.22 37.1606 17.4953 37.3634 17.6982C37.5662 17.9011 37.8412 18.0151 38.128 18.0151C38.4148 18.0151 38.6899 17.9011 38.8927 17.6982C39.0955 17.4953 39.2094 17.22 39.2094 16.933V15.4903C39.2094 15.2033 39.0955 14.9281 38.8927 14.7251C38.6899 14.5222 38.4148 14.4082 38.128 14.4082Z" fill="#FB9700"/>
<path d="M56.8722 14.4082C56.5854 14.4082 56.3103 14.5222 56.1075 14.7251C55.9047 14.9281 55.7908 15.2033 55.7908 15.4903V16.933C55.7908 17.22 55.9047 17.4953 56.1075 17.6982C56.3103 17.9011 56.5854 18.0151 56.8722 18.0151C57.159 18.0151 57.434 17.9011 57.6368 17.6982C57.8396 17.4953 57.9536 17.22 57.9536 16.933V15.4903C57.9536 15.2033 57.8396 14.9281 57.6368 14.7251C57.434 14.5222 57.159 14.4082 56.8722 14.4082Z" fill="#FB9700"/>
<path d="M57.0306 28.0712C56.8281 28.2741 56.7144 28.5491 56.7144 28.8359C56.7144 29.1226 56.8281 29.3976 57.0306 29.6005C57.2339 29.8024 57.5083 29.9164 57.7948 29.9179C58.0815 29.9177 58.3564 29.8035 58.559 29.6005C58.7615 29.3976 58.8752 29.1226 58.8752 28.8359C58.8752 28.5491 58.7615 28.2741 58.559 28.0712C58.352 27.8766 58.0788 27.7683 57.7948 27.7683C57.5108 27.7683 57.2376 27.8766 57.0306 28.0712Z" fill="#FB9700"/>
</g>
<defs>
<clipPath id="clip0_81_2">
<rect width="31" height="31" fill="white" transform="translate(32)"/>
</clipPath>
</defs>
</svg>
