<svg width="28" height="28" viewBox="0 0 28 28" fill="none" xmlns="http://www.w3.org/2000/svg">
<g clip-path="url(#clip0_136:450)">
<g filter="url(#filter0_d_136:450)">
<path d="M5.34766 11.9159V5.5H11.7636L8.64641 8.64648L5.34766 11.9159Z" fill="#7EFACD" stroke="#98FFDA"/>
<mask id="path-2-inside-1_136:450" fill="white">
<path d="M22.3137 5.83898V12.2839H15.8688V5.83898H22.3137ZM23.1527 5H15.0298V13.1229H23.1527V5Z"/>
</mask>
<path d="M22.3137 5.83898H23.3137V4.83898H22.3137V5.83898ZM22.3137 12.2839V13.2839H23.3137V12.2839H22.3137ZM15.8688 12.2839H14.8688V13.2839H15.8688V12.2839ZM15.8688 5.83898V4.83898H14.8688V5.83898H15.8688ZM23.1527 5H24.1527V4H23.1527V5ZM15.0298 5V4H14.0298V5H15.0298ZM15.0298 13.1229H14.0298V14.1229H15.0298V13.1229ZM23.1527 13.1229V14.1229H24.1527V13.1229H23.1527ZM21.3137 5.83898V12.2839H23.3137V5.83898H21.3137ZM22.3137 11.2839H15.8688V13.2839H22.3137V11.2839ZM16.8688 12.2839V5.83898H14.8688V12.2839H16.8688ZM15.8688 6.83898H22.3137V4.83898H15.8688V6.83898ZM23.1527 4H15.0298V6H23.1527V4ZM14.0298 5V13.1229H16.0298V5H14.0298ZM15.0298 14.1229H23.1527V12.1229H15.0298V14.1229ZM24.1527 13.1229V5H22.1527V13.1229H24.1527Z" fill="#98FFDA" mask="url(#path-2-inside-1_136:450)"/>
<path d="M5.34766 21.7933V15.3771H11.728L8.64527 18.6474L5.34766 21.7933Z" fill="#7EFACD" stroke="#98FFDA"/>
<mask id="path-5-inside-2_136:450" fill="white">
<path d="M22.3137 15.6779V22.161H15.8688V15.6779H22.3137ZM23.1527 14.8771H15.0298V23H23.1527V14.8771Z"/>
</mask>
<path d="M22.3137 15.6779H23.3137V14.6779H22.3137V15.6779ZM22.3137 22.161V23.161H23.3137V22.161H22.3137ZM15.8688 22.161H14.8688V23.161H15.8688V22.161ZM15.8688 15.6779V14.6779H14.8688V15.6779H15.8688ZM23.1527 14.8771H24.1527V13.8771H23.1527V14.8771ZM15.0298 14.8771V13.8771H14.0298V14.8771H15.0298ZM15.0298 23H14.0298V24H15.0298V23ZM23.1527 23V24H24.1527V23H23.1527ZM21.3137 15.6779V22.161H23.3137V15.6779H21.3137ZM22.3137 21.161H15.8688V23.161H22.3137V21.161ZM16.8688 22.161V15.6779H14.8688V22.161H16.8688ZM15.8688 16.6779H22.3137V14.6779H15.8688V16.6779ZM23.1527 13.8771H15.0298V15.8771H23.1527V13.8771ZM14.0298 14.8771V23H16.0298V14.8771H14.0298ZM15.0298 24H23.1527V22H15.0298V24ZM24.1527 23V14.8771H22.1527V23H24.1527Z" fill="#98FFDA" mask="url(#path-5-inside-2_136:450)"/>
</g>
</g>
<defs>
<filter id="filter0_d_136:450" x="0.847656" y="3" width="26.3052" height="26" filterUnits="userSpaceOnUse" color-interpolation-filters="sRGB">
<feFlood flood-opacity="0" result="BackgroundImageFix"/>
<feColorMatrix in="SourceAlpha" type="matrix" values="0 0 0 0 0 0 0 0 0 0 0 0 0 0 0 0 0 0 127 0" result="hardAlpha"/>
<feOffset dy="2"/>
<feGaussianBlur stdDeviation="2"/>
<feComposite in2="hardAlpha" operator="out"/>
<feColorMatrix type="matrix" values="0 0 0 0 0 0 0 0 0 1 0 0 0 0 0.82 0 0 0 1 0"/>
<feBlend mode="normal" in2="BackgroundImageFix" result="effect1_dropShadow_136:450"/>
<feBlend mode="normal" in="SourceGraphic" in2="effect1_dropShadow_136:450" result="shape"/>
</filter>
<clipPath id="clip0_136:450">
<rect width="28" height="28" fill="white"/>
</clipPath>
</defs>
</svg>
