<svg width="646" height="292" viewBox="0 0 646 292" fill="none" xmlns="http://www.w3.org/2000/svg">
<path d="M632.744 38.275L632.744 20.3921L453.029 20.3921L432.563 35.1552L175.008 35.1552L142.019 20.3921L12.293 20.3921L12.293 269.55L109.891 269.55L135.189 248.16L518.272 248.16L535.626 269.55L632.744 269.55L632.744 224.506L619.563 213.862L619.563 43.2912L632.744 38.275Z" fill="#0A101B"/>
<path d="M634.314 270.141L536.058 270.141L518.704 248.771L136.279 248.771L110.981 270.141L12.3203 270.141L12.3203 19.8005L142.958 19.8005L175.971 34.5636L433.021 34.5636L453.512 19.8005L634.314 19.8005L634.314 38.6622L621.134 43.658L621.134 213.617L634.314 224.261L634.314 270.141ZM536.868 268.938L632.821 268.938L632.821 224.751L619.641 214.127L619.641 42.8424L632.821 37.8466L632.821 20.9424L454.144 20.9424L433.678 35.7055L175.642 35.7055L142.755 20.9424L13.9904 20.9424L13.9904 268.938L110.526 268.938L135.824 247.568L519.64 247.568L536.868 268.938Z" fill="#7EFACD"/>
<path d="M125.983 11.3789L15.3059 11.3789C14.5142 11.3789 13.7547 11.6324 13.1949 12.0836C12.635 12.5349 12.3203 13.1469 12.3203 13.785L12.3203 20.616L143.211 20.616L143.211 19.6372L125.983 11.3789Z" fill="#7EFACD"/>
<path d="M81.9636 292L5.05896 292C4.50648 291.995 3.97858 291.814 3.59026 291.497C3.20194 291.18 2.98433 290.753 2.98437 290.307L2.98438 285.475L93.9294 285.475L93.9294 286.168L81.9636 292Z" fill="#7EFACD"/>
<path d="M631.329 14.9886L508.23 14.9886L503.424 18.6182L455.637 18.6182C455.469 18.5981 455.298 18.5981 455.131 18.6182L452.753 20.3719C452.739 20.5416 452.739 20.7119 452.753 20.8817L634.314 20.8817L634.314 17.4968C634.331 17.1723 634.267 16.8484 634.125 16.5446C633.982 16.2408 633.765 15.9634 633.486 15.729C633.207 15.4947 632.872 15.3083 632.501 15.1811C632.131 15.0538 631.732 14.9884 631.329 14.9886Z" fill="#7EFACD"/>
<path d="M591.028 0.000484903L501.728 0.000485522L498.236 2.69206L463.579 2.69206L463.225 2.69206L461.504 3.99711C461.482 4.12562 461.482 4.25604 461.504 4.38455L593.255 4.38455L593.255 1.79484C593.261 1.55767 593.208 1.32185 593.099 1.10162C592.989 0.881387 592.826 0.681373 592.618 0.513621C592.41 0.345869 592.162 0.21389 591.888 0.125689C591.615 0.0374873 591.322 -0.00509794 591.028 0.000484903Z" fill="#7EFACD"/>
<path d="M112.98 268.53L12.1943 268.53L12.1943 277.257C12.1943 277.896 12.5084 278.508 13.0683 278.959C13.6281 279.41 14.3876 279.664 15.1793 279.664L99.218 279.664L112.98 268.53Z" fill="#7EFACD"/>
<path d="M634.11 223.996L633.301 223.996L633.301 269.122L535.5 269.122L535.5 269.652L543.494 279.358L633.301 279.358L634.034 279.358L646 279.358L646 234.151L634.11 223.996Z" fill="#7EFACD"/>
<path opacity="0.7" d="M634.894 108.461L627.938 108.461L627.937 123.713L634.894 123.713L634.894 108.461Z" fill="#7EFACD"/>
<path d="M634.894 67.536L627.938 67.536L627.937 82.7885L634.894 82.7885L634.894 67.536Z" fill="#7EFACD"/>
<path opacity="0.7" d="M634.894 88.0081L627.938 88.0081L627.937 103.261L634.894 103.261L634.894 88.0081Z" fill="#7EFACD"/>
<path opacity="0.4" d="M634.894 128.933L627.938 128.933L627.937 144.186L634.894 144.186L634.894 128.933Z" fill="#7EFACD"/>
<path opacity="0.4" d="M634.894 149.385L627.938 149.385L627.937 164.638L634.894 164.638L634.894 149.385Z" fill="#7EFACD"/>
<path opacity="0.2" d="M627.962 190.31L627.962 209.559L634.919 218.389L634.919 190.31L627.962 190.31Z" fill="#7EFACD"/>
<path d="M634.919 62.3366L634.919 46.6355L627.962 49.0824L627.962 62.3366L634.919 62.3366Z" fill="#7EFACD"/>
<path opacity="0.2" d="M634.894 169.838L627.938 169.838L627.937 185.09L634.894 185.09L634.894 169.838Z" fill="#7EFACD"/>
<path opacity="0.5" d="M321.634 254.093L299.979 254.093L299.979 263.127L321.634 263.127L321.634 254.093Z" fill="#7EFACD"/>
<path opacity="0.6" d="M290.264 254.093L268.609 254.093L268.609 263.127L290.264 263.127L290.264 254.093Z" fill="#7EFACD"/>
<path opacity="0.4" d="M352.977 254.093L331.322 254.093L331.322 263.127L352.977 263.127L352.977 254.093Z" fill="#7EFACD"/>
<path opacity="0.4" d="M362.666 263.106L521.915 263.106L511.239 254.093L362.666 254.093L362.666 263.106Z" fill="#7EFACD"/>
<path opacity="0.7" d="M258.921 254.093L237.267 254.093L237.267 263.127L258.921 263.127L258.921 254.093Z" fill="#7EFACD"/>
<path d="M164.84 254.093L144.677 254.093L134.204 263.106L164.84 263.106L164.84 254.093Z" fill="#7EFACD"/>
<path opacity="0.9" d="M196.209 254.093L174.554 254.093L174.554 263.127L196.209 263.127L196.209 254.093Z" fill="#7EFACD"/>
<path opacity="0.8" d="M227.551 254.093L205.896 254.093L205.896 263.127L227.551 263.127L227.551 254.093Z" fill="#7EFACD"/>
<path d="M423.913 30.2404L180.524 30.2404C180.399 30.2613 180.27 30.2613 180.144 30.2404L157.731 18.8011C157.57 18.7101 157.457 18.5736 157.415 18.4188C157.373 18.2639 157.404 18.102 157.503 17.965C157.555 17.8966 157.623 17.8373 157.704 17.7908C157.785 17.7442 157.876 17.7114 157.973 17.6943C158.07 17.6771 158.17 17.676 158.268 17.691C158.365 17.706 158.458 17.7368 158.54 17.7815L180.751 29.1189L423.609 29.1189L461.555 3.97673C461.695 3.89443 461.863 3.85143 462.036 3.85439L592.673 3.85439C592.87 3.8543 593.06 3.91598 593.202 4.02633C593.343 4.13667 593.426 4.28706 593.432 4.44575C593.426 4.60637 593.344 4.759 593.203 4.87263C593.062 4.98627 592.873 5.05235 592.673 5.05745L462.289 5.05745L424.343 30.1792C424.211 30.2356 424.061 30.257 423.913 30.2404Z" fill="#7EFACD"/>
<path d="M93.1977 286.658L3.61825 286.658C3.5198 286.66 3.42177 286.647 3.32982 286.619C3.23787 286.59 3.15422 286.547 3.08339 286.492C3.01257 286.437 2.95631 286.371 2.91787 286.297C2.87943 286.224 2.85914 286.146 2.8592 286.066L2.8592 12.1945C2.83895 12.1062 2.8434 12.0155 2.87155 11.9286C2.8997 11.8418 2.95103 11.761 3.02225 11.692C3.09347 11.623 3.18268 11.5675 3.2835 11.5294C3.38432 11.4913 3.49455 11.4716 3.6059 11.4716C3.71725 11.4716 3.82686 11.4913 3.92768 11.5294C4.0285 11.5675 4.11771 11.623 4.18893 11.692C4.26015 11.761 4.3121 11.8418 4.34025 11.9286C4.3684 12.0155 4.37223 12.1062 4.35198 12.1945L4.35198 285.434L93.1977 285.434C93.3945 285.44 93.5808 285.506 93.7177 285.62C93.8546 285.735 93.9309 285.887 93.9308 286.046C93.9342 286.125 93.9179 286.204 93.8826 286.278C93.8472 286.353 93.7936 286.42 93.7251 286.477C93.6566 286.534 93.5749 286.58 93.4842 286.611C93.3935 286.642 93.2962 286.658 93.1977 286.658Z" fill="#7EFACD"/>
<path d="M540.788 264.493L521.232 241.553L365.778 241.553L365.778 240.941L521.637 240.941L541.42 264.146L540.788 264.493Z" fill="#7EFACD"/>
<path d="M612.406 125.324L611.647 125.324L611.647 39.7019L623.006 33.605L623.436 34.0944L612.406 40.0282L612.406 125.324Z" fill="#7EFACD"/>
<path d="M3.74405 16.8231C5.81184 16.8231 7.4881 15.4719 7.4881 13.8052C7.4881 12.1385 5.81184 10.7874 3.74405 10.7874C1.67627 10.7874 -7.01665e-10 12.1385 -1.56721e-09 13.8052C-2.43276e-09 15.4719 1.67627 16.8231 3.74405 16.8231Z" fill="#7EFACD"/>
<path d="M634.314 270.141L536.058 270.141L518.704 248.771L136.279 248.771L110.981 270.141L12.3203 270.141L12.3203 19.8005L142.958 19.8005L175.971 34.5636L433.021 34.5636L453.512 19.8005L634.314 19.8005L634.314 38.6622L621.134 43.658L621.134 213.617L634.314 224.261L634.314 270.141ZM536.868 268.938L632.821 268.938L632.821 224.751L619.641 214.127L619.641 42.8424L632.821 37.8466L632.821 20.9424L454.144 20.9424L433.678 35.7055L175.642 35.7055L142.755 20.9424L13.9904 20.9424L13.9904 268.938L110.526 268.938L135.824 247.568L519.64 247.568L536.868 268.938Z" fill="#7EFACD"/>
<path d="M125.983 11.3789L15.3059 11.3789C14.5142 11.3789 13.7547 11.6324 13.1949 12.0836C12.635 12.5349 12.3203 13.1469 12.3203 13.785L12.3203 20.616L143.211 20.616L143.211 19.6372L125.983 11.3789Z" fill="#7EFACD"/>
<path d="M81.9636 292L5.05896 292C4.50648 291.995 3.97858 291.814 3.59026 291.497C3.20194 291.18 2.98433 290.753 2.98437 290.307L2.98438 285.475L93.9294 285.475L93.9294 286.168L81.9636 292Z" fill="#7EFACD"/>
<path d="M631.329 14.9886L508.23 14.9886L503.424 18.6182L455.637 18.6182C455.469 18.5981 455.298 18.5981 455.131 18.6182L452.753 20.3719C452.739 20.5416 452.739 20.7119 452.753 20.8817L634.314 20.8817L634.314 17.4968C634.331 17.1723 634.267 16.8484 634.125 16.5446C633.982 16.2408 633.765 15.9634 633.486 15.729C633.207 15.4947 632.872 15.3083 632.501 15.1811C632.131 15.0538 631.732 14.9884 631.329 14.9886Z" fill="#7EFACD"/>
<path d="M591.028 0.000484903L501.728 0.000485522L498.236 2.69206L463.579 2.69206L463.225 2.69206L461.504 3.99711C461.482 4.12562 461.482 4.25604 461.504 4.38455L593.255 4.38455L593.255 1.79484C593.261 1.55767 593.208 1.32185 593.099 1.10162C592.989 0.881387 592.826 0.681373 592.618 0.513621C592.41 0.345869 592.162 0.21389 591.888 0.125689C591.615 0.0374873 591.322 -0.00509794 591.028 0.000484903Z" fill="#7EFACD"/>
<path d="M112.98 268.53L12.1943 268.53L12.1943 277.257C12.1943 277.896 12.5084 278.508 13.0683 278.959C13.6281 279.41 14.3876 279.664 15.1793 279.664L99.218 279.664L112.98 268.53Z" fill="#7EFACD"/>
<path d="M634.11 223.996L633.301 223.996L633.301 269.122L535.5 269.122L535.5 269.652L543.494 279.358L633.301 279.358L634.034 279.358L646 279.358L646 234.151L634.11 223.996Z" fill="#7EFACD"/>
<path opacity="0.7" d="M634.894 108.461L627.938 108.461L627.937 123.713L634.894 123.713L634.894 108.461Z" fill="#7EFACD"/>
<path d="M634.894 67.536L627.938 67.536L627.937 82.7885L634.894 82.7885L634.894 67.536Z" fill="#7EFACD"/>
<path opacity="0.7" d="M634.894 88.0081L627.938 88.0081L627.937 103.261L634.894 103.261L634.894 88.0081Z" fill="#7EFACD"/>
<path opacity="0.4" d="M634.894 128.933L627.938 128.933L627.937 144.186L634.894 144.186L634.894 128.933Z" fill="#7EFACD"/>
<path opacity="0.4" d="M634.894 149.385L627.938 149.385L627.937 164.638L634.894 164.638L634.894 149.385Z" fill="#7EFACD"/>
<path opacity="0.2" d="M627.962 190.31L627.962 209.559L634.919 218.389L634.919 190.31L627.962 190.31Z" fill="#7EFACD"/>
<path d="M634.919 62.3366L634.919 46.6355L627.962 49.0824L627.962 62.3366L634.919 62.3366Z" fill="#7EFACD"/>
<path opacity="0.2" d="M634.894 169.838L627.938 169.838L627.937 185.09L634.894 185.09L634.894 169.838Z" fill="#7EFACD"/>
<path opacity="0.5" d="M321.634 254.093L299.979 254.093L299.979 263.127L321.634 263.127L321.634 254.093Z" fill="#7EFACD"/>
<path opacity="0.6" d="M290.264 254.093L268.609 254.093L268.609 263.127L290.264 263.127L290.264 254.093Z" fill="#7EFACD"/>
<path opacity="0.4" d="M352.977 254.093L331.322 254.093L331.322 263.127L352.977 263.127L352.977 254.093Z" fill="#7EFACD"/>
<path opacity="0.7" d="M258.921 254.093L237.267 254.093L237.267 263.127L258.921 263.127L258.921 254.093Z" fill="#7EFACD"/>
<path d="M164.84 254.093L144.677 254.093L134.204 263.106L164.84 263.106L164.84 254.093Z" fill="#7EFACD"/>
<path opacity="0.9" d="M196.209 254.093L174.554 254.093L174.554 263.127L196.209 263.127L196.209 254.093Z" fill="#7EFACD"/>
<path opacity="0.8" d="M227.551 254.093L205.896 254.093L205.896 263.127L227.551 263.127L227.551 254.093Z" fill="#7EFACD"/>
<path d="M3.74405 16.8231C5.81184 16.8231 7.4881 15.4719 7.4881 13.8052C7.4881 12.1385 5.81184 10.7874 3.74405 10.7874C1.67627 10.7874 -7.01665e-10 12.1385 -1.56721e-09 13.8052C-2.43276e-09 15.4719 1.67627 16.8231 3.74405 16.8231Z" fill="#7EFACD"/>
<path d="M419.149 241.132C419.148 241.191 418.953 241.07 419.011 241.114C419.298 241.33 419.379 241.352 419.462 241.352C419.546 241.352 419.626 241.33 419.688 241.292L428.705 234.755C428.738 234.736 428.765 234.711 428.783 234.683C428.8 234.656 428.809 234.625 428.807 234.595L428.807 193.441L490.982 193.441C491.066 193.441 491.148 193.417 491.208 193.376C491.268 193.335 491.302 193.279 491.302 193.22C491.302 193.162 491.268 193.106 491.208 193.065C491.148 193.023 491.066 193 490.982 193L428.487 193C428.402 193 428.32 193.023 428.26 193.065C428.2 193.106 428.166 193.162 428.166 193.22L428.166 234.505L419.237 240.981C419.181 241.022 419.15 241.076 419.149 241.132Z" fill="#7EFACD"/>
<path d="M425.5 237L428.5 234.5L428.93 193L426.703 194.902L426.703 205.136L425 206.888L425 229.258L427.125 233.063L425.5 237Z" fill="#7EFACD"/>
</svg>

