<svg width="55" height="54" viewBox="0 0 55 54" fill="none" xmlns="http://www.w3.org/2000/svg">
<path d="M0.211914 44.0947H2.21484C2.22396 44.4958 2.34701 44.8171 2.58398 45.0586C2.82552 45.3001 3.13997 45.4209 3.52734 45.4209C3.96029 45.4209 4.28841 45.291 4.51172 45.0312C4.73958 44.7715 4.85352 44.3932 4.85352 43.8965V37.1357H6.91797V43.9102C6.91797 44.9538 6.62174 45.765 6.0293 46.3438C5.43685 46.918 4.6097 47.2051 3.54785 47.2051C2.54069 47.2051 1.73177 46.9225 1.12109 46.3574C0.514974 45.7923 0.211914 45.0381 0.211914 44.0947ZM15.2808 45.291V47H8.74563V37.1357H15.2808V38.8379H10.8101V41.2168H15.0279V42.8027H10.8101V45.291H15.2808ZM22.7823 40.2598L20.9092 47H18.961L16.3496 37.1357H18.4893L20.0411 44.2793H20.0957L21.9414 37.1357H23.6846L25.5303 44.2793H25.585L27.1436 37.1357H29.2832L26.6651 47H24.7168L22.8438 40.2598H22.7823ZM37.0377 45.291V47H30.5025V37.1357H37.0377V38.8379H32.567V41.2168H36.7847V42.8027H32.567V45.291H37.0377ZM45.0108 45.291V47H38.6329V37.1357H40.6973V45.291H45.0108ZM45.9703 44.1904H47.9596C48.0051 44.5915 48.2171 44.9173 48.5953 45.168C48.9781 45.4141 49.4452 45.5371 49.9967 45.5371C50.5436 45.5371 50.9879 45.4209 51.3297 45.1885C51.676 44.9515 51.8492 44.6507 51.8492 44.2861C51.8492 43.9671 51.7216 43.7096 51.4664 43.5137C51.2112 43.3177 50.7851 43.1536 50.1881 43.0215L48.9029 42.7412C47.0937 42.3538 46.1891 41.4355 46.1891 39.9863C46.1891 39.084 46.54 38.3548 47.2418 37.7988C47.9482 37.2428 48.8551 36.9648 49.9625 36.9648C51.1018 36.9648 52.011 37.236 52.69 37.7783C53.3691 38.3161 53.7177 39.0339 53.7359 39.9316H51.8014C51.7695 39.5169 51.5849 39.1911 51.2477 38.9541C50.915 38.7126 50.4889 38.5918 49.9693 38.5918C49.4589 38.5918 49.0465 38.7035 48.732 38.9268C48.4221 39.1501 48.2672 39.444 48.2672 39.8086C48.2672 40.1094 48.3925 40.3532 48.6432 40.54C48.8984 40.7269 49.3108 40.8864 49.8805 41.0186L51.0768 41.2715C52.0657 41.4811 52.7857 41.8092 53.2369 42.2559C53.6881 42.6979 53.9137 43.2949 53.9137 44.0469C53.9137 45.0039 53.5536 45.765 52.8336 46.3301C52.1135 46.8906 51.1406 47.1709 49.9146 47.1709C48.7252 47.1709 47.7773 46.9066 47.0709 46.3779C46.3691 45.8447 46.0022 45.1156 45.9703 44.1904Z" fill="#7EFACD"/>
<g clip-path="url(#clip0_81_2)">
<path d="M42.7837 8.85714C42.8054 8.82857 42.8248 8.8 42.8436 8.77C42.8614 8.74061 42.8778 8.71033 42.8926 8.67929C42.9077 8.64786 42.9214 8.61643 42.9337 8.58357C42.9459 8.55083 42.9562 8.51744 42.9647 8.48357C42.9734 8.45111 42.9804 8.41821 42.9856 8.385C42.9916 8.34739 42.9954 8.30947 42.9971 8.27143C42.9971 8.25286 43.0029 8.235 43.0029 8.21643C43.0029 8.19786 42.9993 8.18929 42.9986 8.17572C42.9969 8.1372 42.993 8.09881 42.987 8.06071C42.982 8.02786 42.9777 7.99571 42.9697 7.96429C42.9618 7.93286 42.9495 7.89286 42.938 7.86286C42.9265 7.83286 42.9142 7.79643 42.8991 7.765C42.8849 7.7353 42.869 7.70644 42.8515 7.67857C42.8324 7.64509 42.8114 7.61267 42.7888 7.58143C42.7801 7.57072 42.7751 7.55786 42.7657 7.54714L36.9983 0.404286C36.8969 0.278067 36.7681 0.176155 36.6214 0.106153C36.4747 0.0361504 36.314 -0.000136056 36.1512 3.8334e-07H18.8488C18.6867 3.65078e-05 18.5266 0.0361976 18.3805 0.105808C18.2344 0.175417 18.1059 0.276694 18.0046 0.402143L12.2372 7.545C12.2314 7.55143 12.23 7.56 12.2249 7.56643C12.157 7.65458 12.1032 7.75265 12.0656 7.85714C12.0591 7.875 12.0548 7.89214 12.049 7.91072C12.0178 8.009 12.0013 8.11127 12 8.21429C12 8.22143 12 8.22857 12 8.23571C12 8.24286 12.0036 8.26214 12.0043 8.275C12.0099 8.38392 12.0323 8.49135 12.0707 8.59357C12.0707 8.60143 12.075 8.60929 12.0786 8.61714C12.1239 8.72486 12.1868 8.8245 12.2646 8.91214C12.2711 8.91929 12.2732 8.92786 12.279 8.935L26.6976 24.6493C26.7504 24.7062 26.8091 24.7575 26.8728 24.8021C26.8807 24.8079 26.8901 24.8107 26.898 24.8164C26.9715 24.864 27.0504 24.9029 27.133 24.9321C27.1576 24.9407 27.1806 24.9479 27.2051 24.955C27.3956 25.015 27.6001 25.015 27.7905 24.955C27.815 24.9479 27.8381 24.9407 27.8626 24.9321C27.9453 24.9029 28.0242 24.864 28.0977 24.8164C28.1056 24.8107 28.115 24.8079 28.1229 24.8021C28.1866 24.7575 28.2453 24.7062 28.2981 24.6493L35.0784 17.26C35.2713 17.0497 35.3721 16.7721 35.3584 16.4883C35.3447 16.2044 35.2178 15.9376 35.0056 15.7464C34.7934 15.5553 34.5132 15.4555 34.2267 15.469C33.9402 15.4826 33.6709 15.6083 33.478 15.8186L30.3902 19.1836L34.0251 9.28572H41.9186C41.9323 9.28572 41.9446 9.28214 41.9583 9.28143C41.9986 9.27978 42.0388 9.27596 42.0787 9.27C42.1104 9.265 42.1407 9.26072 42.1709 9.25357C42.2076 9.24444 42.2437 9.23324 42.2791 9.22C42.3108 9.20857 42.3425 9.19786 42.3728 9.18357C42.4031 9.16929 42.4341 9.15214 42.4636 9.135C42.4964 9.11619 42.5282 9.09569 42.5588 9.07357C42.5703 9.065 42.5833 9.06 42.5941 9.05071C42.6049 9.04143 42.6201 9.02429 42.6338 9.01214C42.6626 8.98718 42.69 8.96072 42.716 8.93286C42.739 8.90714 42.7607 8.88143 42.7837 8.85714ZM39.6686 7.14286H33.7872L29.75 2.14286H35.6314L39.6686 7.14286ZM20.9749 9.28572L24.6076 19.1836L15.5261 9.28572H20.9749ZM31.0174 7.14286H23.9826L27.5 2.78571L31.0174 7.14286ZM19.3686 2.14286H25.25L21.2128 7.14286H15.3314L19.3686 2.14286ZM27.5 20.7936L23.2768 9.28572H31.7232L27.5 20.7936Z" fill="#7EFACD"/>
<path d="M36.7784 12.2286C36.5766 12.4301 36.4627 12.7019 36.4612 12.9858C36.4614 13.2698 36.5755 13.5422 36.7784 13.7429C36.8783 13.843 36.9973 13.9224 37.1285 13.9764C37.2597 14.0303 37.4005 14.0578 37.5426 14.0572C37.829 14.0557 38.1035 13.9428 38.3068 13.7429C38.5096 13.5422 38.6237 13.2698 38.624 12.9858C38.6225 12.7019 38.5086 12.4301 38.3068 12.2286C38.0998 12.036 37.8265 11.9287 37.5426 11.9287C37.2586 11.9287 36.9853 12.036 36.7784 12.2286Z" fill="#7EFACD"/>
</g>
<defs>
<clipPath id="clip0_81_2">
<rect width="31" height="25" fill="white" transform="translate(12)"/>
</clipPath>
</defs>
</svg>
