<svg width="92" height="32" viewBox="0 0 92 32" fill="none" xmlns="http://www.w3.org/2000/svg">
<path d="M17.2432 21H15.1787V12.8379H12.3281V11.1357H20.1006V12.8379H17.2432V21ZM21.6875 23.7139C21.25 23.7139 20.9993 23.707 20.9355 23.6934V22.1553C20.9766 22.1644 21.1429 22.1689 21.4346 22.1689C21.8037 22.1689 22.084 22.1051 22.2754 21.9775C22.4668 21.8545 22.5967 21.6471 22.665 21.3555C22.665 21.3509 22.6764 21.2939 22.6992 21.1846C22.722 21.0752 22.7311 21.016 22.7266 21.0068L20.1768 13.6719H22.3711L23.9297 19.4004H23.9639L25.5225 13.6719H27.6279L25.1055 21.1641C24.791 22.1029 24.3763 22.7614 23.8613 23.1396C23.3509 23.5225 22.6263 23.7139 21.6875 23.7139ZM33.1318 13.5557C34.0615 13.5557 34.793 13.8906 35.3262 14.5605C35.8639 15.2305 36.1328 16.1556 36.1328 17.3359C36.1328 18.5117 35.8685 19.4368 35.3398 20.1113C34.8112 20.7812 34.0866 21.1162 33.166 21.1162C32.6419 21.1162 32.1794 20.9977 31.7783 20.7607C31.3818 20.5192 31.0856 20.1888 30.8896 19.7695H30.8486V23.3926H28.8525V13.6719H30.8213V14.9502H30.8623C31.0628 14.5127 31.359 14.1709 31.751 13.9248C32.1475 13.6787 32.6077 13.5557 33.1318 13.5557ZM32.4619 19.5098C32.9587 19.5098 33.3529 19.3138 33.6445 18.9219C33.9408 18.5299 34.0889 18.0013 34.0889 17.3359C34.0889 16.6706 33.9408 16.1419 33.6445 15.75C33.3529 15.3535 32.9587 15.1553 32.4619 15.1553C31.9743 15.1553 31.5824 15.3558 31.2861 15.7568C30.9899 16.1533 30.8418 16.6797 30.8418 17.3359C30.8418 17.9967 30.9876 18.5254 31.2793 18.9219C31.5755 19.3138 31.9697 19.5098 32.4619 19.5098ZM40.9531 14.9912C40.5202 14.9912 40.1579 15.1393 39.8662 15.4355C39.5791 15.7318 39.4173 16.11 39.3809 16.5703H42.4912C42.4684 16.1009 42.3158 15.7204 42.0332 15.4287C41.7552 15.137 41.3952 14.9912 40.9531 14.9912ZM42.5186 18.7578H44.3506C44.2412 19.4779 43.8812 20.0589 43.2705 20.501C42.6644 20.9385 41.9102 21.1572 41.0078 21.1572C39.8822 21.1572 38.998 20.82 38.3555 20.1455C37.7174 19.471 37.3984 18.5459 37.3984 17.3701C37.3984 16.1989 37.7174 15.2646 38.3555 14.5674C38.9935 13.8656 39.8525 13.5146 40.9326 13.5146C41.9945 13.5146 42.8398 13.8473 43.4688 14.5127C44.0977 15.1781 44.4121 16.069 44.4121 17.1855V17.7939H39.3604V17.917C39.3604 18.4411 39.513 18.8672 39.8184 19.1953C40.1283 19.5189 40.5361 19.6807 41.042 19.6807C41.4066 19.6807 41.721 19.5986 41.9854 19.4346C42.2497 19.266 42.4274 19.0404 42.5186 18.7578Z" fill="#E4E4E4"/>
<path d="M63 14L68 19L73 14H63Z" fill="#6979F8"/>
<rect x="0.5" y="0.5" width="91" height="31" rx="7.5" stroke="#6979F8"/>
</svg>
