<svg width="127" height="32" viewBox="0 0 127 32" fill="none" xmlns="http://www.w3.org/2000/svg">
<path d="M17.2432 21H15.1787V12.8379H12.3281V11.1357H20.1006V12.8379H17.2432V21ZM21.6191 21V11.1357H23.5811V14.9775H23.6221C23.818 14.5127 24.112 14.1572 24.5039 13.9111C24.9004 13.6605 25.3743 13.5352 25.9258 13.5352C26.7324 13.5352 27.359 13.7812 27.8057 14.2734C28.2568 14.7611 28.4824 15.431 28.4824 16.2832V21H26.4863V16.707C26.4863 16.2285 26.3678 15.8571 26.1309 15.5928C25.8984 15.3239 25.5589 15.1895 25.1123 15.1895C24.6475 15.1895 24.2806 15.3398 24.0117 15.6406C23.7474 15.9368 23.6152 16.3288 23.6152 16.8164V21H21.6191ZM30.2949 21V13.6719H32.291V21H30.2949ZM32.0518 12.5645C31.8467 12.765 31.5938 12.8652 31.293 12.8652C30.9922 12.8652 30.7393 12.765 30.5342 12.5645C30.3291 12.3639 30.2266 12.1201 30.2266 11.833C30.2266 11.5413 30.3291 11.2975 30.5342 11.1016C30.7393 10.901 30.9922 10.8008 31.293 10.8008C31.5938 10.8008 31.8467 10.901 32.0518 11.1016C32.2568 11.2975 32.3594 11.5413 32.3594 11.833C32.3594 12.1201 32.2568 12.3639 32.0518 12.5645ZM34.001 15.8252C34.001 15.1279 34.2812 14.5697 34.8418 14.1504C35.4023 13.7266 36.152 13.5146 37.0908 13.5146C38.0068 13.5146 38.7428 13.7288 39.2988 14.1572C39.8548 14.5856 40.1396 15.1553 40.1533 15.8662H38.3145C38.2917 15.57 38.1686 15.3376 37.9453 15.1689C37.7266 15.0003 37.4326 14.916 37.0635 14.916C36.7171 14.916 36.4391 14.9889 36.2295 15.1348C36.0244 15.276 35.9219 15.4652 35.9219 15.7021C35.9219 16.0576 36.2409 16.3105 36.8789 16.4609L38.2803 16.7617C39.014 16.9258 39.5404 17.165 39.8594 17.4795C40.1829 17.7894 40.3447 18.2178 40.3447 18.7646C40.3447 19.4847 40.0439 20.0635 39.4424 20.501C38.8408 20.9385 38.0547 21.1572 37.084 21.1572C36.1178 21.1572 35.3454 20.943 34.7666 20.5146C34.1878 20.0863 33.8711 19.5098 33.8164 18.7852H35.7646C35.8148 19.0951 35.9561 19.3343 36.1885 19.5029C36.4255 19.6715 36.7422 19.7559 37.1387 19.7559C37.5169 19.7559 37.8132 19.6875 38.0273 19.5508C38.2461 19.4095 38.3555 19.2181 38.3555 18.9766C38.3555 18.7897 38.2871 18.6416 38.1504 18.5322C38.0137 18.4183 37.7812 18.3226 37.4531 18.2451L36.0996 17.9443C34.7005 17.6253 34.001 16.9189 34.001 15.8252ZM55.3994 13.6719L53.458 21H51.332L50.0059 15.8184H49.9648L48.6455 21H46.5469L44.5986 13.6719H46.6084L47.7158 19.1064H47.7568L49.0557 13.6719H50.9697L52.2754 19.1064H52.3164L53.4307 13.6719H55.3994ZM59.8574 14.9912C59.4245 14.9912 59.0622 15.1393 58.7705 15.4355C58.4834 15.7318 58.3216 16.11 58.2852 16.5703H61.3955C61.3727 16.1009 61.2201 15.7204 60.9375 15.4287C60.6595 15.137 60.2995 14.9912 59.8574 14.9912ZM61.4229 18.7578H63.2549C63.1455 19.4779 62.7855 20.0589 62.1748 20.501C61.5687 20.9385 60.8145 21.1572 59.9121 21.1572C58.7865 21.1572 57.9023 20.82 57.2598 20.1455C56.6217 19.471 56.3027 18.5459 56.3027 17.3701C56.3027 16.1989 56.6217 15.2646 57.2598 14.5674C57.8978 13.8656 58.7568 13.5146 59.8369 13.5146C60.8988 13.5146 61.7441 13.8473 62.373 14.5127C63.002 15.1781 63.3164 16.069 63.3164 17.1855V17.7939H58.2646V17.917C58.2646 18.4411 58.4173 18.8672 58.7227 19.1953C59.0326 19.5189 59.4404 19.6807 59.9463 19.6807C60.3109 19.6807 60.6253 19.5986 60.8896 19.4346C61.154 19.266 61.3317 19.0404 61.4229 18.7578ZM68.1367 14.9912C67.7038 14.9912 67.3415 15.1393 67.0498 15.4355C66.7627 15.7318 66.6009 16.11 66.5645 16.5703H69.6748C69.652 16.1009 69.4993 15.7204 69.2168 15.4287C68.9388 15.137 68.5788 14.9912 68.1367 14.9912ZM69.7021 18.7578H71.5342C71.4248 19.4779 71.0648 20.0589 70.4541 20.501C69.848 20.9385 69.0938 21.1572 68.1914 21.1572C67.0658 21.1572 66.1816 20.82 65.5391 20.1455C64.901 19.471 64.582 18.5459 64.582 17.3701C64.582 16.1989 64.901 15.2646 65.5391 14.5674C66.1771 13.8656 67.0361 13.5146 68.1162 13.5146C69.1781 13.5146 70.0234 13.8473 70.6523 14.5127C71.2812 15.1781 71.5957 16.069 71.5957 17.1855V17.7939H66.5439V17.917C66.5439 18.4411 66.6966 18.8672 67.002 19.1953C67.3118 19.5189 67.7197 19.6807 68.2256 19.6807C68.5902 19.6807 68.9046 19.5986 69.1689 19.4346C69.4333 19.266 69.611 19.0404 69.7021 18.7578ZM75.1992 16.6113L77.6875 13.6719H79.9502L77.1543 16.8164L80.0869 21H77.79L75.6914 18.0195L75.1719 18.5801V21H73.1758V11.1357H75.1719V16.6113H75.1992Z" fill="#E4E4E4"/>
<path d="M98 14L103 19L108 14H98Z" fill="#6979F8"/>
<rect x="0.5" y="0.5" width="126" height="31" rx="7.5" stroke="#6979F8"/>
</svg>
