<svg width="94" height="32" viewBox="0 0 94 32" fill="none" xmlns="http://www.w3.org/2000/svg">
<path d="M13.0605 14.1025C13.0605 13.1683 13.3978 12.4049 14.0723 11.8125C14.7513 11.2155 15.6286 10.917 16.7041 10.917C17.7386 10.917 18.5817 11.1859 19.2334 11.7236C19.8851 12.2568 20.2109 12.9382 20.2109 13.7676C20.2109 14.0638 20.1654 14.3509 20.0742 14.6289C19.9876 14.9023 19.8464 15.1781 19.6504 15.4561C19.459 15.7295 19.2653 15.9779 19.0693 16.2012C18.8734 16.4199 18.6182 16.6865 18.3037 17.001L15.8975 19.3184V19.3594H20.3477V21H13.1768V19.6123L16.8955 16.0303C17.3968 15.529 17.7386 15.1257 17.9209 14.8203C18.1077 14.515 18.2012 14.1914 18.2012 13.8496C18.2012 13.4759 18.0531 13.1615 17.7568 12.9062C17.4606 12.651 17.0869 12.5234 16.6357 12.5234C16.1572 12.5234 15.7607 12.6738 15.4463 12.9746C15.1318 13.2708 14.9746 13.6468 14.9746 14.1025V14.1367H13.0605V14.1025ZM28.8662 19.8311C28.1598 20.7562 27.1868 21.2188 25.9473 21.2188C24.7077 21.2188 23.7324 20.7585 23.0215 19.8379C22.3105 18.9128 21.9551 17.6504 21.9551 16.0508C21.9551 14.4603 22.3105 13.207 23.0215 12.291C23.737 11.3704 24.7122 10.9102 25.9473 10.9102C27.1823 10.9102 28.1553 11.3682 28.8662 12.2842C29.5771 13.2002 29.9326 14.4535 29.9326 16.0439C29.9326 17.639 29.5771 18.9014 28.8662 19.8311ZM24.5527 18.6416C24.89 19.2568 25.3548 19.5645 25.9473 19.5645C26.5397 19.5645 27.0023 19.2591 27.335 18.6484C27.6676 18.0332 27.834 17.1673 27.834 16.0508C27.834 14.9434 27.6654 14.0866 27.3281 13.4805C26.9954 12.8698 26.5352 12.5645 25.9473 12.5645C25.3594 12.5645 24.8968 12.8698 24.5596 13.4805C24.2223 14.0911 24.0537 14.9479 24.0537 16.0508C24.0537 17.1628 24.2201 18.0264 24.5527 18.6416ZM31.5195 14.1025C31.5195 13.1683 31.8568 12.4049 32.5312 11.8125C33.2103 11.2155 34.0876 10.917 35.1631 10.917C36.1976 10.917 37.0407 11.1859 37.6924 11.7236C38.3441 12.2568 38.6699 12.9382 38.6699 13.7676C38.6699 14.0638 38.6243 14.3509 38.5332 14.6289C38.4466 14.9023 38.3053 15.1781 38.1094 15.4561C37.918 15.7295 37.7243 15.9779 37.5283 16.2012C37.3324 16.4199 37.0771 16.6865 36.7627 17.001L34.3564 19.3184V19.3594H38.8066V21H31.6357V19.6123L35.3545 16.0303C35.8558 15.529 36.1976 15.1257 36.3799 14.8203C36.5667 14.515 36.6602 14.1914 36.6602 13.8496C36.6602 13.4759 36.512 13.1615 36.2158 12.9062C35.9196 12.651 35.5459 12.5234 35.0947 12.5234C34.6162 12.5234 34.2197 12.6738 33.9053 12.9746C33.5908 13.2708 33.4336 13.6468 33.4336 14.1025V14.1367H31.5195V14.1025ZM43.0527 21V13.0293H43.0117L40.4961 14.7656V12.9062L43.0459 11.1357H45.0967V21H43.0527Z" fill="#E4E4E4"/>
<path d="M64.4795 14L69.4795 19L74.4795 14H64.4795Z" fill="#6979F8"/>
<rect x="0.979492" y="0.5" width="92" height="31" rx="7.5" stroke="#6979F8"/>
</svg>
