<svg width="346" height="507" viewBox="0 0 346 507" fill="none" xmlns="http://www.w3.org/2000/svg">
<path d="M13 71.0152V304.2L23.651 356.82V471.637L33.6557 496.736H89.7347L100.242 488.37H253.735L266.492 494.342H301.605L316.492 470.427V423.779L307.995 396.285V250.397L322.883 228.875V151.156H327.143V22H34.0386L13 71.0152Z" fill="#0A101B"/>
<path d="M63 274H13V275H63V274Z" fill="#7EFACD"/>
<path d="M48 324H18V325H48V324Z" fill="#7EFACD"/>
<path d="M328.024 21.0104V151.807H323.763V229.015L308.876 250.537V395.995L317.373 423.515V470.54L302.126 495.02H266.512L253.73 489.048H100.548L90.0412 497.415H33.2675L23 471.643V356.772L12.3486 304.152V70.671V70.5098L33.579 21.0104H328.024ZM326.563 150.139V22.6244H34.5601L13.8089 71.0477V303.964L24.4597 356.584V471.293L34.2013 495.774H89.586L100.094 487.407H253.946L266.727 493.379H301.312L315.841 470.029V423.784L307.344 396.264V249.972L322.231 228.45V150.166L326.563 150.139Z" fill="#7EFACD"/>
<path d="M0 163.052V177.068H7.37186V180.888H0V189.174H7.37186V192.994H0V201.279H7.37186V205.1H0V213.385H7.37186V217.205H0V225.491H7.37186V229.311H0V240.153H7.37186V287.904L13.5949 308.349V177.821L13.1401 70.8596L0 163.052Z" fill="#7EFACD"/>
<path d="M43.8232 501.638V511H48.4187V504.49H51.0755V511H56.8677V504.49H59.5484V511H65.3405V504.49H67.9973V511H73.7895V504.49H76.4702V511H82.2624V504.49H84.9192V511H88.3418V501.638H43.8232Z" fill="#7EFACD"/>
<path d="M328.408 147.073L328.456 152.238H342.027V147.799H334.655V144.113H342.027V136.123H334.655V132.438H342.027V124.448H334.655V120.763H342.027V112.773H334.655V109.087H342.027V101.097H334.655V97.4118H342.027V86.9739H334.655V40.8911L328.408 21.172V147.073Z" fill="#7EFACD"/>
<path d="M33.2212 496.581L41.4547 503.226H94.7333L104.475 494.94H253.061L265.675 500.67H292.602L303.444 494.186L269.672 493.675L255.048 488.214H100.55L89.9225 496.581H33.2212Z" fill="#7EFACD"/>
<path d="M31.1619 359.247H25.4894L23.79 360.538V471.481L31.1619 464.272V359.247Z" fill="#7EFACD"/>
<path d="M92.3864 26.7408L106.532 31.2064H285.348L293.677 21.8446H34.1772L43.057 26.7408H92.3864Z" fill="#7EFACD"/>
<path d="M316.631 470.271L326.707 459.268V413.4L315.96 391.099V333.771L313.112 321.046V266.893L308.589 250.967L308.134 396.129L316.631 423.623V470.271Z" fill="#7EFACD"/>
<path d="M329.94 466.289C329.961 466.368 329.961 466.452 329.94 466.531L307.273 501.504L299.328 506.615H299.16H261.75H261.606L250.908 501.558H112.517L105.337 506.588C105.27 506.662 105.179 506.703 105.085 506.703C104.991 506.703 104.901 506.662 104.834 506.588C104.808 506.542 104.79 506.491 104.782 506.438C104.774 506.385 104.776 506.33 104.787 506.277C104.799 506.224 104.819 506.175 104.848 506.131C104.876 506.087 104.912 506.051 104.954 506.023L112.325 500.939C112.387 500.912 112.456 500.912 112.517 500.939H251.338L262.037 505.996H299.28L307.058 500.993L329.677 466.02C329.744 465.946 329.834 465.905 329.928 465.905C330.022 465.905 330.112 465.946 330.179 466.02C330.159 466.082 330.127 466.137 330.086 466.184C330.044 466.23 329.995 466.266 329.94 466.289V466.289Z" fill="#7EFACD"/>
<path d="M27.5732 499.405C27.5779 499.486 27.5594 499.566 27.5206 499.634C27.4818 499.701 27.4246 499.753 27.3576 499.782C27.2683 499.82 27.1697 499.819 27.0812 499.779C26.9926 499.739 26.9206 499.663 26.879 499.567L17.3051 472.665C17.3051 472.665 17.3051 472.665 17.3051 472.504V357.956L0.886231 289.221V247.712C0.886122 247.657 0.895928 247.602 0.915449 247.551C0.934969 247.5 0.963678 247.455 0.999594 247.417C1.03551 247.379 1.0777 247.35 1.12406 247.331C1.17042 247.313 1.21985 247.305 1.26898 247.309C1.36419 247.309 1.45525 247.351 1.52258 247.427C1.58991 247.502 1.62776 247.605 1.62776 247.712V289.06L18.0472 357.794V472.369L27.6211 499.056C27.6415 499.113 27.6476 499.176 27.6392 499.238C27.6308 499.299 27.6081 499.357 27.5732 499.405V499.405Z" fill="#7EFACD"/>
<path d="M3 24.8303V20.3647L12.0713 0H47.2074L56.8291 4.4387H185.765L195.985 8.25888H10.9463L3 24.8303Z" fill="#7EFACD"/>
<path d="M186.162 501.934L192.409 505.755H247.938L258.708 510.22H296.118L298.942 506.4H261.532L250.786 501.316L186.162 501.934Z" fill="#7EFACD"/>
<path d="M331.063 170.72V266.894C331.063 267.001 331.026 267.103 330.958 267.179C330.891 267.255 330.799 267.297 330.704 267.297H320.293V323.522L323.667 332.991C323.679 333.044 323.679 333.1 323.667 333.153V391.664L327.593 401.134C327.617 401.181 327.631 401.233 327.636 401.286C327.64 401.34 327.635 401.395 327.619 401.446C327.603 401.497 327.577 401.543 327.544 401.582C327.511 401.621 327.47 401.652 327.425 401.672C327.34 401.718 327.241 401.724 327.151 401.689C327.062 401.653 326.988 401.58 326.947 401.483L322.973 391.933C322.962 391.871 322.962 391.807 322.973 391.745V333.234L319.599 323.737V267.028C319.599 266.975 319.608 266.922 319.626 266.874C319.644 266.825 319.67 266.78 319.704 266.743C319.737 266.705 319.777 266.675 319.82 266.655C319.864 266.635 319.91 266.625 319.957 266.625H330.345V170.854C330.345 170.799 330.355 170.744 330.375 170.693C330.394 170.642 330.423 170.596 330.459 170.559C330.495 170.521 330.537 170.492 330.584 170.473C330.63 170.455 330.679 170.447 330.728 170.451C330.802 170.451 330.874 170.477 330.934 170.525C330.994 170.574 331.039 170.641 331.063 170.72V170.72Z" fill="#7EFACD"/>
<path d="M323.308 371.353L328.406 380.284V328.04L324.457 318.49V271.977H334.078V228.047L331.254 219.115L330.68 266.893H319.909V323.575L323.308 333.152V371.353Z" fill="#7EFACD"/>
<path d="M342.96 31.7708V66.232H342.218V31.9052L333.841 6.77902H260.409V5.94507H334.343L342.96 31.7708Z" fill="#7EFACD"/>
<path d="M289.825 0L284.225 5.7301H334.081L342.577 31.8518V44.5763L346 39.4919V26.7404L335.947 0H289.825Z" fill="#7EFACD"/>
<path d="M202.99 38.8461C202.99 38.9603 202.95 39.0698 202.878 39.1505C202.806 39.2312 202.709 39.2766 202.607 39.2766H35.9501L22.4746 70.1599V179.623C22.4747 179.733 22.4378 179.838 22.3711 179.918C22.3044 179.998 22.2131 180.047 22.1158 180.054C22.0665 180.054 22.0178 180.043 21.9726 180.021C21.9274 179.999 21.8865 179.967 21.8528 179.926C21.8191 179.886 21.7934 179.838 21.7768 179.786C21.7603 179.734 21.7537 179.678 21.757 179.623V70.106C21.7438 70.0441 21.7438 69.9797 21.757 69.9178L35.3517 38.7115C35.3801 38.6384 35.4271 38.5766 35.4867 38.5335C35.5463 38.4904 35.6157 38.4681 35.6866 38.4694H202.583C202.681 38.4617 202.778 38.4966 202.854 38.5666C202.929 38.6367 202.978 38.7367 202.99 38.8461V38.8461Z" fill="#7EFACD"/>
<path d="M307.823 422.95V464.379C307.847 464.448 307.847 464.525 307.823 464.594L294.802 486.116C294.766 486.171 294.72 486.217 294.666 486.25C294.612 486.282 294.552 486.301 294.491 486.304H272.95H272.806L263.232 481.246H223.62C223.573 481.246 223.526 481.236 223.483 481.216C223.439 481.196 223.4 481.166 223.366 481.128C223.333 481.091 223.307 481.046 223.289 480.997C223.271 480.948 223.261 480.896 223.261 480.843C223.261 480.736 223.299 480.633 223.366 480.558C223.434 480.482 223.525 480.44 223.62 480.44H263.448L273.022 485.497H294.275L307.152 464.137V422.923L297.579 395.618C297.567 395.565 297.567 395.509 297.579 395.456V292.907C297.579 292.8 297.616 292.697 297.684 292.622C297.751 292.546 297.842 292.503 297.937 292.503C298.035 292.503 298.129 292.545 298.2 292.62C298.272 292.695 298.314 292.797 298.32 292.907V395.618L307.894 422.95C307.87 422.954 307.847 422.954 307.823 422.95V422.95Z" fill="#7EFACD"/>
<path d="M174.22 402.152C174.161 402.154 174.282 402.349 174.238 402.291C174.021 402.003 174 401.923 174 401.839C174 401.756 174.021 401.675 174.06 401.614L180.597 392.597C180.616 392.563 180.641 392.537 180.669 392.519C180.696 392.501 180.727 392.493 180.757 392.495H297.911V352.32C297.911 352.235 297.935 352.154 297.976 352.094C298.017 352.034 298.073 352 298.132 352C298.19 352 298.246 352.034 298.287 352.094C298.329 352.154 298.352 352.235 298.352 352.32V392.815C298.352 392.9 298.329 392.982 298.287 393.042C298.246 393.102 298.19 393.135 298.132 393.135H180.847L174.371 402.065C174.33 402.121 174.276 402.152 174.22 402.152Z" fill="#7EFACD"/>
<path d="M192.763 395.682L194.445 392.815H236.921L235.018 395.042H224.785L223.033 396.745H200.663L196.858 394.62L192.763 395.682Z" fill="#7EFACD"/>
</svg>
