<svg width="134" height="124" viewBox="0 0 134 124" fill="none" xmlns="http://www.w3.org/2000/svg">
<g clip-path="url(#clip0_711_518)">
<g filter="url(#filter0_d_711_518)">
<rect y="78.5" width="118" height="32" fill="#DD56FF"/>
<rect x="0.5" y="79" width="117" height="31" stroke="#DD56FF"/>
</g>
<path d="M117.601 79.1H42.9874L40.3843 76.48H115.088L117.601 79.1Z" fill="#DD56FF"/>
<path d="M113.751 77.51L107.488 71.24H82.9422L79.4913 67.78H68.9889L59.6733 77.11L113.751 77.51Z" fill="#DD56FF"/>
<path d="M63.4034 66.53L55.8433 74.11H46.0889L53.6689 66.5L63.4034 66.53Z" fill="#DD56FF"/>
<path d="M48.0836 66.53L40.5334 74.11H30.769L38.3591 66.5L48.0836 66.53Z" fill="#DD56FF"/>
<path d="M32.674 66.53L25.1138 74.11H15.3594L22.9396 66.5L32.674 66.53Z" fill="#DD56FF"/>
<path d="M17.3145 66.53L9.75429 74.11H0L7.58007 66.5L17.3145 66.53Z" fill="#7EFACD"/>
<path d="M34.5527 90.249V93.3936H36.3301C36.8496 93.3936 37.2529 93.2546 37.54 92.9766C37.8317 92.6986 37.9775 92.3135 37.9775 91.8213C37.9775 91.3428 37.8271 90.9622 37.5264 90.6797C37.2256 90.3926 36.82 90.249 36.3096 90.249H34.5527ZM34.5527 94.8906V98.5H32.4883V88.6357H36.5283C37.654 88.6357 38.529 88.916 39.1533 89.4766C39.7822 90.0326 40.0967 90.8005 40.0967 91.7803C40.0967 92.4229 39.9372 92.9971 39.6182 93.5029C39.3037 94.0042 38.8662 94.3643 38.3057 94.583L40.3838 98.5H38.0459L36.207 94.8906H34.5527ZM45.0059 92.4912C44.5729 92.4912 44.2106 92.6393 43.9189 92.9355C43.6318 93.2318 43.4701 93.61 43.4336 94.0703H46.5439C46.5212 93.6009 46.3685 93.2204 46.0859 92.9287C45.8079 92.637 45.4479 92.4912 45.0059 92.4912ZM46.5713 96.2578H48.4033C48.2939 96.9779 47.9339 97.5589 47.3232 98.001C46.7171 98.4385 45.9629 98.6572 45.0605 98.6572C43.9349 98.6572 43.0508 98.32 42.4082 97.6455C41.7702 96.971 41.4512 96.0459 41.4512 94.8701C41.4512 93.6989 41.7702 92.7646 42.4082 92.0674C43.0462 91.3656 43.9053 91.0146 44.9854 91.0146C46.0472 91.0146 46.8926 91.3473 47.5215 92.0127C48.1504 92.6781 48.4648 93.569 48.4648 94.6855V95.2939H43.4131V95.417C43.4131 95.9411 43.5658 96.3672 43.8711 96.6953C44.181 97.0189 44.5889 97.1807 45.0947 97.1807C45.4593 97.1807 45.7738 97.0986 46.0381 96.9346C46.3024 96.766 46.4801 96.5404 46.5713 96.2578ZM52.7178 98.6162C51.8018 98.6162 51.0749 98.2767 50.5371 97.5977C49.9993 96.9186 49.7305 95.9935 49.7305 94.8223C49.7305 93.6602 49.9993 92.7419 50.5371 92.0674C51.0794 91.3929 51.8109 91.0557 52.7314 91.0557C53.251 91.0557 53.7067 91.181 54.0986 91.4316C54.4951 91.6823 54.7845 92.015 54.9668 92.4297H55.0078V88.6357H57.0039V98.5H55.0352V97.2422H55.001C54.8187 97.6569 54.5247 97.9896 54.1191 98.2402C53.7135 98.4909 53.2464 98.6162 52.7178 98.6162ZM53.3945 92.6553C52.8932 92.6553 52.4967 92.8512 52.2051 93.2432C51.918 93.6351 51.7744 94.166 51.7744 94.8359C51.7744 95.5104 51.918 96.0413 52.2051 96.4287C52.4967 96.8161 52.8932 97.0098 53.3945 97.0098C53.8913 97.0098 54.2855 96.8161 54.5771 96.4287C54.8734 96.0368 55.0215 95.5059 55.0215 94.8359C55.0215 94.1706 54.8734 93.6419 54.5771 93.25C54.2855 92.8535 53.8913 92.6553 53.3945 92.6553ZM62.125 92.4912C61.6921 92.4912 61.3298 92.6393 61.0381 92.9355C60.751 93.2318 60.5892 93.61 60.5527 94.0703H63.6631C63.6403 93.6009 63.4876 93.2204 63.2051 92.9287C62.9271 92.637 62.5671 92.4912 62.125 92.4912ZM63.6904 96.2578H65.5225C65.4131 96.9779 65.0531 97.5589 64.4424 98.001C63.8363 98.4385 63.082 98.6572 62.1797 98.6572C61.054 98.6572 60.1699 98.32 59.5273 97.6455C58.8893 96.971 58.5703 96.0459 58.5703 94.8701C58.5703 93.6989 58.8893 92.7646 59.5273 92.0674C60.1654 91.3656 61.0244 91.0146 62.1045 91.0146C63.1663 91.0146 64.0117 91.3473 64.6406 92.0127C65.2695 92.6781 65.584 93.569 65.584 94.6855V95.2939H60.5322V95.417C60.5322 95.9411 60.6849 96.3672 60.9902 96.6953C61.3001 97.0189 61.708 97.1807 62.2139 97.1807C62.5785 97.1807 62.8929 97.0986 63.1572 96.9346C63.4215 96.766 63.5993 96.5404 63.6904 96.2578ZM70.4043 92.4912C69.9714 92.4912 69.609 92.6393 69.3174 92.9355C69.0303 93.2318 68.8685 93.61 68.832 94.0703H71.9424C71.9196 93.6009 71.7669 93.2204 71.4844 92.9287C71.2064 92.637 70.8464 92.4912 70.4043 92.4912ZM71.9697 96.2578H73.8018C73.6924 96.9779 73.3324 97.5589 72.7217 98.001C72.1156 98.4385 71.3613 98.6572 70.459 98.6572C69.3333 98.6572 68.4492 98.32 67.8066 97.6455C67.1686 96.971 66.8496 96.0459 66.8496 94.8701C66.8496 93.6989 67.1686 92.7646 67.8066 92.0674C68.4447 91.3656 69.3037 91.0146 70.3838 91.0146C71.4456 91.0146 72.291 91.3473 72.9199 92.0127C73.5488 92.6781 73.8633 93.569 73.8633 94.6855V95.2939H68.8115V95.417C68.8115 95.9411 68.9642 96.3672 69.2695 96.6953C69.5794 97.0189 69.9873 97.1807 70.4932 97.1807C70.8577 97.1807 71.1722 97.0986 71.4365 96.9346C71.7008 96.766 71.8786 96.5404 71.9697 96.2578ZM75.3955 98.5V91.1719H77.3232V92.498H77.3643C77.5192 92.0514 77.7835 91.696 78.1572 91.4316C78.5309 91.1673 78.9639 91.0352 79.4561 91.0352C79.9847 91.0352 80.4268 91.1673 80.7822 91.4316C81.1377 91.6914 81.377 92.0605 81.5 92.5391H81.541C81.7051 92.0788 81.9899 91.7142 82.3955 91.4453C82.8057 91.1719 83.2796 91.0352 83.8174 91.0352C84.5374 91.0352 85.1162 91.2607 85.5537 91.7119C85.9958 92.1631 86.2168 92.7578 86.2168 93.4961V98.5H84.2207V93.9951C84.2207 93.5713 84.1182 93.2477 83.9131 93.0244C83.708 92.7965 83.4118 92.6826 83.0244 92.6826C82.6462 92.6826 82.3408 92.8079 82.1084 93.0586C81.8805 93.3092 81.7666 93.6396 81.7666 94.0498V98.5H79.8457V93.9336C79.8457 93.5417 79.7409 93.2363 79.5312 93.0176C79.3216 92.7943 79.0322 92.6826 78.6631 92.6826C78.2848 92.6826 77.9772 92.8125 77.7402 93.0723C77.5078 93.332 77.3916 93.667 77.3916 94.0771V98.5H75.3955Z" fill="#07090C"/>
<path d="M117.601 110.5H42.9874L40.3843 113.11H115.088L117.601 110.5Z" fill="#DD56FF"/>
<path d="M113.751 112.08L107.488 118.35H82.9422L79.4913 121.82H68.9889L59.6733 112.48L113.751 112.08Z" fill="#DD56FF"/>
<path d="M63.4034 123.07L55.8433 115.5H46.0889L53.6689 123.1L63.4034 123.07Z" fill="#7EFACD"/>
<path d="M48.0836 123.07L40.5334 115.5H30.769L38.3591 123.1L48.0836 123.07Z" fill="#DD56FF"/>
<path d="M32.674 123.07L25.1138 115.5H15.3594L22.9396 123.1L32.674 123.07Z" fill="#DD56FF"/>
<path d="M17.3145 123.07L9.75429 115.5H0L7.58007 123.1L17.3145 123.07Z" fill="#DD56FF"/>
</g>
<path d="M10.1934 67.1523C10.1344 67.1542 10.2548 67.349 10.2112 67.2911C9.99503 67.0033 9.97363 66.9229 9.97363 66.8394C9.97363 66.756 9.99503 66.6754 10.0336 66.6138L16.5529 57.5968C16.5726 57.5633 16.5971 57.5367 16.6248 57.5191C16.6525 57.5014 16.6825 57.4932 16.7127 57.4949H133V0.347656C133 0.262725 133.023 0.153874 133.064 0.0938187C133.129 4.47035e-07 133.722 0 133.78 0C133.838 0 133.894 0.0337634 133.935 0.0938187C133.977 0.153874 134 0.235259 134 0.32019V57.8151C134 57.9 133.977 57.9815 133.935 58.0416C133.894 58.1016 133.838 58.1354 133.78 58.1354H16.8026L10.3432 67.065C10.3027 67.1208 10.2492 67.152 10.1934 67.1523Z" fill="#7EFACD"/>
<path d="M28.6875 60.3675L30.3653 57.5H72.7301L70.8326 59.7271H60.6259L58.8781 61.4301H36.5672L32.7722 59.3049L28.6875 60.3675Z" fill="#7EFACD"/>
<defs>
<filter id="filter0_d_711_518" x="-4" y="77.5" width="126" height="40" filterUnits="userSpaceOnUse" color-interpolation-filters="sRGB">
<feFlood flood-opacity="0" result="BackgroundImageFix"/>
<feColorMatrix in="SourceAlpha" type="matrix" values="0 0 0 0 0 0 0 0 0 0 0 0 0 0 0 0 0 0 127 0" result="hardAlpha"/>
<feOffset dy="3"/>
<feGaussianBlur stdDeviation="2"/>
<feColorMatrix type="matrix" values="0 0 0 0 0.0117647 0 0 0 0 0.180392 0 0 0 0 0.909804 0 0 0 0.21 0"/>
<feBlend mode="normal" in2="BackgroundImageFix" result="effect1_dropShadow_711_518"/>
<feBlend mode="normal" in="SourceGraphic" in2="effect1_dropShadow_711_518" result="shape"/>
</filter>
<clipPath id="clip0_711_518">
<rect width="117.691" height="57" fill="white" transform="translate(0 66.5)"/>
</clipPath>
</defs>
</svg>
