<svg width="241" height="57" viewBox="0 0 241 57" fill="none" xmlns="http://www.w3.org/2000/svg">
<g clip-path="url(#clip0_581_628)">
<path d="M0.239967 40.3L2.52995 38.9401C2.60816 38.8924 2.69838 38.8681 2.78996 38.8701H24.98L27.98 38.0601H28.11H53.99C54.0884 38.0615 54.1846 38.0903 54.2676 38.1432C54.3506 38.1962 54.4172 38.2713 54.4599 38.36C54.4988 38.4501 54.512 38.5493 54.4978 38.6464C54.4837 38.7435 54.4429 38.8348 54.38 38.91L52.48 41.1C52.4311 41.1556 52.3712 41.2003 52.304 41.2313C52.2368 41.2623 52.1639 41.2789 52.0899 41.2801H0.509926C0.382046 41.3025 0.250397 41.2763 0.140846 41.2066C0.0312958 41.1369 -0.0482101 41.0288 -0.0820541 40.9034C-0.115898 40.7781 -0.101601 40.6446 -0.0420151 40.5293C0.0175705 40.4139 0.118156 40.325 0.239967 40.2801V40.3Z" fill="#7EFACD"/>
<path d="M212.22 27.0599C212.22 27.3427 212.304 27.6192 212.461 27.8544C212.618 28.0895 212.841 28.2728 213.103 28.381C213.364 28.4893 213.652 28.5176 213.929 28.4624C214.206 28.4073 214.461 28.271 214.661 28.071C214.861 27.8711 214.997 27.6163 215.052 27.3389C215.108 27.0615 215.079 26.774 214.971 26.5127C214.863 26.2514 214.68 26.028 214.444 25.8709C214.209 25.7137 213.933 25.6299 213.65 25.6299C213.271 25.6299 212.907 25.7806 212.639 26.0487C212.371 26.3169 212.22 26.6806 212.22 27.0599Z" fill="#7EFACD"/>
<path d="M218.48 27.2701H240.48C240.536 27.2701 240.589 27.248 240.628 27.2086C240.668 27.1692 240.69 27.1158 240.69 27.0601C240.69 27.033 240.684 27.0061 240.674 26.9812C240.663 26.9563 240.648 26.9338 240.628 26.915C240.608 26.8963 240.585 26.8818 240.56 26.8724C240.534 26.8629 240.507 26.8588 240.48 26.8601H218.48C218.427 26.8601 218.376 26.8812 218.339 26.9187C218.301 26.9562 218.28 27.0071 218.28 27.0601C218.28 27.1141 218.301 27.1661 218.338 27.2052C218.375 27.2443 218.426 27.2675 218.48 27.2701Z" fill="#7EFACD"/>
<path d="M186.79 27.2701H208.79C208.844 27.2675 208.895 27.2443 208.932 27.2052C208.969 27.1661 208.99 27.1141 208.99 27.0601C208.99 27.0071 208.969 26.9562 208.931 26.9187C208.894 26.8812 208.843 26.8601 208.79 26.8601H186.79C186.763 26.8588 186.736 26.8629 186.71 26.8724C186.685 26.8818 186.662 26.8963 186.642 26.915C186.622 26.9338 186.607 26.9563 186.596 26.9812C186.585 27.0061 186.58 27.033 186.58 27.0601C186.58 27.1158 186.602 27.1692 186.641 27.2086C186.681 27.248 186.734 27.2701 186.79 27.2701Z" fill="#7EFACD"/>
<path d="M218.48 27.2701H240.48C240.536 27.2701 240.589 27.248 240.628 27.2086C240.668 27.1692 240.69 27.1158 240.69 27.0601C240.69 27.033 240.684 27.0061 240.674 26.9812C240.663 26.9563 240.648 26.9338 240.628 26.915C240.608 26.8963 240.585 26.8818 240.56 26.8724C240.534 26.8629 240.507 26.8588 240.48 26.8601H218.48C218.427 26.8601 218.376 26.8812 218.339 26.9187C218.301 26.9562 218.28 27.0071 218.28 27.0601C218.28 27.1141 218.301 27.1661 218.338 27.2052C218.375 27.2443 218.426 27.2675 218.48 27.2701Z" fill="#7EFACD"/>
<path d="M186.79 27.2701H208.79C208.844 27.2675 208.895 27.2443 208.932 27.2052C208.969 27.1661 208.99 27.1141 208.99 27.0601C208.99 27.0071 208.969 26.9562 208.931 26.9187C208.894 26.8812 208.843 26.8601 208.79 26.8601H186.79C186.763 26.8588 186.736 26.8629 186.71 26.8724C186.685 26.8818 186.662 26.8963 186.642 26.915C186.622 26.9338 186.607 26.9563 186.596 26.9812C186.585 27.0061 186.58 27.033 186.58 27.0601C186.58 27.1158 186.602 27.1692 186.641 27.2086C186.681 27.248 186.734 27.2701 186.79 27.2701Z" fill="#7EFACD"/>
<path d="M213.65 22.43C213.703 22.43 213.754 22.4089 213.791 22.3714C213.829 22.3339 213.85 22.2831 213.85 22.23V0.230018C213.85 0.176974 213.829 0.126107 213.791 0.0885993C213.754 0.051092 213.703 0.0300361 213.65 0.0300361C213.623 0.0286797 213.596 0.0328318 213.57 0.0422736C213.545 0.0517155 213.522 0.0662286 213.502 0.0849372C213.482 0.103646 213.467 0.126159 213.456 0.151099C213.445 0.17604 213.44 0.20289 213.44 0.230018V22.23C213.44 22.2571 213.445 22.284 213.456 22.3089C213.467 22.3339 213.482 22.3564 213.502 22.3751C213.522 22.3938 213.545 22.4083 213.57 22.4178C213.596 22.4272 213.623 22.4314 213.65 22.43Z" fill="#7EFACD"/>
<path d="M213.65 54.1201C213.703 54.1201 213.754 54.099 213.791 54.0615C213.829 54.024 213.85 53.9731 213.85 53.9201V31.9201C213.857 31.8894 213.857 31.8576 213.85 31.8269C213.842 31.7963 213.828 31.7677 213.809 31.7432C213.789 31.7186 213.764 31.6988 213.736 31.6852C213.707 31.6716 213.676 31.6646 213.645 31.6646C213.614 31.6646 213.582 31.6716 213.554 31.6852C213.526 31.6988 213.501 31.7186 213.481 31.7432C213.461 31.7677 213.448 31.7963 213.44 31.8269C213.433 31.8576 213.433 31.8894 213.44 31.9201V53.9201C213.44 53.9472 213.445 53.9741 213.456 53.999C213.467 54.024 213.482 54.0465 213.502 54.0652C213.522 54.0839 213.545 54.0984 213.57 54.1078C213.596 54.1173 213.623 54.1215 213.65 54.1201Z" fill="#7EFACD"/>
<path d="M195.22 27.8C195.406 32.2716 197.212 36.5228 200.302 39.761C203.391 42.9992 207.552 45.0035 212.01 45.4001V46.6501C207.228 46.2418 202.759 44.1008 199.445 40.6296C196.13 37.1584 194.197 32.596 194.01 27.8H195.22Z" fill="#7EFACD"/>
<path d="M215.28 45.4301C219.743 45.0327 223.908 43.0242 226.998 39.7798C230.088 36.5353 231.891 32.2768 232.07 27.8H233.35C233.163 32.596 231.23 37.1584 227.915 40.6296C224.601 44.1008 220.132 46.2418 215.35 46.6501L215.28 45.4301Z" fill="#7EFACD"/>
<path d="M215.28 7.43994C220.064 7.84847 224.534 9.99086 227.848 13.4641C231.163 16.9374 233.095 21.5022 233.28 26.2999H232.03C231.844 21.8273 230.038 17.5749 226.949 14.335C223.86 11.0951 219.699 9.08884 215.24 8.68994L215.28 7.43994Z" fill="#7EFACD"/>
<path d="M212.01 7.43994V8.68994C207.551 9.08884 203.39 11.0951 200.301 14.335C197.212 17.5749 195.406 21.8273 195.22 26.2999H193.97C194.156 21.4959 196.093 16.9259 199.416 13.4517C202.74 9.97753 207.219 7.83921 212.01 7.43994Z" fill="#7EFACD"/>
<path d="M213.76 50.1201H213.53H212.76V50.33C207.068 50.2524 201.569 48.2584 197.15 44.67V43.3101C192.872 38.9918 190.471 33.1588 190.471 27.08C190.471 21.0012 192.872 15.1683 197.15 10.85V9.49005C201.567 5.89503 207.065 3.89083 212.76 3.80005V4.01004H214.53V3.80005C220.221 3.88233 225.719 5.87582 230.14 9.46005V10.8C234.418 15.1183 236.819 20.9513 236.819 27.0301C236.819 33.1089 234.418 38.9418 230.14 43.26V44.6201C225.721 48.2084 220.222 50.2024 214.53 50.2801V50.07L213.76 50.1201ZM214.53 49.29V49.0201C217.227 48.9762 219.898 48.4793 222.43 47.55C226.462 45.849 229.902 42.997 232.321 39.3507C234.74 35.7044 236.031 31.4258 236.031 27.05C236.031 22.6743 234.74 18.3957 232.321 14.7494C229.902 11.1031 226.462 8.25108 222.43 6.55005C219.897 5.62407 217.226 5.13053 214.53 5.09006V4.80005H213.76H213.53H212.76V5.07004C210.063 5.11052 207.393 5.60408 204.86 6.53006C200.828 8.23109 197.388 11.0831 194.969 14.7294C192.55 18.3756 191.259 22.6543 191.259 27.0301C191.259 31.4058 192.55 35.6844 194.969 39.3307C197.388 42.977 200.828 45.829 204.86 47.5301C207.392 48.4593 210.063 48.9562 212.76 49.0001V49.2701H214.53V49.29Z" fill="#7EFACD"/>
<path d="M208.65 27.06C208.65 26.7989 208.67 26.5381 208.71 26.28H208.09C208.26 25.0752 208.818 23.9584 209.678 23.098C210.538 22.2376 211.655 21.6802 212.86 21.51V22.12C213.38 22.0401 213.91 22.0401 214.43 22.12V21.51C215.635 21.6802 216.752 22.2376 217.612 23.098C218.472 23.9584 219.03 25.0752 219.2 26.28H218.58C218.62 26.5381 218.64 26.7989 218.64 27.06C218.641 27.3212 218.621 27.582 218.58 27.84H219.2C219.029 29.0454 218.471 30.1628 217.611 31.0246C216.751 31.8864 215.635 32.4462 214.43 32.62V32C213.91 32.08 213.38 32.08 212.86 32V32.62C211.655 32.4462 210.539 31.8864 209.679 31.0246C208.819 30.1628 208.261 29.0454 208.09 27.84H208.71C208.669 27.582 208.649 27.3212 208.65 27.06ZM218.24 27.06C218.242 26.1494 217.974 25.2586 217.469 24.5006C216.964 23.7426 216.246 23.1515 215.405 22.8021C214.564 22.4527 213.638 22.3608 212.745 22.5379C211.852 22.7151 211.031 23.1534 210.387 23.7973C209.743 24.4413 209.305 25.2618 209.128 26.1551C208.951 27.0483 209.043 27.974 209.392 28.815C209.741 29.6559 210.333 30.3742 211.091 30.8789C211.849 31.3836 212.739 31.652 213.65 31.65C214.866 31.6474 216.032 31.163 216.893 30.3027C217.753 29.4425 218.237 28.2766 218.24 27.06Z" fill="#7EFACD"/>
<path d="M126.44 52.2899C125.65 52.2899 125.01 51.6497 125.01 50.8599C125.01 50.0702 125.65 49.4299 126.44 49.4299C127.23 49.4299 127.87 50.0702 127.87 50.8599C127.87 51.6497 127.23 52.2899 126.44 52.2899Z" fill="#7EFACD"/>
<path d="M121.44 50.86C121.44 50.5989 121.46 50.3381 121.5 50.08H120.88C121.05 48.8752 121.608 47.7584 122.468 46.898C123.328 46.0376 124.445 45.4803 125.65 45.3101V45.9301C126.169 45.8368 126.701 45.8368 127.22 45.9301V45.3101C128.425 45.4787 129.543 46.0356 130.404 46.8962C131.264 47.7569 131.821 48.8746 131.99 50.08H131.35C131.43 50.6003 131.43 51.1298 131.35 51.6501H131.97C131.798 52.8542 131.24 53.9702 130.38 54.8303C129.52 55.6904 128.404 56.2483 127.2 56.42V55.8C126.68 55.88 126.15 55.88 125.63 55.8V56.42C124.426 56.2467 123.311 55.6884 122.451 54.8286C121.592 53.9687 121.033 52.8536 120.86 51.6501H121.48C121.446 51.3881 121.433 51.124 121.44 50.86ZM131.03 50.86C131.032 49.9494 130.764 49.0587 130.259 48.3007C129.754 47.5427 129.036 46.9515 128.195 46.6021C127.354 46.2527 126.428 46.1608 125.535 46.338C124.642 46.5151 123.821 46.9535 123.177 47.5974C122.533 48.2413 122.095 49.0619 121.918 49.9551C121.741 50.8484 121.833 51.7741 122.182 52.615C122.531 53.456 123.123 54.1743 123.881 54.679C124.639 55.1837 125.529 55.452 126.44 55.45C127.657 55.4474 128.822 54.963 129.683 54.1028C130.543 53.2425 131.027 52.0766 131.03 50.86Z" fill="#7EFACD"/>
<path d="M23.4699 41.02H153.22C153.255 41.0213 153.29 41.0137 153.321 40.998C153.353 40.9822 153.38 40.9589 153.4 40.93C158.71 32.93 164.86 24.46 165.79 24.43H188.92C188.978 24.43 189.034 24.4068 189.076 24.3655C189.117 24.3243 189.14 24.2683 189.14 24.21C189.14 24.1516 189.117 24.0957 189.076 24.0544C189.034 24.0132 188.978 23.99 188.92 23.99H165.79C164.26 23.99 155.1 37.59 153.1 40.59H23.4699C23.4378 40.583 23.4046 40.5833 23.3726 40.5909C23.3406 40.5985 23.3108 40.6131 23.2852 40.6337C23.2596 40.6543 23.239 40.6804 23.2248 40.7101C23.2106 40.7397 23.2033 40.7721 23.2033 40.805C23.2033 40.8378 23.2106 40.8703 23.2248 40.8999C23.239 40.9295 23.2596 40.9556 23.2852 40.9763C23.3108 40.9969 23.3406 41.0115 23.3726 41.0191C23.4046 41.0266 23.4378 41.027 23.4699 41.02Z" fill="#7EFACD"/>
<path d="M51.35 51.0601H120.59C120.643 51.0601 120.694 51.039 120.731 51.0015C120.769 50.964 120.79 50.9131 120.79 50.8601C120.79 50.8343 120.785 50.8087 120.775 50.785C120.764 50.7612 120.75 50.7398 120.731 50.7221C120.712 50.7043 120.69 50.6905 120.666 50.6816C120.642 50.6726 120.616 50.6687 120.59 50.6701H51.46L43.22 42.6101C43.1798 42.579 43.1307 42.5615 43.08 42.5601H0.459961C0.434181 42.5587 0.408432 42.5626 0.384216 42.5716C0.360001 42.5805 0.337807 42.5943 0.319092 42.612C0.300377 42.6298 0.2855 42.6512 0.27533 42.675C0.26516 42.6987 0.259911 42.7243 0.259949 42.7501C0.259949 42.8031 0.281036 42.854 0.318542 42.8915C0.356049 42.929 0.406921 42.9501 0.459961 42.9501H43L51.24 51.0101C51.2718 51.0358 51.3096 51.0531 51.35 51.0601Z" fill="#7EFACD"/>
<path d="M119.46 48.6001H52.46L46.46 42.6001H124.59C123.301 43.091 122.156 43.8975 121.26 44.9458C120.363 45.9941 119.745 47.2506 119.46 48.6001Z" fill="#7EFACD"/>
<path d="M217.96 10.3999V22.3999C217.289 21.5698 216.485 20.8567 215.58 20.2899V10.1299C216.381 10.1309 217.179 10.2214 217.96 10.3999Z" fill="#7EFACD"/>
<path d="M209.42 43.8999V31.8999C210.091 32.73 210.895 33.443 211.8 34.0099V44.1899C210.998 44.1824 210.2 44.0851 209.42 43.8999Z" fill="#7EFACD"/>
<path d="M217.96 10.3999V22.3999C217.289 21.5698 216.485 20.8567 215.58 20.2899V10.1299C216.381 10.1309 217.179 10.2214 217.96 10.3999Z" fill="#7EFACD"/>
<path d="M209.42 43.8999V31.8999C210.091 32.73 210.895 33.443 211.8 34.0099V44.1899C210.998 44.1824 210.2 44.0851 209.42 43.8999Z" fill="#7EFACD"/>
<path d="M196.94 22.8701H208.94C208.111 23.5461 207.398 24.3535 206.83 25.2601H196.65C196.658 24.4552 196.755 23.6536 196.94 22.8701Z" fill="#7EFACD"/>
<path d="M230.44 31.42H218.44C219.272 30.7465 219.985 29.9387 220.55 29.03H230.71C230.709 29.8343 230.619 30.6359 230.44 31.42Z" fill="#7EFACD"/>
</g>
<defs>
<clipPath id="clip0_581_628">
<rect width="240.71" height="56.42" fill="white" transform="matrix(-1 0 0 1 240.71 0)"/>
</clipPath>
</defs>
</svg>
