<svg width="103" height="268" viewBox="0 0 103 268" fill="none" xmlns="http://www.w3.org/2000/svg">
<path d="M18.9299 155.2L19.0899 155.11L27.3999 150.32L37.7399 144.32L37.7399 122.6L27.3999 116.6L18.9299 111.71L18.7699 111.81L0.129881 122.57L0.129882 144.29L18.9299 155.2ZM0.769881 123L18.9299 112.51L27.3999 117.4L37.0999 123L37.0999 144L27.3999 149.6L18.9299 154.49L0.769882 144L0.769881 123Z" fill="#7EFACD"/>
<path d="M8.29004 143.54L18.93 149.68L29.58 143.54L29.39 143.22L18.93 149.26L8.47004 143.22L8.29004 143.54Z" fill="#7EFACD"/>
<path d="M8.29004 122.9L8.47004 123.22L18.93 117.18L29.39 123.22L29.58 122.9L18.93 116.76L8.29004 122.9Z" fill="#7EFACD"/>
<path d="M24.4699 130.29L24.4699 136.69L18.9299 139.88L13.3999 136.69L13.3999 130.29L18.9299 127.1L24.4699 130.29Z" fill="#7EFACD"/>
<path d="M-4.09139e-07 105.37L0 114.73L17.83 104.35L17.83 94.9901L-4.09139e-07 105.37Z" fill="#7EFACD"/>
<path d="M-4.09139e-07 92.4001L0 101.76L17.83 91.3701L17.83 82.0201L-4.09139e-07 92.4001Z" fill="#7EFACD"/>
<path d="M-4.09138e-07 79.42L0 88.78L17.83 78.4L17.83 69.04L-4.09138e-07 79.42Z" fill="#7EFACD"/>
<path d="M-4.09139e-07 66.4501L0 75.8101L17.83 65.4201L17.83 56.0701L-4.09139e-07 66.4501Z" fill="#7EFACD"/>
<g opacity="0.15">
<path opacity="0.15" d="M-4.08701e-07 53.4801L0 62.8301L17.83 52.4501L17.83 43.1001L-4.08701e-07 53.4801Z" fill="#7EFACD"/>
</g>
<g opacity="0.15">
<path opacity="0.15" d="M-4.08701e-07 40.5101L0 49.8601L17.83 39.4801L17.83 30.1201L-4.08701e-07 40.5101Z" fill="#7EFACD"/>
</g>
<g opacity="0.15">
<path opacity="0.15" d="M-4.09139e-07 27.5301L0 36.8901L17.83 26.5101L17.83 17.1501L-4.09139e-07 27.5301Z" fill="#7EFACD"/>
</g>
<g opacity="0.15">
<path opacity="0.15" d="M-4.08702e-07 15.2501L0 24.6001L17.83 14.2201L17.83 4.86011L-4.08702e-07 15.2501Z" fill="#7EFACD"/>
</g>
<path d="M-4.54161e-07 160.7L-8.62863e-07 151.35L17.83 161.73L17.83 171.09L-4.54161e-07 160.7Z" fill="#7EFACD"/>
<path d="M-4.53724e-07 173.68L-8.62863e-07 164.32L17.83 174.7L17.83 184.06L-4.53724e-07 173.68Z" fill="#7EFACD"/>
<path d="M-4.53724e-07 186.65L-8.62863e-07 177.29L17.83 187.68L17.83 197.03L-4.53724e-07 186.65Z" fill="#7EFACD"/>
<path d="M-4.54161e-07 199.62L-8.62863e-07 190.27L17.83 200.65L17.83 210.01L-4.54161e-07 199.62Z" fill="#7EFACD"/>
<path d="M-4.53724e-07 212.6L-8.62863e-07 203.24L17.83 213.62L17.83 222.98L-4.53724e-07 212.6Z" fill="#7EFACD"/>
<path d="M-4.53724e-07 225.57L-8.62426e-07 216.22L17.83 226.6L17.83 235.95L-4.53724e-07 225.57Z" fill="#7EFACD"/>
<g opacity="0.15">
<path opacity="0.15" d="M-4.54161e-07 238.54L-8.62863e-07 229.19L17.83 239.57L17.83 248.93L-4.54161e-07 238.54Z" fill="#7EFACD"/>
</g>
<g opacity="0.15">
<path opacity="0.15" d="M-4.54161e-07 251.28L-8.62863e-07 241.93L17.83 252.31L17.83 261.67L-4.54161e-07 251.28Z" fill="#7EFACD"/>
</g>
<path d="M13.22 5.24013L13.57 5.77013L20.64 1.1801L20.64 104.86L21.28 104.86L21.28 0.000106459L13.22 5.24013Z" fill="#7EFACD"/>
<path d="M20.96 83.0101L20.96 104.86L22.94 104.86L22.94 83.0101L20.96 83.0101Z" fill="#7EFACD"/>
<path d="M13.22 262.11L21.28 267.35L21.28 161.22L20.64 161.22L20.64 266.17L13.57 261.58L13.22 262.11Z" fill="#7EFACD"/>
<path d="M22.9399 183.07L22.9399 161.22L20.9599 161.22L20.9599 183.07L22.9399 183.07Z" fill="#7EFACD"/>
<path d="M21.1499 110.14L21.4099 109.69L41.0199 120.96L47.0999 120.96L53.5999 114.46L53.5999 52.8601L53.6799 52.7801L87.0999 19.3501L87.4699 19.7201L54.1199 53.0701L54.1199 114.67L47.3199 121.48L40.8799 121.48L21.1499 110.14Z" fill="#7EFACD"/>
<path d="M98.04 14.3L98.04 8.91992L92.66 8.91992L92.66 14.3L98.04 14.3Z" fill="#7EFACD"/>
<path d="M88.6499 18.3099L88.6499 4.91003L102.05 4.91003L102.05 18.3099L88.6499 18.3099ZM89.1699 5.43005L89.1699 17.7902L101.53 17.7902L101.53 5.43005L89.1699 5.43005Z" fill="#7EFACD"/>
<path d="M55.3501 51.4801C55.2501 51.9901 55.3501 100.39 55.3501 100.39L56.5201 101.56L56.5201 107.17C56.5201 107.17 53.8601 107.52 53.8601 107.17L53.8601 52.9701L55.3501 51.4801Z" fill="#7EFACD"/>
<path d="M48.4301 119.97C48.4301 119.97 38.8601 119.72 38.8601 119.97C38.8601 120.22 40.7601 121.14 40.8601 121.22C40.9601 121.3 47.2301 121.22 47.2301 121.22L48.4301 119.97Z" fill="#7EFACD"/>
<path d="M61.5301 45.3002L59.3001 45.3002L52.0701 52.5302L52.0701 69.6801L53.9401 71.5599C53.9401 71.5599 53.6901 52.7401 53.9401 52.4901L61.5301 45.3002Z" fill="#7EFACD"/>
<path d="M21.1499 156.08L40.8799 144.74L47.3199 144.74L54.1199 151.54L54.1199 213.14L87.4699 246.49L87.0999 246.86L53.5999 213.36L53.5999 151.76L47.0999 145.26L41.0199 145.26L21.4099 156.53L21.1499 156.08Z" fill="#7EFACD"/>
<path d="M92.6599 251.91L92.6599 257.29L98.0399 257.29L98.0399 251.91L92.6599 251.91Z" fill="#7EFACD"/>
<path d="M88.6499 261.31L88.6499 247.9L102.05 247.9L102.05 261.31L88.6499 261.31ZM89.1699 248.42L89.1699 260.78L101.53 260.78L101.53 248.42L89.1699 248.42Z" fill="#7EFACD"/>
<path d="M55.3501 214.74C55.2501 214.22 55.3501 165.83 55.3501 165.83L56.5201 164.66L56.5201 159.04C56.5201 159.04 53.8601 158.69 53.8601 159.04L53.8601 213.25L55.3501 214.74Z" fill="#7EFACD"/>
<path d="M48.4301 146.25C48.4301 146.25 38.8601 146.5 38.8601 146.25C38.8601 146 40.7601 145.07 40.8601 145C40.9601 144.93 47.2301 144.94 47.2301 144.94L48.4301 146.25Z" fill="#7EFACD"/>
<path d="M61.5301 220.92L59.3001 220.92L52.0701 213.68L52.0701 196.5L53.9401 194.63C53.9401 194.63 53.6901 213.44 53.9401 213.69C54.1901 213.94 61.5301 220.92 61.5301 220.92Z" fill="#7EFACD"/>
</svg>
