<svg width="103" height="268" viewBox="0 0 103 268" fill="none" xmlns="http://www.w3.org/2000/svg">
<path d="M18.9299 155.2L19.0899 155.11L27.3999 150.32L37.7399 144.32L37.7399 122.6L27.3999 116.6L18.9299 111.71L18.7699 111.81L0.129881 122.57L0.129882 144.29L18.9299 155.2ZM0.769881 123L18.9299 112.51L27.3999 117.4L37.0999 123L37.0999 144L27.3999 149.6L18.9299 154.49L0.769882 144L0.769881 123Z" fill="#7EFACD"/>
<path d="M8.29004 143.54L18.93 149.68L29.58 143.54L29.39 143.22L18.93 149.26L8.47004 143.22L8.29004 143.54Z" fill="#7EFACD"/>
<path d="M8.29004 122.9L8.47004 123.22L18.93 117.18L29.39 123.22L29.58 122.9L18.93 116.76L8.29004 122.9Z" fill="#7EFACD"/>
<path d="M24.4699 130.29L24.4699 136.69L18.9299 139.88L13.3999 136.69L13.3999 130.29L18.9299 127.1L24.4699 130.29Z" fill="#7EFACD"/>
<path d="M-4.09139e-07 105.37L0 114.73L17.83 104.35L17.83 94.9901L-4.09139e-07 105.37Z" fill="#7EFACD"/>
<path d="M-4.09139e-07 92.4001L0 101.76L17.83 91.3701L17.83 82.0201L-4.09139e-07 92.4001Z" fill="#7EFACD"/>
<path d="M-4.09138e-07 79.42L0 88.78L17.83 78.4L17.83 69.04L-4.09138e-07 79.42Z" fill="#7EFACD"/>
<path d="M-4.09139e-07 66.4501L0 75.8101L17.83 65.4201L17.83 56.0701L-4.09139e-07 66.4501Z" fill="#7EFACD"/>
<g opacity="0.15">
<path opacity="0.15" d="M-4.08701e-07 53.4801L0 62.8301L17.83 52.4501L17.83 43.1001L-4.08701e-07 53.4801Z" fill="#7EFACD"/>
</g>
<g opacity="0.15">
<path opacity="0.15" d="M-4.08701e-07 40.5101L0 49.8601L17.83 39.4801L17.83 30.1201L-4.08701e-07 40.5101Z" fill="#7EFACD"/>
</g>
<g opacity="0.15">
<path opacity="0.15" d="M-4.09139e-07 27.5301L0 36.8901L17.83 26.5101L17.83 17.1501L-4.09139e-07 27.5301Z" fill="#7EFACD"/>
</g>
<g opacity="0.15">
<path opacity="0.15" d="M-4.08702e-07 15.2501L0 24.6001L17.83 14.2201L17.83 4.86011L-4.08702e-07 15.2501Z" fill="#7EFACD"/>
</g>
<path d="M-4.54161e-07 160.7L-8.62863e-07 151.35L17.83 161.73L17.83 171.09L-4.54161e-07 160.7Z" fill="#7EFACD"/>
<path d="M-4.53724e-07 173.68L-8.62863e-07 164.32L17.83 174.7L17.83 184.06L-4.53724e-07 173.68Z" fill="#7EFACD"/>
<path d="M-4.53724e-07 186.65L-8.62863e-07 177.29L17.83 187.68L17.83 197.03L-4.53724e-07 186.65Z" fill="#7EFACD"/>
<path d="M-4.54161e-07 199.62L-8.62863e-07 190.27L17.83 200.65L17.83 210.01L-4.54161e-07 199.62Z" fill="#7EFACD"/>
<path d="M-4.53724e-07 212.6L-8.62863e-07 203.24L17.83 213.62L17.83 222.98L-4.53724e-07 212.6Z" fill="#7EFACD"/>
<path d="M-4.53724e-07 225.57L-8.62426e-07 216.22L17.83 226.6L17.83 235.95L-4.53724e-07 225.57Z" fill="#7EFACD"/>
<g opacity="0.15">
<path opacity="0.15" d="M-4.54161e-07 238.54L-8.62863e-07 229.19L17.83 239.57L17.83 248.93L-4.54161e-07 238.54Z" fill="#7EFACD"/>
</g>
<g opacity="0.15">
<path opacity="0.15" d="M-4.54161e-07 251.28L-8.62863e-07 241.93L17.83 252.31L17.83 261.67L-4.54161e-07 251.28Z" fill="#7EFACD"/>
</g>
<path d="M13.22 5.24013L13.57 5.77013L20.64 1.1801L20.64 104.86L21.28 104.86L21.28 0.000106459L13.22 5.24013Z" fill="#7EFACD"/>
<path d="M20.96 83.0101L20.96 104.86L22.94 104.86L22.94 83.0101L20.96 83.0101Z" fill="#7EFACD"/>
<path d="M13.22 262.11L21.28 267.35L21.28 161.22L20.64 161.22L20.64 266.17L13.57 261.58L13.22 262.11Z" fill="#7EFACD"/>
<path d="M22.9399 183.07L22.9399 161.22L20.9599 161.22L20.9599 183.07L22.9399 183.07Z" fill="#7EFACD"/>
<path d="M21.1499 110.14L21.4099 109.69L41.0199 120.96L47.0999 120.96L53.5999 114.46L53.5999 52.8601L53.6799 52.7801L87.0999 19.3501L87.4699 19.7201L54.1199 53.0701L54.1199 114.67L47.3199 121.48L40.8799 121.48L21.1499 110.14Z" fill="#7EFACD"/>
<path d="M98.04 14.3L98.04 8.91992L92.66 8.91992L92.66 14.3L98.04 14.3Z" fill="#7EFACD"/>
<path d="M88.6499 18.3099L88.6499 4.91003L102.05 4.91003L102.05 18.3099L88.6499 18.3099ZM89.1699 5.43005L89.1699 17.7902L101.53 17.7902L101.53 5.43005L89.1699 5.43005Z" fill="#7EFACD"/>
<path d="M55.3501 51.4801C55.2501 51.9901 55.3501 100.39 55.3501 100.39L56.5201 101.56L56.5201 107.17C56.5201 107.17 53.8601 107.52 53.8601 107.17L53.8601 52.9701L55.3501 51.4801Z" fill="#7EFACD"/>
<path d="M48.4301 119.97C48.4301 119.97 38.8601 119.72 38.8601 119.97C38.8601 120.22 40.7601 121.14 40.8601 121.22C40.9601 121.3 47.2301 121.22 47.2301 121.22L48.4301 119.97Z" fill="#7EFACD"/>
<path d="M61.5301 45.3002L59.3001 45.3002L52.0701 52.5302L52.0701 69.6801L53.9401 71.5599C53.9401 71.5599 53.6901 52.7401 53.9401 52.4901L61.5301 45.3002Z" fill="#7EFACD"/>
<path d="M21.1499 156.08L40.8799 144.74L47.3199 144.74L54.1199 151.54L54.1199 213.14L87.4699 246.49L87.0999 246.86L53.5999 213.36L53.5999 151.76L47.0999 145.26L41.0199 145.26L21.4099 156.53L21.1499 156.08Z" fill="#7EFACD"/>
<path d="M92.6599 251.91L92.6599 257.29L98.0399 257.29L98.0399 251.91L92.6599 251.91Z" fill="#7EFACD"/>
<path d="M88.6499 261.31L88.6499 247.9L102.05 247.9L102.05 261.31L88.6499 261.31ZM89.1699 248.42L89.1699 260.78L101.53 260.78L101.53 248.42L89.1699 248.42Z" fill="#7EFACD"/>
<path d="M55.3501 214.74C55.2501 214.22 55.3501 165.83 55.3501 165.83L56.5201 164.66L56.5201 159.04C56.5201 159.04 53.8601 158.69 53.8601 159.04L53.8601 213.25L55.3501 214.74Z" fill="#7EFACD"/>
<path d="M48.4301 146.25C48.4301 146.25 38.8601 146.5 38.8601 146.25C38.8601 146 40.7601 145.07 40.8601 145C40.9601 144.93 47.2301 144.94 47.2301 144.94L48.4301 146.25Z" fill="#7EFACD"/>
<path d="M61.5301 220.92L59.3001 220.92L52.0701 213.68L52.0701 196.5L53.9401 194.63C53.9401 194.63 53.6901 213.44 53.9401 213.69C54.1901 213.94 61.5301 220.92 61.5301 220.92Z" fill="#7EFACD"/>
<path d="M30.1885 17H25.8203V7.13574H30.1133C31.0384 7.13574 31.7721 7.35677 32.3145 7.79883C32.8568 8.24089 33.1279 8.84017 33.1279 9.59668C33.1279 10.1344 32.9502 10.6061 32.5947 11.0117C32.2438 11.4173 31.804 11.6589 31.2754 11.7363V11.791C31.9499 11.8411 32.5059 12.0895 32.9434 12.5361C33.3809 12.9827 33.5996 13.5296 33.5996 14.1768C33.5996 15.0472 33.2943 15.7354 32.6836 16.2412C32.0729 16.7471 31.2412 17 30.1885 17ZM27.8848 8.67383V11.2373H29.3682C29.9196 11.2373 30.3457 11.1234 30.6465 10.8955C30.9473 10.6631 31.0977 10.3372 31.0977 9.91797C31.0977 9.52148 30.9655 9.21615 30.7012 9.00195C30.4368 8.7832 30.0632 8.67383 29.5801 8.67383H27.8848ZM27.8848 15.4619H29.6621C30.2591 15.4619 30.7126 15.3389 31.0225 15.0928C31.3369 14.8421 31.4941 14.4821 31.4941 14.0127C31.4941 13.5524 31.3324 13.2015 31.0088 12.96C30.6898 12.7184 30.2249 12.5977 29.6143 12.5977H27.8848V15.4619ZM36.8398 17H34.7754V7.13574H36.8398V17ZM39.4512 8.33887C40.3079 7.42285 41.4678 6.96484 42.9307 6.96484C44.3936 6.96484 45.5511 7.42285 46.4033 8.33887C47.2601 9.25488 47.6885 10.499 47.6885 12.0713C47.6885 13.639 47.2601 14.8809 46.4033 15.7969C45.5465 16.7129 44.389 17.1709 42.9307 17.1709C41.4678 17.1709 40.3079 16.7129 39.4512 15.7969C38.599 14.8809 38.1729 13.639 38.1729 12.0713C38.1729 10.499 38.599 9.25488 39.4512 8.33887ZM44.8584 9.60352C44.3799 8.99284 43.7373 8.6875 42.9307 8.6875C42.124 8.6875 41.4792 8.99284 40.9961 9.60352C40.5176 10.2142 40.2783 11.0368 40.2783 12.0713C40.2783 13.1012 40.5176 13.9215 40.9961 14.5322C41.4746 15.1383 42.1195 15.4414 42.9307 15.4414C43.7373 15.4414 44.3799 15.1383 44.8584 14.5322C45.3369 13.9215 45.5762 13.1012 45.5762 12.0713C45.5762 11.0368 45.3369 10.2142 44.8584 9.60352Z" fill="#7EFACD"/>
</svg>
