<svg width="366" height="58" viewBox="0 0 366 58" fill="none" xmlns="http://www.w3.org/2000/svg">
<path d="M346.249 43.9686H166.637L166.531 43.8775L134.716 12.0481V0H135.43V11.7594L166.926 43.2698H345.96L357.765 31.4648L358.267 31.9661L346.249 43.9686Z" fill="#7EFACD"/>
<path d="M359.437 26.6486C359.437 26.0657 359.61 25.4957 359.934 25.011C360.258 24.5263 360.718 24.1486 361.256 23.9255C361.795 23.7024 362.388 23.6439 362.959 23.7577C363.531 23.8714 364.056 24.1522 364.469 24.5644C364.881 24.9766 365.161 25.5018 365.275 26.0735C365.389 26.6453 365.33 27.2379 365.107 27.7764C364.884 28.315 364.506 28.7755 364.022 29.0993C363.537 29.4232 362.967 29.596 362.384 29.596C361.603 29.596 360.853 29.2854 360.3 28.7327C359.747 28.1799 359.437 27.4303 359.437 26.6486Z" fill="#7EFACD"/>
<path d="M135.081 6.95837L136.449 8.32578V11.729L145.473 20.7538C145.504 21.2597 145.504 21.7671 145.473 22.2731L135.036 11.8355L135.081 6.95837Z" fill="#7EFACD"/>
<path d="M163.553 40.3832V42.1L166.759 45.3057H191.371L193.179 43.4978C192.875 43.8017 166.789 43.4978 166.789 43.4978L163.553 40.3832Z" fill="#7EFACD"/>
<path d="M252.144 32.1941H175.845L171.469 34.5946V37.5572H195.763L196.72 38.6663H253.846L255.73 37.5572L252.144 32.1941Z" fill="#7EFACD"/>
<path d="M309.695 20.2676H266.608L265.195 23.4277H311.108L309.695 20.2676Z" fill="#7EFACD"/>
<path d="M327.942 40.1703H221.12C221.076 40.1703 221.033 40.1526 221.002 40.1213C220.97 40.09 220.953 40.0475 220.953 40.0032C220.953 39.9588 220.97 39.9164 221.002 39.885C221.033 39.8537 221.076 39.8361 221.12 39.8361H327.942C327.986 39.8361 328.029 39.8537 328.06 39.885C328.091 39.9164 328.109 39.9588 328.109 40.0032C328.109 40.0475 328.091 40.09 328.06 40.1213C328.029 40.1526 327.986 40.1703 327.942 40.1703Z" fill="#7EFACD"/>
<path d="M261.807 35.5061H256.641C256.535 35.5061 256.489 35.4301 256.55 35.3238L260.971 27.4083C260.998 27.3547 261.039 27.3094 261.09 27.2773C261.141 27.2452 261.2 27.2276 261.26 27.226H266.425C266.531 27.226 266.562 27.2259 266.425 27.4083L262.019 35.3238C261.998 35.3667 261.968 35.4049 261.931 35.4362C261.895 35.4675 261.852 35.4912 261.807 35.5061Z" fill="#7EFACD"/>
<path d="M269.479 35.5061H264.313C264.207 35.5061 264.177 35.4301 264.222 35.3238L268.644 27.4083C268.673 27.3566 268.715 27.313 268.765 27.2812C268.816 27.2494 268.873 27.2305 268.932 27.226H274.098C274.204 27.226 274.234 27.2259 274.189 27.4083L269.768 35.3238C269.738 35.3754 269.696 35.419 269.646 35.4508C269.596 35.4826 269.538 35.5016 269.479 35.5061Z" fill="#7EFACD"/>
<path d="M277.212 35.5061H272.047C271.94 35.5061 271.91 35.4301 271.956 35.3238L276.377 27.4083C276.406 27.3566 276.448 27.313 276.498 27.2812C276.549 27.2494 276.606 27.2305 276.665 27.226H281.831C281.937 27.226 281.983 27.2259 281.922 27.4083L277.501 35.3238C277.474 35.3773 277.433 35.4224 277.382 35.4545C277.331 35.4866 277.272 35.5044 277.212 35.5061Z" fill="#7EFACD"/>
<path d="M284.808 35.5061H279.643C279.552 35.5061 279.506 35.4301 279.567 35.3238L283.973 27.4083C284.003 27.3575 284.045 27.3144 284.095 27.2827C284.145 27.251 284.202 27.2317 284.261 27.226H289.427C289.533 27.226 289.579 27.2259 289.518 27.4083L285.097 35.3238C285.07 35.3773 285.029 35.4224 284.978 35.4545C284.927 35.4866 284.868 35.5044 284.808 35.5061Z" fill="#7EFACD"/>
<path d="M292.512 35.5061H287.346C287.239 35.5061 287.194 35.4301 287.255 35.3238L291.676 27.4083C291.703 27.3547 291.744 27.3094 291.795 27.2773C291.846 27.2452 291.904 27.2276 291.964 27.226H297.13C297.221 27.226 297.267 27.2259 297.13 27.4083L292.724 35.3238C292.679 35.4094 292.603 35.4746 292.512 35.5061Z" fill="#7EFACD"/>
<path d="M300.184 35.5061H295.018C294.912 35.5061 294.866 35.4301 294.927 35.3238L299.349 27.4083C299.376 27.3547 299.417 27.3094 299.468 27.2773C299.518 27.2452 299.577 27.2276 299.637 27.226H304.803C304.909 27.226 304.939 27.2259 304.894 27.4083L300.473 35.3238C300.443 35.3754 300.401 35.419 300.351 35.4508C300.301 35.4826 300.244 35.5016 300.184 35.5061Z" fill="#7EFACD"/>
<g opacity="0.22">
<path opacity="0.22" d="M307.857 35.5061H302.691C302.585 35.5061 302.555 35.4301 302.6 35.3238L307.021 27.4083C307.051 27.3566 307.093 27.313 307.143 27.2812C307.193 27.2494 307.251 27.2305 307.31 27.226H312.476C312.582 27.226 312.612 27.2259 312.567 27.4083L308.146 35.3238C308.116 35.3754 308.074 35.419 308.024 35.4508C307.974 35.4826 307.916 35.5016 307.857 35.5061Z" fill="#7EFACD"/>
</g>
<g opacity="0.22">
<path opacity="0.22" d="M315.529 35.5061H310.364C310.257 35.5061 310.227 35.4301 310.288 35.3238L314.694 27.4083C314.723 27.3566 314.765 27.313 314.815 27.2812C314.866 27.2494 314.923 27.2305 314.983 27.226H320.148C320.254 27.226 320.3 27.2259 320.239 27.4083L315.818 35.3238C315.791 35.3773 315.75 35.4224 315.699 35.4545C315.648 35.4866 315.589 35.5044 315.529 35.5061Z" fill="#7EFACD"/>
</g>
<g opacity="0.22">
<path opacity="0.22" d="M323.217 35.5061H318.036C317.945 35.5061 317.899 35.4301 318.036 35.3238L322.442 27.4083C322.472 27.3575 322.514 27.3144 322.565 27.2827C322.615 27.251 322.671 27.2317 322.73 27.226H327.911C328.003 27.226 328.048 27.2259 327.911 27.4083L323.505 35.3238C323.475 35.3746 323.433 35.4175 323.382 35.4491C323.332 35.4808 323.276 35.5003 323.217 35.5061Z" fill="#7EFACD"/>
</g>
<path d="M324.767 37.9826H201.627C201.539 37.9826 201.454 37.9474 201.391 37.8847C201.328 37.822 201.293 37.7371 201.293 37.6484C201.293 37.5598 201.328 37.4746 201.391 37.412C201.454 37.3493 201.539 37.314 201.627 37.314H324.311L328.869 28.0767C328.908 27.999 328.976 27.9397 329.058 27.9113C329.141 27.8829 329.231 27.8878 329.309 27.9248C329.391 27.9644 329.454 28.034 329.485 28.119C329.516 28.204 329.513 28.2977 329.476 28.3805L324.767 37.9826Z" fill="#7EFACD"/>
<path d="M327.607 35.8403H327.456C327.378 35.801 327.319 35.7332 327.29 35.6509C327.262 35.5686 327.267 35.4785 327.304 35.3998L331.542 26.1623H274.174C274.085 26.1623 274 26.1271 273.937 26.0644C273.875 26.0017 273.839 25.9167 273.839 25.8281C273.839 25.7395 273.875 25.6545 273.937 25.5918C274 25.5291 274.085 25.4939 274.174 25.4939H332.606L327.942 35.6732C327.907 35.7298 327.858 35.7756 327.799 35.8052C327.74 35.8348 327.673 35.8469 327.607 35.8403Z" fill="#7EFACD"/>
<path d="M210.682 41.3858H181.025C180.981 41.3858 180.938 41.3682 180.907 41.3369C180.876 41.3055 180.858 41.2631 180.858 41.2187C180.858 41.1744 180.876 41.1319 180.907 41.1006C180.938 41.0693 180.981 41.0516 181.025 41.0516H210.682C210.726 41.0516 210.769 41.0693 210.8 41.1006C210.831 41.1319 210.849 41.1744 210.849 41.2187C210.849 41.2631 210.831 41.3055 210.8 41.3369C210.769 41.3682 210.726 41.3858 210.682 41.3858Z" fill="#7EFACD"/>
<path d="M181.025 41.7504H168.232V33.3182L178.062 26.7245H194.106C194.239 26.7245 194.367 26.7773 194.461 26.8714C194.555 26.9654 194.607 27.093 194.607 27.226C194.607 27.3589 194.555 27.4864 194.461 27.5804C194.367 27.6744 194.239 27.7273 194.106 27.7273H178.366L169.25 33.8045V40.7022H181.04C181.173 40.7022 181.301 40.7549 181.395 40.8489C181.489 40.9429 181.542 41.0705 181.542 41.2035C181.542 41.3365 181.489 41.4641 181.395 41.5581C181.301 41.6521 181.173 41.7048 181.04 41.7048L181.025 41.7504Z" fill="#7EFACD"/>
<path d="M251.657 27.3931H194.106C194.062 27.3931 194.019 27.3755 193.988 27.3441C193.957 27.3128 193.939 27.2703 193.939 27.226C193.939 27.1817 193.957 27.139 193.988 27.1077C194.019 27.0763 194.062 27.0587 194.106 27.0587H251.657C251.702 27.0587 251.744 27.0763 251.776 27.1077C251.807 27.139 251.825 27.1817 251.825 27.226C251.825 27.2703 251.807 27.3128 251.776 27.3441C251.744 27.3755 251.702 27.3931 251.657 27.3931Z" fill="#7EFACD"/>
<path d="M255.531 30.3708H182.377C182.244 30.3708 182.116 30.318 182.022 30.2239C181.928 30.1299 181.875 30.0025 181.875 29.8695C181.875 29.7365 181.928 29.6089 182.022 29.5149C182.116 29.4209 182.244 29.368 182.377 29.368H254.985L259.011 22.9414H317.382C317.515 22.9414 317.643 22.9943 317.737 23.0883C317.831 23.1823 317.884 23.3097 317.884 23.4427C317.884 23.5757 317.831 23.7033 317.737 23.7973C317.643 23.8913 317.515 23.9442 317.382 23.9442H259.572L255.531 30.3708Z" fill="#7EFACD"/>
<path d="M156.2 56.4422H36.4482L6.16846 26.1473L6.91292 25.4028L36.8888 55.3787H155.759L165.163 45.9894L165.908 46.7338L156.2 56.4422Z" fill="#7EFACD"/>
<path d="M0 22.0908C0 21.5078 0.172797 20.9379 0.496667 20.4531C0.820536 19.9684 1.2808 19.5907 1.81938 19.3676C2.35796 19.1446 2.95054 19.0861 3.52229 19.1998C4.09404 19.3135 4.61937 19.5943 5.03158 20.0066C5.44379 20.4188 5.72461 20.9439 5.83834 21.5157C5.95206 22.0874 5.89339 22.68 5.67031 23.2186C5.44722 23.7571 5.06969 24.2176 4.58499 24.5415C4.10028 24.8653 3.53031 25.0381 2.94736 25.0381C2.16565 25.0381 1.41589 24.7276 0.863139 24.1748C0.310385 23.6221 0 22.8725 0 22.0908Z" fill="#7EFACD"/>
<path d="M27.5142 46.7642H31.1911C31.1911 46.7642 37.9062 53.7225 38.1493 53.7225H65.4967L67.6392 55.8648H36.6604L27.5142 46.7642Z" fill="#7EFACD"/>
<path d="M39.9888 55.8647C39.9888 55.8647 41.9031 57.384 41.9031 57.7639C41.9031 58.1437 91.0371 57.7639 91.0371 57.7639C91.0371 57.7639 93.0881 55.9558 92.8602 55.9558H41.0978L39.9888 55.8647Z" fill="#7EFACD"/>
</svg>
