<svg width="311" height="82" viewBox="0 0 311 82" fill="none" xmlns="http://www.w3.org/2000/svg">
<path d="M301.973 58.0985L301.472 57.5974L306.677 52.3889V12.3456L298.149 3.7963H172.146L166.563 9.39963H14.7796L2.76196 21.4415L2.26123 20.9404L14.4913 8.70111H166.274L171.858 3.09778H298.438L307.39 12.057V52.6774L301.973 58.0985Z" fill="#7EFACD"/>
<path d="M159.901 5.01111C161.284 5.01111 162.405 3.88934 162.405 2.50556C162.405 1.12178 161.284 0 159.901 0C158.518 0 157.397 1.12178 157.397 2.50556C157.397 3.88934 158.518 5.01111 159.901 5.01111Z" fill="#7EFACD"/>
<path d="M299.484 57.8556C299.481 57.3564 299.627 56.8674 299.902 56.4509C300.176 56.0344 300.569 55.709 301.029 55.5159C301.489 55.3228 301.995 55.2706 302.485 55.3662C302.975 55.4617 303.425 55.7006 303.779 56.0526C304.132 56.4045 304.374 56.8537 304.473 57.3431C304.571 57.8325 304.522 58.34 304.332 58.8015C304.142 59.263 303.819 59.6576 303.404 59.9352C302.99 60.2129 302.502 60.3612 302.003 60.3612C301.673 60.3632 301.346 60.2998 301.04 60.1747C300.735 60.0497 300.457 59.8656 300.223 59.6327C299.989 59.3999 299.803 59.1228 299.676 58.8179C299.55 58.5129 299.484 58.1859 299.484 57.8556Z" fill="#7EFACD"/>
<path d="M144.469 5.01111C145.852 5.01111 146.973 3.88934 146.973 2.50556C146.973 1.12178 145.852 0 144.469 0C143.087 0 141.966 1.12178 141.966 2.50556C141.966 3.88934 143.087 5.01111 144.469 5.01111Z" fill="#7EFACD"/>
<path d="M129.052 5.01111C130.435 5.01111 131.556 3.88934 131.556 2.50556C131.556 1.12178 130.435 0 129.052 0C127.67 0 126.549 1.12178 126.549 2.50556C126.549 3.88934 127.67 5.01111 129.052 5.01111Z" fill="#7EFACD"/>
<path d="M113.621 5.01111C115.004 5.01111 116.125 3.88934 116.125 2.50556C116.125 1.12178 115.004 0 113.621 0C112.238 0 111.117 1.12178 111.117 2.50556C111.117 3.88934 112.238 5.01111 113.621 5.01111Z" fill="#7EFACD"/>
<path d="M98.1892 5.01111C99.572 5.01111 100.693 3.88934 100.693 2.50556C100.693 1.12178 99.572 0 98.1892 0C96.8065 0 95.6855 1.12178 95.6855 2.50556C95.6855 3.88934 96.8065 5.01111 98.1892 5.01111Z" fill="#7EFACD"/>
<path d="M80.269 2.52057C80.269 2.02501 80.4159 1.54069 80.691 1.12865C80.9661 0.716616 81.3571 0.395354 81.8146 0.205715C82.2721 0.016075 82.7755 -0.0335093 83.2612 0.0631681C83.7469 0.159846 84.1928 0.398429 84.543 0.748837C84.8931 1.09925 85.1317 1.54573 85.2283 2.03176C85.3249 2.51779 85.2752 3.02163 85.0857 3.47946C84.8962 3.93729 84.5753 4.32858 84.1636 4.60389C83.7519 4.87921 83.2677 5.02616 82.7726 5.02616C82.4438 5.02616 82.1183 4.96133 81.8146 4.83542C81.5108 4.7095 81.2347 4.52496 81.0022 4.29229C80.7697 4.05963 80.5853 3.78345 80.4595 3.47946C80.3336 3.17548 80.269 2.8496 80.269 2.52057Z" fill="#7EFACD"/>
<path d="M64.8374 2.52057C64.8374 2.02501 64.9842 1.54069 65.2593 1.12865C65.5345 0.716616 65.9258 0.395354 66.3833 0.205715C66.8408 0.016075 67.3439 -0.0335093 67.8296 0.0631681C68.3152 0.159846 68.7615 0.398429 69.1117 0.748837C69.4618 1.09925 69.7001 1.54573 69.7967 2.03176C69.8933 2.51779 69.8439 3.02163 69.6544 3.47946C69.4649 3.93729 69.1441 4.32858 68.7323 4.60389C68.3206 4.87921 67.8365 5.02616 67.3413 5.02616C67.0125 5.02616 66.6871 4.96133 66.3833 4.83542C66.0795 4.7095 65.8034 4.52496 65.5709 4.29229C65.3384 4.05963 65.154 3.78345 65.0282 3.47946C64.9024 3.17548 64.8374 2.8496 64.8374 2.52057Z" fill="#7EFACD"/>
<path d="M51.9094 5.01111C53.2922 5.01111 54.4131 3.88934 54.4131 2.50556C54.4131 1.12178 53.2922 0 51.9094 0C50.5267 0 49.4058 1.12178 49.4058 2.50556C49.4058 3.88934 50.5267 5.01111 51.9094 5.01111Z" fill="#7EFACD"/>
<path d="M36.4778 5.01111C37.8605 5.01111 38.9815 3.88934 38.9815 2.50556C38.9815 1.12178 37.8605 0 36.4778 0C35.0951 0 33.9741 1.12178 33.9741 2.50556C33.9741 3.88934 35.0951 5.01111 36.4778 5.01111Z" fill="#7EFACD"/>
<path d="M21.0613 5.01111C22.444 5.01111 23.565 3.88934 23.565 2.50556C23.565 1.12178 22.444 0 21.0613 0C19.6785 0 18.5576 1.12178 18.5576 2.50556C18.5576 3.88934 19.6785 5.01111 21.0613 5.01111Z" fill="#7EFACD"/>
<path d="M2.50367 23.9926C3.88641 23.9926 5.00734 22.8708 5.00734 21.487C5.00734 20.1032 3.88641 18.9814 2.50367 18.9814C1.12093 18.9814 0 20.1032 0 21.487C0 22.8708 1.12093 23.9926 2.50367 23.9926Z" fill="#7EFACD"/>
<path d="M2.50383 46.5273H45.2178L48.4044 49.7012H55.5208L60.5586 54.7426H151.783L152.785 55.7449H121.208L118.507 58.4479H61.8937L59.3294 55.8815H50.2252L44.7169 50.3692C44.7169 50.3692 2.38232 50.5515 2.38232 50.3692C2.38232 50.187 2.50383 46.5273 2.50383 46.5273Z" fill="#7EFACD"/>
<path d="M310.667 15.6104H309.954V10.8118L300.364 1.19962H287.497V0.501099H300.653L310.667 10.5081V15.6104Z" fill="#7EFACD"/>
<path d="M203.04 59.951H123.788V60.6648H203.04V59.951Z" fill="#7EFACD"/>
<path d="M211.583 26.559V53.8163C209.428 51.6904 207.107 49.3974 205.665 47.9244V26.6652L211.583 26.559Z" fill="#7EFACD"/>
<path d="M221.916 20.2418H215.999V58.8881H221.916V20.2418Z" fill="#7EFACD"/>
<path d="M232.249 46.2844H226.332V58.8881H232.249V46.2844Z" fill="#7EFACD"/>
<path d="M242.583 27.5459H236.665V58.8881H242.583V27.5459Z" fill="#7EFACD"/>
<path d="M252.901 37.1581H246.983V58.8881H252.901V37.1581Z" fill="#7EFACD"/>
<path d="M263.234 19.1788H257.316V58.8881H263.234V19.1788Z" fill="#7EFACD"/>
<path d="M273.568 21.5326H267.65V58.8881H273.568V21.5326Z" fill="#7EFACD"/>
<path d="M283.901 38.1604H277.983V58.9034H283.901V38.1604Z" fill="#7EFACD"/>
<path d="M294.234 44.5229V53.0874L288.423 58.8881H288.316V44.5229H294.234Z" fill="#7EFACD"/>
</svg>
