<svg width="185" height="49" viewBox="0 0 185 49" fill="none" xmlns="http://www.w3.org/2000/svg">
<path d="M15.0659 28.492L13.5339 31.0393H3.00002V10.6317L4.97262 15.1004V28.1717L15.0659 28.492Z" fill="#7EFACD"/>
<path d="M98.6231 4.13392L102.568 0H114.854V16.885L111.34 21.9942V4.13392H98.6231Z" fill="#7EFACD"/>
<path d="M184.705 48.1317C184.707 48.1908 184.902 48.0702 184.844 48.1139C184.556 48.3306 184.476 48.3521 184.392 48.3521C184.309 48.3521 184.228 48.3306 184.167 48.2919L175.15 41.7555C175.116 41.7358 175.089 41.7112 175.072 41.6834C175.054 41.6557 175.046 41.6255 175.048 41.5953L175.048 0.440707L112.873 0.440704C112.788 0.440704 112.707 0.417511 112.647 0.376198C112.586 0.334885 112.553 0.278839 112.553 0.220413C112.553 0.161987 112.586 0.105972 112.647 0.0646591C112.707 0.023346 112.788 0.000122081 112.873 0.000122084L175.368 0.000124816C175.453 0.00012482 175.534 0.0233487 175.594 0.0646619C175.654 0.105975 175.688 0.16199 175.688 0.220416L175.688 41.5051L184.618 47.9815C184.673 48.0221 184.705 48.0758 184.705 48.1317Z" fill="#7EFACD"/>
<path d="M178.354 44L175.354 41.5L174.924 -4.57764e-05L177.151 1.90246L177.151 12.136L178.854 13.8883L178.854 36.2578L176.729 40.0628L178.354 44Z" fill="#7EFACD"/>
<defs>
<filter id="filter0_d_715_640" x="0.854492" y="2" width="115" height="34" filterUnits="userSpaceOnUse" color-interpolation-filters="sRGB">
<feFlood flood-opacity="0" result="BackgroundImageFix"/>
<feColorMatrix in="SourceAlpha" type="matrix" values="0 0 0 0 0 0 0 0 0 0 0 0 0 0 0 0 0 0 127 0" result="hardAlpha"/>
<feOffset dy="3"/>
<feGaussianBlur stdDeviation="2"/>
<feColorMatrix type="matrix" values="0 0 0 0 0.0117647 0 0 0 0 0.180392 0 0 0 0 0.909804 0 0 0 0.21 0"/>
<feBlend mode="normal" in2="BackgroundImageFix" result="effect1_dropShadow_715_640"/>
<feBlend mode="normal" in="SourceGraphic" in2="effect1_dropShadow_715_640" result="shape"/>
</filter>
</defs>
</svg>
