<svg width="381" height="511" viewBox="0 0 381 511" fill="none" xmlns="http://www.w3.org/2000/svg">
<path d="M367 71.0152V304.2L355.272 356.82V471.637L344.255 496.736H282.503L270.933 488.37H101.913L87.8653 494.342H49.2012L32.8079 470.427V423.779L42.1642 396.285V250.397L25.7709 228.875V151.156H21.0796V22H343.833L367 71.0152Z" fill="#0A101B"/>
<path d="M19.7948 21.0104V151.807H24.4862V229.015L40.8795 250.537V395.995L31.523 423.515V470.54L48.312 495.02H87.5292L101.603 489.048H270.281L281.851 497.415H344.367L355.673 471.643V356.772L367.402 304.152V70.671V70.5098L344.024 21.0104H19.7948ZM21.4028 150.139V22.6244H342.944L365.794 71.0477V303.964L354.066 356.584V471.293L343.339 495.774H282.352L270.781 487.407H101.366L87.2924 493.379H49.2083L33.2101 470.029V423.784L42.5666 396.264V249.972L26.1733 228.45V150.166L21.4028 150.139Z" fill="#7EFACD"/>
<path d="M381 163.052V177.068H372.882V180.888H381V189.174H372.882V192.994H381V201.279H372.882V205.1H381V213.385H372.882V217.205H381V225.491H372.882V229.311H381V240.153H372.882V287.904L366.03 308.349V177.821L366.531 70.8596L381 163.052Z" fill="#7EFACD"/>
<path d="M332.743 501.638V511H327.683V504.49H324.757V511H318.379V504.49H315.427V511H309.049V504.49H306.124V511H299.746V504.49H296.794V511H290.416V504.49H287.49V511H283.721V501.638H332.743Z" fill="#7EFACD"/>
<path d="M19.3711 147.073L19.3183 152.238H4.37463V147.799H12.4922V144.113H4.37463V136.123H12.4922V132.438H4.37463V124.448H12.4922V120.763H4.37463V112.773H12.4922V109.087H4.37463V101.097H12.4922V97.4118H4.37463V86.9739H12.4922V40.8911L19.3711 21.172V147.073Z" fill="#7EFACD"/>
<path d="M344.418 496.581L335.352 503.226H276.684L265.957 494.94H102.34L88.4501 500.67H58.7997L46.8605 494.186L84.0487 493.675L100.152 488.214H270.279L281.981 496.581H344.418Z" fill="#7EFACD"/>
<path d="M346.686 359.247H352.932L354.804 360.538V471.481L346.686 464.272V359.247Z" fill="#7EFACD"/>
<path d="M279.268 26.7408L263.692 31.2064H66.7871L57.6153 21.8446H343.365L333.587 26.7408H279.268Z" fill="#7EFACD"/>
<path d="M32.3399 470.271L21.2442 459.268V413.4L33.0779 391.099V333.771L36.2142 321.046V266.893L41.1955 250.967L41.6963 396.129L32.3399 423.623V470.271Z" fill="#7EFACD"/>
<path d="M17.6847 466.289C17.662 466.368 17.662 466.452 17.6847 466.531L42.6442 501.504L51.3939 506.615H51.5785H92.7724H92.9307L104.712 501.558H257.101L265.008 506.588C265.082 506.662 265.181 506.703 265.285 506.703C265.388 506.703 265.488 506.662 265.561 506.588C265.59 506.542 265.61 506.491 265.619 506.438C265.628 506.385 265.625 506.33 265.613 506.277C265.601 506.224 265.578 506.175 265.547 506.131C265.515 506.087 265.475 506.051 265.43 506.023L257.312 500.939C257.245 500.912 257.169 500.912 257.101 500.939H104.237L92.4565 505.996H51.4466L42.881 500.993L17.9749 466.02C17.901 465.946 17.8017 465.905 17.6982 465.905C17.5947 465.905 17.4954 465.946 17.4215 466.02C17.4439 466.082 17.479 466.137 17.5244 466.184C17.5699 466.23 17.6244 466.266 17.6847 466.289V466.289Z" fill="#7EFACD"/>
<path d="M350.638 499.405C350.633 499.486 350.653 499.566 350.696 499.634C350.739 499.701 350.802 499.753 350.875 499.782C350.974 499.82 351.082 499.819 351.18 499.779C351.277 499.739 351.356 499.663 351.402 499.567L361.945 472.665C361.945 472.665 361.945 472.665 361.945 472.504V357.956L380.024 289.221V247.712C380.025 247.657 380.014 247.602 379.992 247.551C379.971 247.5 379.939 247.455 379.9 247.417C379.86 247.379 379.814 247.35 379.763 247.331C379.711 247.313 379.657 247.305 379.603 247.309C379.498 247.309 379.398 247.351 379.324 247.427C379.25 247.502 379.208 247.605 379.208 247.712V289.06L361.127 357.794V472.369L350.585 499.056C350.563 499.113 350.556 499.176 350.565 499.238C350.574 499.299 350.599 499.357 350.638 499.405V499.405Z" fill="#7EFACD"/>
<path d="M377.696 24.8303V20.3647L367.707 0H329.017L318.422 4.4387H176.443L165.189 8.25888H368.946L377.696 24.8303Z" fill="#7EFACD"/>
<path d="M176.006 501.934L169.127 505.755H107.981L96.1213 510.22H54.9272L51.8172 506.4H93.0114L104.845 501.316L176.006 501.934Z" fill="#7EFACD"/>
<path d="M16.4477 170.72V266.894C16.4477 267.001 16.4894 267.103 16.5635 267.179C16.6377 267.255 16.7386 267.297 16.8434 267.297H28.3078V323.522L24.5919 332.991C24.5796 333.044 24.5796 333.1 24.5919 333.153V391.664L20.2692 401.134C20.2428 401.181 20.2271 401.233 20.2222 401.286C20.2173 401.34 20.2234 401.395 20.2409 401.446C20.2584 401.497 20.2865 401.543 20.3232 401.582C20.36 401.621 20.4046 401.652 20.4539 401.672C20.5482 401.718 20.6568 401.724 20.7556 401.689C20.8545 401.653 20.9353 401.58 20.9808 401.483L25.3563 391.933C25.3691 391.871 25.3691 391.807 25.3563 391.745V333.234L29.0723 323.737V267.028C29.0723 266.975 29.0619 266.922 29.042 266.874C29.0222 266.825 28.9932 266.78 28.9564 266.743C28.9197 266.705 28.8764 266.675 28.8284 266.655C28.7804 266.635 28.7291 266.625 28.6772 266.625H17.2385V170.854C17.2386 170.799 17.2278 170.744 17.2064 170.693C17.1849 170.642 17.1532 170.596 17.1137 170.559C17.0741 170.521 17.027 170.492 16.976 170.473C16.9249 170.455 16.8712 170.447 16.8171 170.451C16.736 170.451 16.6566 170.477 16.5906 170.525C16.5246 170.574 16.4748 170.641 16.4477 170.72V170.72Z" fill="#7EFACD"/>
<path d="M24.988 371.353L19.3742 380.284V328.04L23.7229 318.49V271.977H13.1279V228.047L16.2379 219.115L16.8704 266.893H28.7305V323.575L24.988 333.152V371.353Z" fill="#7EFACD"/>
<path d="M3.34769 31.7708V66.232H4.16471V31.9052L13.3893 6.77902H94.249V5.94507H12.8358L3.34769 31.7708Z" fill="#7EFACD"/>
<path d="M61.8572 0L68.0244 5.7301H13.1252L3.76887 31.8518V44.5763L6.17118e-07 39.4919V26.7404L11.0695 0H61.8572Z" fill="#7EFACD"/>
<path d="M157.475 38.8461C157.475 38.9603 157.52 39.0698 157.599 39.1505C157.678 39.2312 157.786 39.2766 157.898 39.2766H341.413L356.252 70.1599V179.623C356.251 179.733 356.292 179.838 356.366 179.918C356.439 179.998 356.54 180.047 356.647 180.054C356.701 180.054 356.755 180.043 356.804 180.021C356.854 179.999 356.899 179.967 356.936 179.926C356.973 179.886 357.002 179.838 357.02 179.786C357.038 179.734 357.045 179.678 357.042 179.623V70.106C357.056 70.0441 357.056 69.9797 357.042 69.9178L342.072 38.7115C342.041 38.6384 341.989 38.5766 341.923 38.5335C341.858 38.4904 341.781 38.4681 341.703 38.4694H157.924C157.816 38.4617 157.709 38.4966 157.626 38.5666C157.543 38.6367 157.489 38.7367 157.475 38.8461V38.8461Z" fill="#7EFACD"/>
<path d="M42.0389 422.95V464.379C42.0124 464.448 42.0124 464.525 42.0389 464.594L56.377 486.116C56.4165 486.171 56.4676 486.217 56.5269 486.25C56.5862 486.282 56.652 486.301 56.7193 486.304H80.4395H80.5978L91.1402 481.246H134.759C134.811 481.246 134.862 481.236 134.91 481.216C134.958 481.196 135.002 481.166 135.038 481.128C135.075 481.091 135.104 481.046 135.124 480.997C135.144 480.948 135.154 480.896 135.154 480.843C135.154 480.736 135.113 480.633 135.038 480.558C134.964 480.482 134.864 480.44 134.759 480.44H90.9027L80.3604 485.497H56.9567L42.7769 464.137V422.923L53.3193 395.618C53.3316 395.565 53.3316 395.509 53.3193 395.456V292.907C53.3193 292.8 53.2776 292.697 53.2035 292.622C53.1293 292.546 53.0291 292.503 52.9242 292.503C52.8168 292.503 52.713 292.545 52.6346 292.62C52.5563 292.695 52.5095 292.797 52.5027 292.907V395.618L41.9604 422.95C41.9866 422.954 42.0127 422.954 42.0389 422.95V422.95Z" fill="#7EFACD"/>
<path d="M210.929 188.556C211.858 188.556 212.59 188.891 213.123 189.561C213.661 190.23 213.93 191.156 213.93 192.336C213.93 193.512 213.665 194.437 213.137 195.111C212.608 195.781 211.883 196.116 210.963 196.116C210.439 196.116 209.976 195.998 209.575 195.761C209.179 195.519 208.882 195.189 208.687 194.77H208.646V198.393H206.649V188.672H208.618V189.95H208.659C208.86 189.513 209.156 189.171 209.548 188.925C209.944 188.679 210.405 188.556 210.929 188.556ZM210.259 194.51C210.756 194.51 211.15 194.314 211.441 193.922C211.738 193.53 211.886 193.001 211.886 192.336C211.886 191.671 211.738 191.142 211.441 190.75C211.15 190.354 210.756 190.155 210.259 190.155C209.771 190.155 209.379 190.356 209.083 190.757C208.787 191.153 208.639 191.68 208.639 192.336C208.639 192.997 208.785 193.525 209.076 193.922C209.372 194.314 209.767 194.51 210.259 194.51ZM218.25 189.991C217.817 189.991 217.455 190.139 217.163 190.436C216.876 190.732 216.714 191.11 216.678 191.57H219.788C219.765 191.101 219.613 190.72 219.33 190.429C219.052 190.137 218.692 189.991 218.25 189.991ZM219.815 193.758H221.647C221.538 194.478 221.178 195.059 220.567 195.501C219.961 195.938 219.207 196.157 218.305 196.157C217.179 196.157 216.295 195.82 215.652 195.146C215.014 194.471 214.695 193.546 214.695 192.37C214.695 191.199 215.014 190.265 215.652 189.567C216.29 188.866 217.149 188.515 218.229 188.515C219.291 188.515 220.137 188.847 220.766 189.513C221.395 190.178 221.709 191.069 221.709 192.186V192.794H216.657V192.917C216.657 193.441 216.81 193.867 217.115 194.195C217.425 194.519 217.833 194.681 218.339 194.681C218.703 194.681 219.018 194.599 219.282 194.435C219.547 194.266 219.724 194.04 219.815 193.758ZM228.757 195.146C228.105 195.82 227.221 196.157 226.104 196.157C224.988 196.157 224.104 195.818 223.452 195.139C222.8 194.46 222.475 193.523 222.475 192.329C222.475 191.149 222.803 190.219 223.459 189.54C224.12 188.856 225.002 188.515 226.104 188.515C227.212 188.515 228.094 188.856 228.75 189.54C229.406 190.219 229.734 191.149 229.734 192.329C229.734 193.528 229.409 194.466 228.757 195.146ZM226.104 194.633C226.597 194.633 226.986 194.432 227.273 194.031C227.561 193.63 227.704 193.065 227.704 192.336C227.704 191.616 227.561 191.053 227.273 190.647C226.986 190.242 226.597 190.039 226.104 190.039C225.612 190.039 225.22 190.242 224.929 190.647C224.642 191.053 224.498 191.616 224.498 192.336C224.498 193.065 224.642 193.63 224.929 194.031C225.216 194.432 225.608 194.633 226.104 194.633ZM235.046 188.556C235.976 188.556 236.707 188.891 237.24 189.561C237.778 190.23 238.047 191.156 238.047 192.336C238.047 193.512 237.783 194.437 237.254 195.111C236.725 195.781 236.001 196.116 235.08 196.116C234.556 196.116 234.093 195.998 233.692 195.761C233.296 195.519 233 195.189 232.804 194.77H232.763V198.393H230.767V188.672H232.735V189.95H232.776C232.977 189.513 233.273 189.171 233.665 188.925C234.062 188.679 234.522 188.556 235.046 188.556ZM234.376 194.51C234.873 194.51 235.267 194.314 235.559 193.922C235.855 193.53 236.003 193.001 236.003 192.336C236.003 191.671 235.855 191.142 235.559 190.75C235.267 190.354 234.873 190.155 234.376 190.155C233.888 190.155 233.496 190.356 233.2 190.757C232.904 191.153 232.756 191.68 232.756 192.336C232.756 192.997 232.902 193.525 233.193 193.922C233.49 194.314 233.884 194.51 234.376 194.51ZM239.127 196V186.136H241.123V196H239.127ZM245.758 189.991C245.325 189.991 244.963 190.139 244.671 190.436C244.384 190.732 244.222 191.11 244.186 191.57H247.296C247.273 191.101 247.12 190.72 246.838 190.429C246.56 190.137 246.2 189.991 245.758 189.991ZM247.323 193.758H249.155C249.046 194.478 248.686 195.059 248.075 195.501C247.469 195.938 246.715 196.157 245.812 196.157C244.687 196.157 243.803 195.82 243.16 195.146C242.522 194.471 242.203 193.546 242.203 192.37C242.203 191.199 242.522 190.265 243.16 189.567C243.798 188.866 244.657 188.515 245.737 188.515C246.799 188.515 247.645 188.847 248.273 189.513C248.902 190.178 249.217 191.069 249.217 192.186V192.794H244.165V192.917C244.165 193.441 244.318 193.867 244.623 194.195C244.933 194.519 245.341 194.681 245.847 194.681C246.211 194.681 246.526 194.599 246.79 194.435C247.054 194.266 247.232 194.04 247.323 193.758ZM263.306 188.672L261.364 196H259.238L257.912 190.818H257.871L256.552 196H254.453L252.505 188.672H254.515L255.622 194.106H255.663L256.962 188.672H258.876L260.182 194.106H260.223L261.337 188.672H263.306ZM269.991 195.146C269.34 195.82 268.455 196.157 267.339 196.157C266.222 196.157 265.338 195.818 264.687 195.139C264.035 194.46 263.709 193.523 263.709 192.329C263.709 191.149 264.037 190.219 264.693 189.54C265.354 188.856 266.236 188.515 267.339 188.515C268.446 188.515 269.328 188.856 269.984 189.54C270.641 190.219 270.969 191.149 270.969 192.329C270.969 193.528 270.643 194.466 269.991 195.146ZM267.339 194.633C267.831 194.633 268.221 194.432 268.508 194.031C268.795 193.63 268.938 193.065 268.938 192.336C268.938 191.616 268.795 191.053 268.508 190.647C268.221 190.242 267.831 190.039 267.339 190.039C266.847 190.039 266.455 190.242 266.163 190.647C265.876 191.053 265.732 191.616 265.732 192.336C265.732 193.065 265.876 193.63 266.163 194.031C266.45 194.432 266.842 194.633 267.339 194.633ZM272.001 196V188.672H273.929V189.978H273.97C274.17 189.513 274.462 189.157 274.845 188.911C275.232 188.66 275.704 188.535 276.26 188.535C277.071 188.535 277.698 188.777 278.14 189.26C278.582 189.743 278.803 190.415 278.803 191.276V196H276.807V191.693C276.807 191.21 276.693 190.839 276.465 190.579C276.237 190.319 275.902 190.189 275.46 190.189C275.018 190.189 274.662 190.338 274.394 190.634C274.129 190.93 273.997 191.317 273.997 191.796V196H272.001ZM287.197 196.116C286.669 196.116 286.204 195.995 285.803 195.754C285.406 195.512 285.105 195.175 284.9 194.742H284.859V196H282.891V186.136H284.887V189.943H284.928C285.133 189.506 285.431 189.166 285.823 188.925C286.215 188.679 286.671 188.556 287.19 188.556C288.116 188.556 288.842 188.891 289.371 189.561C289.904 190.23 290.171 191.156 290.171 192.336C290.171 193.512 289.907 194.437 289.378 195.111C288.849 195.781 288.122 196.116 287.197 196.116ZM286.507 190.155C286.024 190.155 285.632 190.356 285.331 190.757C285.03 191.158 284.88 191.684 284.88 192.336C284.88 192.997 285.028 193.525 285.324 193.922C285.625 194.314 286.019 194.51 286.507 194.51C287.008 194.51 287.402 194.316 287.689 193.929C287.981 193.537 288.127 193.006 288.127 192.336C288.127 191.671 287.981 191.142 287.689 190.75C287.398 190.354 287.004 190.155 286.507 190.155ZM294.04 194.674C294.482 194.674 294.856 194.546 295.161 194.291C295.471 194.031 295.626 193.705 295.626 193.313V192.78L294.081 192.876C293.707 192.903 293.418 192.997 293.213 193.156C293.012 193.316 292.912 193.525 292.912 193.785C292.912 194.059 293.015 194.275 293.22 194.435C293.425 194.594 293.698 194.674 294.04 194.674ZM293.384 196.116C292.677 196.116 292.092 195.909 291.627 195.494C291.162 195.079 290.93 194.546 290.93 193.895C290.93 193.229 291.176 192.707 291.668 192.329C292.16 191.951 292.864 191.734 293.78 191.68L295.626 191.57V191.085C295.626 190.748 295.514 190.483 295.291 190.292C295.072 190.101 294.774 190.005 294.396 190.005C294.031 190.005 293.732 190.087 293.5 190.251C293.272 190.415 293.133 190.636 293.083 190.914H291.258C291.294 190.194 291.602 189.615 292.181 189.178C292.759 188.736 293.527 188.515 294.484 188.515C295.423 188.515 296.175 188.738 296.74 189.185C297.305 189.631 297.588 190.224 297.588 190.962V196H295.66V194.879H295.619C295.419 195.262 295.113 195.565 294.703 195.788C294.293 196.007 293.853 196.116 293.384 196.116ZM301.601 196.116C300.685 196.116 299.958 195.777 299.42 195.098C298.882 194.419 298.613 193.493 298.613 192.322C298.613 191.16 298.882 190.242 299.42 189.567C299.962 188.893 300.694 188.556 301.614 188.556C302.134 188.556 302.59 188.681 302.981 188.932C303.378 189.182 303.667 189.515 303.85 189.93H303.891V186.136H305.887V196H303.918V194.742H303.884C303.701 195.157 303.408 195.49 303.002 195.74C302.596 195.991 302.129 196.116 301.601 196.116ZM302.277 190.155C301.776 190.155 301.38 190.351 301.088 190.743C300.801 191.135 300.657 191.666 300.657 192.336C300.657 193.01 300.801 193.541 301.088 193.929C301.38 194.316 301.776 194.51 302.277 194.51C302.774 194.51 303.168 194.316 303.46 193.929C303.756 193.537 303.904 193.006 303.904 192.336C303.904 191.671 303.756 191.142 303.46 190.75C303.168 190.354 302.774 190.155 302.277 190.155ZM310.604 194.441C311.105 194.441 311.501 194.255 311.793 193.881C312.089 193.503 312.237 192.983 312.237 192.322C312.237 191.661 312.089 191.135 311.793 190.743C311.497 190.351 311.1 190.155 310.604 190.155C310.111 190.155 309.719 190.351 309.428 190.743C309.141 191.131 308.997 191.657 308.997 192.322C308.997 192.988 309.141 193.507 309.428 193.881C309.715 194.255 310.107 194.441 310.604 194.441ZM310.569 198.762C309.617 198.762 308.833 198.552 308.218 198.133C307.607 197.718 307.261 197.18 307.179 196.52H309.134C309.211 196.775 309.384 196.98 309.653 197.135C309.927 197.294 310.25 197.374 310.624 197.374C311.13 197.374 311.524 197.244 311.807 196.984C312.089 196.729 312.23 196.385 312.23 195.952V194.667H312.189C312.016 195.063 311.727 195.382 311.321 195.624C310.916 195.861 310.451 195.979 309.927 195.979C309.024 195.979 308.302 195.651 307.76 194.995C307.222 194.339 306.953 193.443 306.953 192.309C306.953 191.146 307.222 190.23 307.76 189.561C308.298 188.891 309.031 188.556 309.961 188.556C310.48 188.556 310.938 188.681 311.335 188.932C311.731 189.182 312.028 189.522 312.224 189.95H312.258V188.672H314.227V195.897C314.227 196.768 313.892 197.463 313.222 197.982C312.556 198.502 311.672 198.762 310.569 198.762ZM318.82 189.991C318.387 189.991 318.025 190.139 317.733 190.436C317.446 190.732 317.285 191.11 317.248 191.57H320.358C320.336 191.101 320.183 190.72 319.9 190.429C319.622 190.137 319.262 189.991 318.82 189.991ZM320.386 193.758H322.218C322.108 194.478 321.748 195.059 321.138 195.501C320.532 195.938 319.777 196.157 318.875 196.157C317.749 196.157 316.865 195.82 316.223 195.146C315.585 194.471 315.266 193.546 315.266 192.37C315.266 191.199 315.585 190.265 316.223 189.567C316.861 188.866 317.72 188.515 318.8 188.515C319.862 188.515 320.707 188.847 321.336 189.513C321.965 190.178 322.279 191.069 322.279 192.186V192.794H317.228V192.917C317.228 193.441 317.38 193.867 317.686 194.195C317.995 194.519 318.403 194.681 318.909 194.681C319.274 194.681 319.588 194.599 319.853 194.435C320.117 194.266 320.295 194.04 320.386 193.758ZM323.188 190.825C323.188 190.128 323.469 189.57 324.029 189.15C324.59 188.727 325.34 188.515 326.278 188.515C327.194 188.515 327.93 188.729 328.486 189.157C329.042 189.586 329.327 190.155 329.341 190.866H327.502C327.479 190.57 327.356 190.338 327.133 190.169C326.914 190 326.62 189.916 326.251 189.916C325.905 189.916 325.627 189.989 325.417 190.135C325.212 190.276 325.109 190.465 325.109 190.702C325.109 191.058 325.428 191.311 326.066 191.461L327.468 191.762C328.201 191.926 328.728 192.165 329.047 192.479C329.37 192.789 329.532 193.218 329.532 193.765C329.532 194.485 329.231 195.063 328.63 195.501C328.028 195.938 327.242 196.157 326.271 196.157C325.305 196.157 324.533 195.943 323.954 195.515C323.375 195.086 323.059 194.51 323.004 193.785H324.952C325.002 194.095 325.144 194.334 325.376 194.503C325.613 194.672 325.93 194.756 326.326 194.756C326.704 194.756 327.001 194.688 327.215 194.551C327.434 194.41 327.543 194.218 327.543 193.977C327.543 193.79 327.475 193.642 327.338 193.532C327.201 193.418 326.969 193.323 326.641 193.245L325.287 192.944C323.888 192.625 323.188 191.919 323.188 190.825Z" fill="white"/>
<path d="M122.183 310.983H124.179V312.672H125.532V314.176H124.179V317.683C124.179 318.234 124.466 318.51 125.04 318.51C125.227 318.51 125.389 318.498 125.525 318.476V319.945C125.293 320 124.976 320.027 124.575 320.027C123.714 320.027 123.099 319.872 122.729 319.562C122.365 319.253 122.183 318.74 122.183 318.024V314.176H121.15V312.672H122.183V310.983ZM132.532 319.146C131.881 319.82 130.996 320.157 129.88 320.157C128.763 320.157 127.879 319.818 127.228 319.139C126.576 318.46 126.25 317.523 126.25 316.329C126.25 315.149 126.578 314.219 127.234 313.54C127.895 312.856 128.777 312.515 129.88 312.515C130.987 312.515 131.869 312.856 132.525 313.54C133.182 314.219 133.51 315.149 133.51 316.329C133.51 317.528 133.184 318.466 132.532 319.146ZM129.88 318.633C130.372 318.633 130.762 318.432 131.049 318.031C131.336 317.63 131.479 317.065 131.479 316.336C131.479 315.616 131.336 315.053 131.049 314.647C130.762 314.242 130.372 314.039 129.88 314.039C129.388 314.039 128.996 314.242 128.704 314.647C128.417 315.053 128.273 315.616 128.273 316.336C128.273 317.065 128.417 317.63 128.704 318.031C128.991 318.432 129.383 318.633 129.88 318.633ZM136.613 315.611L139.102 312.672H141.364L138.568 315.816L141.501 320H139.204L137.105 317.02L136.586 317.58V320H134.59V310.136H136.586V315.611H136.613ZM145.021 313.991C144.589 313.991 144.226 314.139 143.935 314.436C143.647 314.732 143.486 315.11 143.449 315.57H146.56C146.537 315.101 146.384 314.72 146.102 314.429C145.824 314.137 145.464 313.991 145.021 313.991ZM146.587 317.758H148.419C148.31 318.478 147.95 319.059 147.339 319.501C146.733 319.938 145.979 320.157 145.076 320.157C143.951 320.157 143.066 319.82 142.424 319.146C141.786 318.471 141.467 317.546 141.467 316.37C141.467 315.199 141.786 314.265 142.424 313.567C143.062 312.866 143.921 312.515 145.001 312.515C146.063 312.515 146.908 312.847 147.537 313.513C148.166 314.178 148.48 315.069 148.48 316.186V316.794H143.429V316.917C143.429 317.441 143.581 317.867 143.887 318.195C144.197 318.519 144.604 318.681 145.11 318.681C145.475 318.681 145.789 318.599 146.054 318.435C146.318 318.266 146.496 318.04 146.587 317.758ZM149.513 320V312.672H151.44V313.978H151.481C151.682 313.513 151.974 313.157 152.356 312.911C152.744 312.66 153.215 312.535 153.771 312.535C154.583 312.535 155.209 312.777 155.651 313.26C156.093 313.743 156.314 314.415 156.314 315.276V320H154.318V315.693C154.318 315.21 154.204 314.839 153.977 314.579C153.749 314.319 153.414 314.189 152.972 314.189C152.53 314.189 152.174 314.338 151.905 314.634C151.641 314.93 151.509 315.317 151.509 315.796V320H149.513ZM157.456 314.825C157.456 314.128 157.736 313.57 158.297 313.15C158.857 312.727 159.607 312.515 160.546 312.515C161.462 312.515 162.198 312.729 162.754 313.157C163.31 313.586 163.595 314.155 163.608 314.866H161.77C161.747 314.57 161.624 314.338 161.4 314.169C161.182 314 160.888 313.916 160.519 313.916C160.172 313.916 159.894 313.989 159.685 314.135C159.479 314.276 159.377 314.465 159.377 314.702C159.377 315.058 159.696 315.311 160.334 315.461L161.735 315.762C162.469 315.926 162.995 316.165 163.314 316.479C163.638 316.789 163.8 317.218 163.8 317.765C163.8 318.485 163.499 319.063 162.897 319.501C162.296 319.938 161.51 320.157 160.539 320.157C159.573 320.157 158.8 319.943 158.222 319.515C157.643 319.086 157.326 318.51 157.271 317.785H159.22C159.27 318.095 159.411 318.334 159.644 318.503C159.881 318.672 160.197 318.756 160.594 318.756C160.972 318.756 161.268 318.688 161.482 318.551C161.701 318.41 161.811 318.218 161.811 317.977C161.811 317.79 161.742 317.642 161.605 317.532C161.469 317.418 161.236 317.323 160.908 317.245L159.555 316.944C158.156 316.625 157.456 315.919 157.456 314.825ZM177.854 312.672L175.913 320H173.787L172.461 314.818H172.42L171.101 320H169.002L167.054 312.672H169.063L170.171 318.106H170.212L171.511 312.672H173.425L174.73 318.106H174.771L175.886 312.672H177.854ZM181.812 313.991C181.38 313.991 181.017 314.139 180.726 314.436C180.438 314.732 180.277 315.11 180.24 315.57H183.351C183.328 315.101 183.175 314.72 182.893 314.429C182.615 314.137 182.255 313.991 181.812 313.991ZM183.378 317.758H185.21C185.101 318.478 184.741 319.059 184.13 319.501C183.524 319.938 182.77 320.157 181.867 320.157C180.742 320.157 179.857 319.82 179.215 319.146C178.577 318.471 178.258 317.546 178.258 316.37C178.258 315.199 178.577 314.265 179.215 313.567C179.853 312.866 180.712 312.515 181.792 312.515C182.854 312.515 183.699 312.847 184.328 313.513C184.957 314.178 185.271 315.069 185.271 316.186V316.794H180.22V316.917C180.22 317.441 180.372 317.867 180.678 318.195C180.988 318.519 181.396 318.681 181.901 318.681C182.266 318.681 182.58 318.599 182.845 318.435C183.109 318.266 183.287 318.04 183.378 317.758ZM186.304 320V312.672H188.231V313.991H188.272C188.4 313.526 188.614 313.171 188.915 312.925C189.216 312.679 189.583 312.556 190.016 312.556C190.225 312.556 190.414 312.581 190.583 312.631V314.388C190.396 314.31 190.155 314.271 189.858 314.271C189.366 314.271 188.983 314.415 188.71 314.702C188.437 314.989 188.3 315.39 188.3 315.905V320H186.304ZM194.445 313.991C194.012 313.991 193.65 314.139 193.358 314.436C193.071 314.732 192.91 315.11 192.873 315.57H195.983C195.961 315.101 195.808 314.72 195.525 314.429C195.247 314.137 194.887 313.991 194.445 313.991ZM196.011 317.758H197.843C197.733 318.478 197.373 319.059 196.763 319.501C196.157 319.938 195.402 320.157 194.5 320.157C193.374 320.157 192.49 319.82 191.848 319.146C191.21 318.471 190.891 317.546 190.891 316.37C190.891 315.199 191.21 314.265 191.848 313.567C192.486 312.866 193.345 312.515 194.425 312.515C195.487 312.515 196.332 312.847 196.961 313.513C197.59 314.178 197.904 315.069 197.904 316.186V316.794H192.853V316.917C192.853 317.441 193.005 317.867 193.311 318.195C193.62 318.519 194.028 318.681 194.534 318.681C194.899 318.681 195.213 318.599 195.478 318.435C195.742 318.266 195.92 318.04 196.011 317.758ZM201.589 314.825C201.589 314.128 201.869 313.57 202.43 313.15C202.99 312.727 203.74 312.515 204.679 312.515C205.595 312.515 206.331 312.729 206.887 313.157C207.443 313.586 207.728 314.155 207.741 314.866H205.902C205.88 314.57 205.757 314.338 205.533 314.169C205.314 314 205.021 313.916 204.651 313.916C204.305 313.916 204.027 313.989 203.817 314.135C203.612 314.276 203.51 314.465 203.51 314.702C203.51 315.058 203.829 315.311 204.467 315.461L205.868 315.762C206.602 315.926 207.128 316.165 207.447 316.479C207.771 316.789 207.933 317.218 207.933 317.765C207.933 318.485 207.632 319.063 207.03 319.501C206.429 319.938 205.643 320.157 204.672 320.157C203.706 320.157 202.933 319.943 202.354 319.515C201.776 319.086 201.459 318.51 201.404 317.785H203.353C203.403 318.095 203.544 318.334 203.776 318.503C204.013 318.672 204.33 318.756 204.727 318.756C205.105 318.756 205.401 318.688 205.615 318.551C205.834 318.41 205.943 318.218 205.943 317.977C205.943 317.79 205.875 317.642 205.738 317.532C205.602 317.418 205.369 317.323 205.041 317.245L203.688 316.944C202.288 316.625 201.589 315.919 201.589 314.825ZM212.219 313.991C211.786 313.991 211.424 314.139 211.132 314.436C210.845 314.732 210.683 315.11 210.646 315.57H213.757C213.734 315.101 213.581 314.72 213.299 314.429C213.021 314.137 212.661 313.991 212.219 313.991ZM213.784 317.758H215.616C215.507 318.478 215.147 319.059 214.536 319.501C213.93 319.938 213.176 320.157 212.273 320.157C211.148 320.157 210.264 319.82 209.621 319.146C208.983 318.471 208.664 317.546 208.664 316.37C208.664 315.199 208.983 314.265 209.621 313.567C210.259 312.866 211.118 312.515 212.198 312.515C213.26 312.515 214.105 312.847 214.734 313.513C215.363 314.178 215.678 315.069 215.678 316.186V316.794H210.626V316.917C210.626 317.441 210.779 317.867 211.084 318.195C211.394 318.519 211.802 318.681 212.308 318.681C212.672 318.681 212.987 318.599 213.251 318.435C213.515 318.266 213.693 318.04 213.784 317.758ZM216.71 320V312.672H218.638V313.978H218.679C218.879 313.513 219.171 313.157 219.554 312.911C219.941 312.66 220.413 312.535 220.969 312.535C221.78 312.535 222.407 312.777 222.849 313.26C223.291 313.743 223.512 314.415 223.512 315.276V320H221.516V315.693C221.516 315.21 221.402 314.839 221.174 314.579C220.946 314.319 220.611 314.189 220.169 314.189C219.727 314.189 219.371 314.338 219.103 314.634C218.838 314.93 218.706 315.317 218.706 315.796V320H216.71ZM225.31 310.983H227.306V312.672H228.659V314.176H227.306V317.683C227.306 318.234 227.593 318.51 228.167 318.51C228.354 318.51 228.516 318.498 228.652 318.476V319.945C228.42 320 228.103 320.027 227.702 320.027C226.841 320.027 226.226 319.872 225.856 319.562C225.492 319.253 225.31 318.74 225.31 318.024V314.176H224.277V312.672H225.31V310.983Z" fill="white"/>
<path d="M51.2432 76H49.1787V67.8379H46.3281V66.1357H54.1006V67.8379H51.2432V76ZM55.6191 76V66.1357H57.5811V69.9775H57.6221C57.818 69.5127 58.112 69.1572 58.5039 68.9111C58.9004 68.6605 59.3743 68.5352 59.9258 68.5352C60.7324 68.5352 61.359 68.7812 61.8057 69.2734C62.2568 69.7611 62.4824 70.431 62.4824 71.2832V76H60.4863V71.707C60.4863 71.2285 60.3678 70.8571 60.1309 70.5928C59.8984 70.3239 59.5589 70.1895 59.1123 70.1895C58.6475 70.1895 58.2806 70.3398 58.0117 70.6406C57.7474 70.9368 57.6152 71.3288 57.6152 71.8164V76H55.6191ZM64.2949 76V68.6719H66.291V76H64.2949ZM66.0518 67.5645C65.8467 67.765 65.5938 67.8652 65.293 67.8652C64.9922 67.8652 64.7393 67.765 64.5342 67.5645C64.3291 67.3639 64.2266 67.1201 64.2266 66.833C64.2266 66.5413 64.3291 66.2975 64.5342 66.1016C64.7393 65.901 64.9922 65.8008 65.293 65.8008C65.5938 65.8008 65.8467 65.901 66.0518 66.1016C66.2568 66.2975 66.3594 66.5413 66.3594 66.833C66.3594 67.1201 66.2568 67.3639 66.0518 67.5645ZM68.001 70.8252C68.001 70.1279 68.2812 69.5697 68.8418 69.1504C69.4023 68.7266 70.152 68.5146 71.0908 68.5146C72.0068 68.5146 72.7428 68.7288 73.2988 69.1572C73.8548 69.5856 74.1396 70.1553 74.1533 70.8662H72.3145C72.2917 70.57 72.1686 70.3376 71.9453 70.1689C71.7266 70.0003 71.4326 69.916 71.0635 69.916C70.7171 69.916 70.4391 69.9889 70.2295 70.1348C70.0244 70.276 69.9219 70.4652 69.9219 70.7021C69.9219 71.0576 70.2409 71.3105 70.8789 71.4609L72.2803 71.7617C73.014 71.9258 73.5404 72.165 73.8594 72.4795C74.1829 72.7894 74.3447 73.2178 74.3447 73.7646C74.3447 74.4847 74.0439 75.0635 73.4424 75.501C72.8408 75.9385 72.0547 76.1572 71.084 76.1572C70.1178 76.1572 69.3454 75.943 68.7666 75.5146C68.1878 75.0863 67.8711 74.5098 67.8164 73.7852H69.7646C69.8148 74.0951 69.9561 74.3343 70.1885 74.5029C70.4255 74.6715 70.7422 74.7559 71.1387 74.7559C71.5169 74.7559 71.8132 74.6875 72.0273 74.5508C72.2461 74.4095 72.3555 74.2181 72.3555 73.9766C72.3555 73.7897 72.2871 73.6416 72.1504 73.5322C72.0137 73.4183 71.7812 73.3226 71.4531 73.2451L70.0996 72.9443C68.7005 72.6253 68.001 71.9189 68.001 70.8252ZM89.3994 68.6719L87.458 76H85.332L84.0059 70.8184H83.9648L82.6455 76H80.5469L78.5986 68.6719H80.6084L81.7158 74.1064H81.7568L83.0557 68.6719H84.9697L86.2754 74.1064H86.3164L87.4307 68.6719H89.3994ZM93.8574 69.9912C93.4245 69.9912 93.0622 70.1393 92.7705 70.4355C92.4834 70.7318 92.3216 71.11 92.2852 71.5703H95.3955C95.3727 71.1009 95.2201 70.7204 94.9375 70.4287C94.6595 70.137 94.2995 69.9912 93.8574 69.9912ZM95.4229 73.7578H97.2549C97.1455 74.4779 96.7855 75.0589 96.1748 75.501C95.5687 75.9385 94.8145 76.1572 93.9121 76.1572C92.7865 76.1572 91.9023 75.82 91.2598 75.1455C90.6217 74.471 90.3027 73.5459 90.3027 72.3701C90.3027 71.1989 90.6217 70.2646 91.2598 69.5674C91.8978 68.8656 92.7568 68.5146 93.8369 68.5146C94.8988 68.5146 95.7441 68.8473 96.373 69.5127C97.002 70.1781 97.3164 71.069 97.3164 72.1855V72.7939H92.2646V72.917C92.2646 73.4411 92.4173 73.8672 92.7227 74.1953C93.0326 74.5189 93.4404 74.6807 93.9463 74.6807C94.3109 74.6807 94.6253 74.5986 94.8896 74.4346C95.154 74.266 95.3317 74.0404 95.4229 73.7578ZM102.137 69.9912C101.704 69.9912 101.341 70.1393 101.05 70.4355C100.763 70.7318 100.601 71.11 100.564 71.5703H103.675C103.652 71.1009 103.499 70.7204 103.217 70.4287C102.939 70.137 102.579 69.9912 102.137 69.9912ZM103.702 73.7578H105.534C105.425 74.4779 105.065 75.0589 104.454 75.501C103.848 75.9385 103.094 76.1572 102.191 76.1572C101.066 76.1572 100.182 75.82 99.5391 75.1455C98.901 74.471 98.582 73.5459 98.582 72.3701C98.582 71.1989 98.901 70.2646 99.5391 69.5674C100.177 68.8656 101.036 68.5146 102.116 68.5146C103.178 68.5146 104.023 68.8473 104.652 69.5127C105.281 70.1781 105.596 71.069 105.596 72.1855V72.7939H100.544V72.917C100.544 73.4411 100.697 73.8672 101.002 74.1953C101.312 74.5189 101.72 74.6807 102.226 74.6807C102.59 74.6807 102.905 74.5986 103.169 74.4346C103.433 74.266 103.611 74.0404 103.702 73.7578ZM109.199 71.6113L111.688 68.6719H113.95L111.154 71.8164L114.087 76H111.79L109.691 73.0195L109.172 73.5801V76H107.176V66.1357H109.172V71.6113H109.199Z" fill="#E4E4E4"/>
<path d="M132 69L137 74L142 69H132Z" fill="#7EFACD"/>
<rect x="34.5" y="55.5" width="126" height="31" rx="7.5" stroke="#7EFACD"/>
<path d="M183.145 76V68.0293H183.104L180.588 69.7656V67.9062L183.138 66.1357H185.188V76H183.145ZM190.371 76V68.0293H190.33L187.814 69.7656V67.9062L190.364 66.1357H192.415V76H190.371Z" fill="#E4E4E4"/>
<path d="M211.979 69L216.979 74L221.979 69H211.979Z" fill="#7EFACD"/>
<rect x="168.479" y="55.5" width="72" height="31" rx="7.5" stroke="#7EFACD"/>
<path d="M258.061 69.1025C258.061 68.1683 258.398 67.4049 259.072 66.8125C259.751 66.2155 260.629 65.917 261.704 65.917C262.739 65.917 263.582 66.1859 264.233 66.7236C264.885 67.2568 265.211 67.9382 265.211 68.7676C265.211 69.0638 265.165 69.3509 265.074 69.6289C264.988 69.9023 264.846 70.1781 264.65 70.4561C264.459 70.7295 264.265 70.9779 264.069 71.2012C263.873 71.4199 263.618 71.6865 263.304 72.001L260.897 74.3184V74.3594H265.348V76H258.177V74.6123L261.896 71.0303C262.397 70.529 262.739 70.1257 262.921 69.8203C263.108 69.515 263.201 69.1914 263.201 68.8496C263.201 68.4759 263.053 68.1615 262.757 67.9062C262.461 67.651 262.087 67.5234 261.636 67.5234C261.157 67.5234 260.761 67.6738 260.446 67.9746C260.132 68.2708 259.975 68.6468 259.975 69.1025V69.1367H258.061V69.1025ZM273.866 74.8311C273.16 75.7562 272.187 76.2188 270.947 76.2188C269.708 76.2188 268.732 75.7585 268.021 74.8379C267.311 73.9128 266.955 72.6504 266.955 71.0508C266.955 69.4603 267.311 68.207 268.021 67.291C268.737 66.3704 269.712 65.9102 270.947 65.9102C272.182 65.9102 273.155 66.3682 273.866 67.2842C274.577 68.2002 274.933 69.4535 274.933 71.0439C274.933 72.639 274.577 73.9014 273.866 74.8311ZM269.553 73.6416C269.89 74.2568 270.355 74.5645 270.947 74.5645C271.54 74.5645 272.002 74.2591 272.335 73.6484C272.668 73.0332 272.834 72.1673 272.834 71.0508C272.834 69.9434 272.665 69.0866 272.328 68.4805C271.995 67.8698 271.535 67.5645 270.947 67.5645C270.359 67.5645 269.897 67.8698 269.56 68.4805C269.222 69.0911 269.054 69.9479 269.054 71.0508C269.054 72.1628 269.22 73.0264 269.553 73.6416ZM276.52 69.1025C276.52 68.1683 276.857 67.4049 277.531 66.8125C278.21 66.2155 279.088 65.917 280.163 65.917C281.198 65.917 282.041 66.1859 282.692 66.7236C283.344 67.2568 283.67 67.9382 283.67 68.7676C283.67 69.0638 283.624 69.3509 283.533 69.6289C283.447 69.9023 283.305 70.1781 283.109 70.4561C282.918 70.7295 282.724 70.9779 282.528 71.2012C282.332 71.4199 282.077 71.6865 281.763 72.001L279.356 74.3184V74.3594H283.807V76H276.636V74.6123L280.354 71.0303C280.856 70.529 281.198 70.1257 281.38 69.8203C281.567 69.515 281.66 69.1914 281.66 68.8496C281.66 68.4759 281.512 68.1615 281.216 67.9062C280.92 67.651 280.546 67.5234 280.095 67.5234C279.616 67.5234 279.22 67.6738 278.905 67.9746C278.591 68.2708 278.434 68.6468 278.434 69.1025V69.1367H276.52V69.1025ZM288.053 76V68.0293H288.012L285.496 69.7656V67.9062L288.046 66.1357H290.097V76H288.053Z" fill="#E4E4E4"/>
<path d="M309.479 69L314.479 74L319.479 69H309.479Z" fill="#7EFACD"/>
<rect x="245.979" y="55.5" width="92" height="31" rx="7.5" stroke="#7EFACD"/>
<g clip-path="url(#clip0_81_2)">
<g opacity="0.2">
<g opacity="0.2">
<path opacity="0.2" d="M124.547 246.851C154.382 246.851 178.569 222.664 178.569 192.829C178.569 162.993 154.382 138.806 124.547 138.806C94.711 138.806 70.5244 162.993 70.5244 192.829C70.5244 222.664 94.711 246.851 124.547 246.851Z" fill="#DD56FF"/>
</g>
</g>
<path d="M165.987 150.728L156.332 160.383L156.98 161.031L166.636 151.376L165.987 150.728Z" fill="#DD56FF"/>
<path d="M92.0958 224.67L82.4404 234.325L83.0888 234.974L92.7442 225.318L92.0958 224.67Z" fill="#DD56FF"/>
<path d="M156.988 224.611L156.34 225.259L165.995 234.914L166.644 234.266L156.988 224.611Z" fill="#DD56FF"/>
<path d="M83.1006 150.721L82.4521 151.369L92.1076 161.025L92.756 160.376L83.1006 150.721Z" fill="#DD56FF"/>
<path d="M127.155 192.828C127.155 193.344 127.002 193.849 126.715 194.278C126.429 194.707 126.021 195.041 125.545 195.239C125.068 195.436 124.543 195.488 124.037 195.387C123.531 195.286 123.066 195.038 122.702 194.673C122.337 194.308 122.088 193.843 121.988 193.337C121.887 192.831 121.939 192.307 122.136 191.83C122.334 191.353 122.668 190.946 123.097 190.659C123.526 190.373 124.03 190.22 124.546 190.22C125.238 190.22 125.902 190.495 126.391 190.984C126.88 191.473 127.155 192.137 127.155 192.828V192.828Z" fill="#DD56FF"/>
<path d="M124.56 238.797C118.521 238.813 112.539 237.631 106.96 235.32C101.38 233.009 96.3143 229.615 92.0547 225.334L92.8295 224.56C96.9964 228.727 101.943 232.032 107.388 234.287C112.832 236.542 118.667 237.703 124.56 237.703C130.453 237.703 136.289 236.542 141.733 234.287C147.178 232.032 152.124 228.727 156.291 224.56L157.066 225.334C152.807 229.616 147.741 233.01 142.161 235.321C136.582 237.631 130.599 238.813 124.56 238.797V238.797Z" fill="#DD56FF"/>
<path d="M92.8158 161.098L92.041 160.323C100.663 151.703 112.355 146.861 124.547 146.861C136.738 146.861 148.431 151.703 157.052 160.323L156.278 161.098C152.111 156.931 147.164 153.625 141.719 151.37C136.275 149.115 130.44 147.954 124.547 147.954C118.654 147.954 112.818 149.115 107.374 151.37C101.93 153.625 96.9828 156.931 92.8158 161.098V161.098Z" fill="#DD56FF"/>
<path d="M124.561 200.307C123.08 200.307 121.633 199.867 120.402 199.045C119.171 198.222 118.212 197.052 117.645 195.684C117.079 194.316 116.931 192.811 117.221 191.359C117.51 189.907 118.223 188.573 119.271 187.526C120.318 186.48 121.653 185.768 123.105 185.48C124.558 185.192 126.063 185.341 127.43 185.908C128.798 186.476 129.966 187.437 130.788 188.668C131.61 189.9 132.047 191.348 132.046 192.829C132.042 194.812 131.252 196.713 129.849 198.115C128.446 199.516 126.544 200.305 124.561 200.307V200.307ZM124.561 186.438C123.296 186.438 122.059 186.814 121.007 187.517C119.955 188.22 119.135 189.219 118.651 190.388C118.166 191.557 118.04 192.843 118.287 194.084C118.533 195.325 119.143 196.465 120.037 197.359C120.932 198.254 122.072 198.863 123.313 199.11C124.554 199.357 125.84 199.23 127.009 198.746C128.178 198.262 129.177 197.442 129.88 196.39C130.583 195.338 130.958 194.101 130.958 192.836C130.958 191.139 130.284 189.512 129.085 188.312C127.885 187.112 126.258 186.438 124.561 186.438V186.438Z" fill="#DD56FF"/>
<path d="M129.778 201.6L129.536 201.202C130.984 200.336 132.183 199.111 133.017 197.645C133.852 196.179 134.293 194.522 134.299 192.836C134.299 192.601 134.299 192.359 134.299 192.125H134.761C134.761 192.366 134.761 192.622 134.761 192.836C134.755 194.602 134.293 196.336 133.42 197.872C132.547 199.407 131.292 200.691 129.778 201.6V201.6ZM119.059 201.436C117.711 200.586 116.584 199.429 115.767 198.061C114.951 196.692 114.469 195.15 114.36 193.561C114.36 193.314 114.36 193.077 114.36 192.85C114.359 192.506 114.376 192.162 114.41 191.819L114.865 191.869C114.865 192.196 114.815 192.523 114.815 192.85C114.815 193.177 114.815 193.326 114.815 193.561C114.917 195.078 115.376 196.55 116.154 197.857C116.932 199.164 118.008 200.269 119.293 201.081L119.059 201.436ZM131.143 185.635C129.348 183.99 127.002 183.077 124.568 183.076C124.326 183.076 124.092 183.076 123.857 183.076C122.908 183.146 121.975 183.352 121.085 183.687L120.921 183.261C121.851 182.906 122.828 182.69 123.821 182.621C124.07 182.621 124.319 182.621 124.532 182.621C127.081 182.62 129.537 183.576 131.413 185.301L131.143 185.635Z" fill="#DD56FF"/>
<path d="M75.0097 192.594H70.5244V193.056H75.0097V192.594Z" fill="#DD56FF"/>
<path d="M178.569 192.594H174.084V193.056H178.569V192.594Z" fill="#DD56FF"/>
<path d="M75.074 195.19L70.5947 195.423L70.6187 195.884L75.0979 195.652L75.074 195.19Z" fill="#DD56FF"/>
<path d="M178.498 189.752L174.019 189.986L174.043 190.447L178.522 190.214L178.498 189.752Z" fill="#DD56FF"/>
<path d="M75.2954 197.737L70.835 198.208L70.8835 198.667L75.3439 198.196L75.2954 197.737Z" fill="#DD56FF"/>
<path d="M178.263 186.928L173.803 187.398L173.851 187.857L178.312 187.387L178.263 186.928Z" fill="#DD56FF"/>
<path d="M75.5773 200.357L71.1475 201.06L71.2199 201.516L75.6497 200.813L75.5773 200.357Z" fill="#DD56FF"/>
<path d="M177.877 184.144L173.447 184.847L173.52 185.304L177.95 184.601L177.877 184.144Z" fill="#DD56FF"/>
<path d="M76.0411 202.904L71.6533 203.834L71.7491 204.286L76.1369 203.356L76.0411 202.904Z" fill="#DD56FF"/>
<path d="M177.347 181.359L172.959 182.29L173.055 182.742L177.442 181.811L177.347 181.359Z" fill="#DD56FF"/>
<path d="M76.6609 205.385L72.3291 206.549L72.4489 206.995L76.7807 205.832L76.6609 205.385Z" fill="#DD56FF"/>
<path d="M176.707 178.557L172.375 179.721L172.495 180.167L176.827 179.003L176.707 178.557Z" fill="#DD56FF"/>
<path d="M77.3675 207.905L73.1016 209.29L73.2443 209.729L77.5102 208.344L77.3675 207.905Z" fill="#DD56FF"/>
<path d="M175.838 175.937L171.572 177.322L171.715 177.761L175.981 176.376L175.838 175.937Z" fill="#DD56FF"/>
<path d="M78.2296 210.342L74.042 211.948L74.2075 212.38L78.3951 210.773L78.2296 210.342Z" fill="#DD56FF"/>
<path d="M174.903 173.233L170.716 174.84L170.881 175.271L175.069 173.665L174.903 173.233Z" fill="#DD56FF"/>
<path d="M79.1977 212.766L75.0996 214.589L75.2874 215.011L79.3855 213.188L79.1977 212.766Z" fill="#DD56FF"/>
<path d="M173.801 170.653L169.703 172.476L169.891 172.898L173.989 171.075L173.801 170.653Z" fill="#DD56FF"/>
<path d="M80.2976 215.126L76.2998 217.159L76.5093 217.571L80.5071 215.538L80.2976 215.126Z" fill="#DD56FF"/>
<path d="M172.558 168.141L168.561 170.175L168.77 170.587L172.768 168.553L172.558 168.141Z" fill="#DD56FF"/>
<path d="M81.5252 217.418L77.6416 219.662L77.8728 220.062L81.7563 217.818L81.5252 217.418Z" fill="#DD56FF"/>
<path d="M171.218 165.607L167.335 167.852L167.566 168.252L171.449 166.007L171.218 165.607Z" fill="#DD56FF"/>
<path d="M82.879 219.604L79.1182 222.049L79.3699 222.436L83.1308 219.992L82.879 219.604Z" fill="#DD56FF"/>
<path d="M169.712 163.28L165.951 165.724L166.203 166.111L169.964 163.668L169.712 163.28Z" fill="#DD56FF"/>
<path d="M84.3395 221.739L80.71 224.375L80.9814 224.748L84.611 222.113L84.3395 221.739Z" fill="#DD56FF"/>
<path d="M168.121 160.863L164.491 163.498L164.763 163.872L168.392 161.237L168.121 160.863Z" fill="#DD56FF"/>
<path d="M87.898 225.424L84.3994 228.25L84.6905 228.61L88.189 225.784L87.898 225.424Z" fill="#DD56FF"/>
<path d="M168.559 160.009L165.061 162.835L165.352 163.195L168.85 160.37L168.559 160.009Z" fill="#DD56FF"/>
<path d="M124.561 212.419C119.367 212.413 114.387 210.347 110.715 206.675C107.042 203.002 104.976 198.023 104.971 192.829H105.433C105.433 197.902 107.448 202.767 111.035 206.354C114.622 209.941 119.488 211.957 124.561 211.957C129.634 211.957 134.499 209.941 138.086 206.354C141.674 202.767 143.689 197.902 143.689 192.829H144.151C144.145 198.023 142.08 203.002 138.407 206.675C134.734 210.347 129.755 212.413 124.561 212.419V212.419Z" fill="#DD56FF"/>
<g opacity="0.2">
<g opacity="0.2">
<path opacity="0.2" d="M128.331 212.448C139.15 210.135 146.044 199.49 143.731 188.672C141.418 177.853 130.772 170.959 119.954 173.272C109.136 175.585 102.242 186.231 104.555 197.049C106.868 207.867 117.513 214.761 128.331 212.448Z" fill="#DD56FF"/>
</g>
</g>
<path d="M124.021 126.688L123.675 259.056L124.4 259.058L124.746 126.69L124.021 126.688Z" fill="#DD56FF"/>
<path d="M57.9785 192.28L57.9766 193.005L190.345 193.352L190.347 192.627L57.9785 192.28Z" fill="#DD56FF"/>
<path d="M128.347 166.119L128.288 188.453L129.013 188.455L129.072 166.121L128.347 166.119Z" fill="#DD56FF"/>
<path d="M128.602 188.027L128.601 188.752L150.934 188.811L150.936 188.086L128.602 188.027Z" fill="#DD56FF"/>
<path d="M119.595 166.204L119.536 188.538L120.261 188.54L120.32 166.206L119.595 166.204Z" fill="#DD56FF"/>
<path d="M97.5156 188.056L97.5137 188.781L119.848 188.839L119.849 188.114L97.5156 188.056Z" fill="#DD56FF"/>
<path d="M128.275 197.049L128.217 219.383L128.942 219.385L129 197.051L128.275 197.049Z" fill="#DD56FF"/>
<path d="M128.582 196.637L128.58 197.362L150.914 197.42L150.916 196.695L128.582 196.637Z" fill="#DD56FF"/>
<path d="M119.516 196.921L119.457 219.255L120.182 219.257L120.241 196.923L119.516 196.921Z" fill="#DD56FF"/>
<path d="M97.4941 196.437L97.4922 197.162L119.826 197.22L119.828 196.495L97.4941 196.437Z" fill="#DD56FF"/>
<path d="M96.6797 137.918L96.0332 138.246L101.066 148.159L101.713 147.83L96.6797 137.918Z" fill="#DD56FF"/>
<path d="M147.259 237.537L146.612 237.865L151.646 247.778L152.292 247.449L147.259 237.537Z" fill="#DD56FF"/>
<path d="M65.9106 173.445L65.6855 174.134L76.2538 177.584L76.4789 176.895L65.9106 173.445Z" fill="#DD56FF"/>
<path d="M172.114 208.113L171.889 208.802L182.457 212.253L182.682 211.563L172.114 208.113Z" fill="#DD56FF"/>
<path d="M79.1283 215.33L69.2148 220.362L69.543 221.008L79.4564 215.977L79.1283 215.33Z" fill="#DD56FF"/>
<path d="M178.749 164.755L168.836 169.786L169.164 170.433L179.078 165.401L178.749 164.755Z" fill="#DD56FF"/>
<path d="M108.198 240.472L104.748 251.041L105.437 251.266L108.887 240.697L108.198 240.472Z" fill="#DD56FF"/>
<path d="M142.919 134.385L139.467 144.953L140.156 145.178L143.608 134.611L142.919 134.385Z" fill="#DD56FF"/>
<path d="M94.4033 166.882L93.9316 167.432L99.3627 172.084L99.8343 171.533L94.4033 166.882Z" fill="#DD56FF"/>
<path d="M148.977 213.607L148.506 214.157L153.937 218.809L154.409 218.259L148.977 213.607Z" fill="#DD56FF"/>
<path d="M95.2827 195.425L88.1318 195.997L88.1898 196.722L95.3407 196.15L95.2827 195.425Z" fill="#DD56FF"/>
<path d="M163.551 189.39L156.422 189.943L156.478 190.666L163.607 190.112L163.551 189.39Z" fill="#DD56FF"/>
<path d="M102.852 217.223L98.1992 222.654L98.7498 223.125L103.402 217.695L102.852 217.223Z" fill="#DD56FF"/>
<path d="M149.585 162.581L144.935 168.013L145.485 168.484L150.136 163.052L149.585 162.581Z" fill="#DD56FF"/>
<path d="M127.012 225.071L126.289 225.127L126.84 232.256L127.563 232.2L127.012 225.071Z" fill="#DD56FF"/>
<path d="M121.479 153.428L120.756 153.483L121.307 160.613L122.03 160.557L121.479 153.428Z" fill="#DD56FF"/>
<path d="M123.85 156.399C116.644 156.398 109.6 158.533 103.609 162.535C97.6169 166.537 92.9465 172.226 90.1882 178.883C87.4298 185.539 86.7074 192.864 88.1122 199.931C89.517 206.998 92.9861 213.49 98.0805 218.586C103.175 223.681 109.666 227.151 116.733 228.558C123.8 229.964 131.125 229.243 137.782 226.486C144.439 223.729 150.129 219.059 154.132 213.068C158.135 207.078 160.272 200.034 160.272 192.829C160.27 183.169 156.432 173.905 149.603 167.074C142.773 160.242 133.51 156.403 123.85 156.399V156.399ZM123.85 226.948C117.102 226.948 110.505 224.947 104.894 221.198C99.2831 217.449 94.91 212.12 92.3276 205.885C89.7452 199.651 89.0695 192.791 90.386 186.172C91.7025 179.554 94.952 173.474 99.7237 168.703C104.495 163.931 110.575 160.681 117.193 159.365C123.812 158.048 130.672 158.724 136.907 161.306C143.141 163.889 148.47 168.262 152.219 173.873C155.968 179.484 157.969 186.08 157.969 192.829C157.969 201.878 154.374 210.556 147.976 216.955C141.577 223.353 132.899 226.948 123.85 226.948V226.948Z" fill="#DD56FF"/>
<path d="M92.2831 166.123C100.419 158.004 111.442 153.441 122.937 153.434C134.431 153.427 145.46 157.978 153.605 166.088C153.709 166.349 153.9 166.567 154.145 166.703C154.391 166.84 154.677 166.887 154.953 166.837C155.23 166.786 155.48 166.642 155.662 166.427C155.844 166.213 155.946 165.942 155.951 165.661V155.283C155.964 155.116 155.942 154.948 155.887 154.79C155.832 154.632 155.745 154.487 155.631 154.364C155.517 154.241 155.379 154.143 155.226 154.076C155.072 154.009 154.907 153.975 154.739 153.975C154.572 153.975 154.406 154.009 154.253 154.076C154.099 154.143 153.961 154.241 153.847 154.364C153.734 154.487 153.646 154.632 153.591 154.79C153.536 154.948 153.514 155.116 153.527 155.283V162.818C145.129 155.283 134.244 151.116 122.962 151.116C111.68 151.116 100.795 155.283 92.3968 162.818V155.283C92.3968 155.124 92.3654 154.966 92.3043 154.818C92.2432 154.671 92.1537 154.537 92.0408 154.424C91.9279 154.311 91.7939 154.221 91.6465 154.16C91.499 154.099 91.3409 154.068 91.1813 154.068C91.0217 154.068 90.8636 154.099 90.7162 154.16C90.5687 154.221 90.4347 154.311 90.3218 154.424C90.209 154.537 90.1194 154.671 90.0583 154.818C89.9972 154.966 89.9658 155.124 89.9658 155.283V165.661C89.9665 165.942 90.0644 166.214 90.2431 166.431C90.4217 166.648 90.67 166.796 90.9457 166.851C91.2214 166.905 91.5074 166.862 91.7551 166.73C92.0028 166.597 92.1969 166.383 92.3044 166.123H92.2831Z" fill="#DD56FF"/>
<path d="M92.2831 219.534C100.427 227.644 111.451 232.197 122.944 232.197C134.437 232.197 145.462 227.644 153.605 219.534C153.702 219.265 153.891 219.038 154.139 218.895C154.387 218.752 154.677 218.702 154.959 218.753C155.241 218.804 155.495 218.954 155.676 219.175C155.858 219.396 155.955 219.674 155.951 219.961V230.339C155.928 230.644 155.79 230.929 155.565 231.137C155.34 231.346 155.045 231.461 154.739 231.461C154.433 231.461 154.138 231.346 153.913 231.137C153.688 230.929 153.551 230.644 153.527 230.339V222.832C145.131 230.371 134.246 234.541 122.962 234.541C111.678 234.541 100.793 230.371 92.3968 222.832V230.395C92.3968 230.718 92.2687 231.027 92.0408 231.255C91.8128 231.483 91.5037 231.611 91.1813 231.611C90.8589 231.611 90.5498 231.483 90.3218 231.255C90.0939 231.027 89.9658 230.718 89.9658 230.395V220.017C89.9665 219.736 90.0644 219.464 90.2431 219.247C90.4217 219.031 90.67 218.882 90.9457 218.828C91.2214 218.773 91.5074 218.816 91.7551 218.949C92.0028 219.081 92.1969 219.296 92.3044 219.555L92.2831 219.534Z" fill="#DD56FF"/>
<path d="M144.606 211.686C138.856 217.418 131.069 220.637 122.951 220.637C114.832 220.637 107.045 217.418 101.296 211.686C101.228 211.496 101.094 211.336 100.92 211.235C100.745 211.134 100.54 211.098 100.341 211.134C100.142 211.17 99.9625 211.275 99.834 211.431C99.7055 211.587 99.6365 211.783 99.6393 211.985V219.314C99.6284 219.433 99.6425 219.553 99.6806 219.666C99.7188 219.779 99.7801 219.883 99.8606 219.972C99.9412 220.06 100.039 220.13 100.149 220.179C100.258 220.227 100.376 220.252 100.496 220.252C100.615 220.252 100.734 220.227 100.843 220.179C100.952 220.13 101.05 220.06 101.131 219.972C101.212 219.883 101.273 219.779 101.311 219.666C101.349 219.553 101.363 219.433 101.352 219.314V214.018C107.284 219.344 114.975 222.291 122.947 222.291C130.919 222.291 138.61 219.344 144.542 214.018V219.356C144.531 219.475 144.545 219.595 144.583 219.709C144.621 219.822 144.682 219.926 144.763 220.014C144.844 220.103 144.942 220.173 145.051 220.221C145.16 220.269 145.279 220.294 145.398 220.294C145.518 220.294 145.636 220.269 145.745 220.221C145.855 220.173 145.953 220.103 146.033 220.014C146.114 219.926 146.175 219.822 146.213 219.709C146.252 219.595 146.266 219.475 146.255 219.356V212.013C146.26 211.812 146.194 211.616 146.068 211.459C145.942 211.302 145.765 211.194 145.568 211.155C145.371 211.116 145.166 211.148 144.99 211.245C144.814 211.342 144.678 211.499 144.606 211.686V211.686Z" fill="#DD56FF"/>
<path d="M144.606 173.963C138.855 168.235 131.068 165.019 122.951 165.019C114.834 165.019 107.047 168.235 101.296 173.963C101.228 174.154 101.094 174.315 100.919 174.416C100.743 174.517 100.537 174.553 100.338 174.516C100.139 174.479 99.9588 174.372 99.8309 174.215C99.703 174.058 99.6353 173.86 99.6399 173.658V166.308C99.6594 166.094 99.758 165.895 99.9165 165.751C100.075 165.606 100.282 165.526 100.496 165.526C100.711 165.526 100.918 165.606 101.076 165.751C101.235 165.895 101.333 166.094 101.353 166.308V171.632C107.286 166.308 114.976 163.364 122.948 163.364C130.919 163.364 138.609 166.308 144.542 171.632V166.294C144.562 166.08 144.66 165.881 144.819 165.737C144.977 165.592 145.184 165.512 145.399 165.512C145.613 165.512 145.82 165.592 145.979 165.737C146.137 165.881 146.236 166.08 146.255 166.294V173.622C146.26 173.823 146.194 174.02 146.069 174.177C145.943 174.334 145.766 174.441 145.569 174.48C145.371 174.519 145.166 174.488 144.99 174.39C144.814 174.293 144.678 174.137 144.606 173.949V173.963Z" fill="#DD56FF"/>
<path d="M130.326 182.301V157.6C128.793 157.212 127.238 156.918 125.67 156.719V180.546C127.328 180.798 128.914 181.396 130.326 182.301V182.301Z" fill="#DD56FF"/>
<path d="M135.884 190.824H159.981C159.768 189.37 159.474 187.93 159.099 186.509H134.349C135.124 187.84 135.644 189.303 135.884 190.824V190.824Z" fill="#DD56FF"/>
<path d="M130.326 203.654V228.355C128.793 228.743 127.238 229.038 125.67 229.237V205.41C127.328 205.158 128.914 204.559 130.326 203.654V203.654Z" fill="#DD56FF"/>
<path d="M135.884 195.132H159.981C159.768 196.588 159.474 198.03 159.099 199.453H134.349C135.123 198.12 135.643 196.655 135.884 195.132V195.132Z" fill="#DD56FF"/>
<path d="M116.905 182.301V157.6C118.44 157.212 119.997 156.917 121.568 156.719V180.546C119.908 180.797 118.319 181.395 116.905 182.301V182.301Z" fill="#DD56FF"/>
<path d="M111.347 190.824H87.25C87.4629 189.37 87.7572 187.93 88.1314 186.509H112.882C112.107 187.84 111.586 189.303 111.347 190.824V190.824Z" fill="#DD56FF"/>
<path d="M116.905 203.654V228.355C118.44 228.744 119.997 229.038 121.568 229.237V205.41C119.908 205.159 118.319 204.561 116.905 203.654V203.654Z" fill="#DD56FF"/>
<path d="M111.347 195.132H87.25C87.4629 196.588 87.7572 198.03 88.1314 199.453H112.882C112.108 198.12 111.588 196.655 111.347 195.132V195.132Z" fill="#DD56FF"/>
<g opacity="0.4">
<path opacity="0.4" d="M158.402 163.977V168.661C163.359 175.745 166.017 184.182 166.017 192.829C166.017 201.475 163.359 209.912 158.402 216.997V221.681C165.158 213.586 168.859 203.376 168.859 192.832C168.859 182.288 165.158 172.079 158.402 163.984V163.977Z" fill="#DD56FF"/>
<path opacity="0.4" d="M87.2068 213.791C83.5569 207.405 81.6371 200.177 81.6371 192.821C81.6371 185.466 83.5569 178.238 87.2068 171.852V166.606C81.7332 174.253 78.79 183.421 78.79 192.825C78.79 202.229 81.7332 211.397 87.2068 219.044V213.791Z" fill="#DD56FF"/>
</g>
<path d="M124.156 133.561H123.495V184.995H124.156V133.561Z" fill="#DD56FF"/>
<path d="M125.705 133.006C125.705 133.377 125.595 133.74 125.389 134.049C125.183 134.357 124.89 134.598 124.547 134.74C124.204 134.882 123.827 134.919 123.463 134.847C123.099 134.774 122.764 134.596 122.502 134.333C122.239 134.071 122.061 133.736 121.988 133.372C121.916 133.008 121.953 132.631 122.095 132.288C122.237 131.945 122.478 131.652 122.786 131.446C123.095 131.24 123.458 131.13 123.829 131.13C124.326 131.13 124.804 131.327 125.156 131.679C125.508 132.031 125.705 132.508 125.705 133.006V133.006Z" fill="#DD56FF"/>
<path d="M123.829 129.331C124.516 129.331 125.073 128.774 125.073 128.087C125.073 127.4 124.516 126.843 123.829 126.843C123.142 126.843 122.585 127.4 122.585 128.087C122.585 128.774 123.142 129.331 123.829 129.331Z" fill="#DD56FF"/>
<path d="M124.603 124.775C124.603 124.928 124.558 125.078 124.473 125.205C124.388 125.333 124.267 125.432 124.125 125.491C123.983 125.549 123.828 125.565 123.677 125.535C123.527 125.505 123.389 125.431 123.281 125.323C123.172 125.214 123.098 125.076 123.069 124.926C123.039 124.776 123.054 124.62 123.113 124.478C123.171 124.337 123.271 124.216 123.398 124.131C123.525 124.045 123.675 124 123.828 124C124.034 124 124.231 124.082 124.376 124.227C124.522 124.372 124.603 124.569 124.603 124.775Z" fill="#DD56FF"/>
<path d="M124.156 200.655H123.495V252.09H124.156V200.655Z" fill="#DD56FF"/>
<path d="M121.952 252.616C121.952 252.244 122.062 251.882 122.268 251.573C122.475 251.264 122.768 251.024 123.111 250.882C123.453 250.74 123.831 250.703 124.195 250.775C124.559 250.847 124.893 251.026 125.156 251.289C125.418 251.551 125.597 251.885 125.669 252.25C125.742 252.614 125.704 252.991 125.562 253.334C125.42 253.677 125.18 253.97 124.871 254.176C124.563 254.382 124.2 254.492 123.829 254.492C123.331 254.492 122.854 254.294 122.502 253.943C122.15 253.591 121.952 253.113 121.952 252.616V252.616Z" fill="#DD56FF"/>
<path d="M122.585 257.591C122.585 257.345 122.658 257.105 122.795 256.9C122.931 256.695 123.126 256.536 123.353 256.442C123.58 256.348 123.83 256.323 124.072 256.371C124.313 256.419 124.535 256.538 124.709 256.712C124.882 256.885 125.001 257.107 125.049 257.348C125.097 257.59 125.072 257.84 124.978 258.067C124.884 258.294 124.725 258.489 124.52 258.625C124.315 258.762 124.075 258.835 123.829 258.835C123.499 258.835 123.183 258.704 122.949 258.471C122.716 258.237 122.585 257.921 122.585 257.591Z" fill="#DD56FF"/>
<path d="M123.054 260.875C123.054 260.722 123.099 260.572 123.184 260.445C123.269 260.317 123.39 260.218 123.532 260.159C123.674 260.101 123.829 260.085 123.98 260.115C124.13 260.145 124.268 260.219 124.376 260.327C124.485 260.436 124.559 260.574 124.588 260.724C124.618 260.874 124.603 261.03 124.544 261.172C124.486 261.313 124.386 261.434 124.259 261.519C124.132 261.604 123.982 261.65 123.828 261.65C123.623 261.65 123.426 261.568 123.281 261.423C123.135 261.278 123.054 261.081 123.054 260.875Z" fill="#DD56FF"/>
<path d="M183.089 192.495H131.654V193.156H183.089V192.495Z" fill="#DD56FF"/>
<path d="M183.644 194.705C183.273 194.705 182.91 194.595 182.602 194.389C182.293 194.183 182.052 193.889 181.91 193.547C181.768 193.204 181.731 192.826 181.804 192.462C181.876 192.098 182.055 191.764 182.317 191.502C182.58 191.239 182.914 191.06 183.278 190.988C183.642 190.916 184.019 190.953 184.362 191.095C184.705 191.237 184.998 191.477 185.204 191.786C185.411 192.095 185.521 192.457 185.521 192.828C185.521 193.326 185.323 193.803 184.971 194.155C184.619 194.507 184.142 194.705 183.644 194.705V194.705Z" fill="#DD56FF"/>
<path d="M188.535 194.066C188.289 194.065 188.048 193.992 187.843 193.855C187.638 193.718 187.479 193.524 187.385 193.296C187.291 193.068 187.267 192.818 187.315 192.576C187.364 192.335 187.483 192.113 187.658 191.939C187.833 191.766 188.055 191.648 188.297 191.601C188.538 191.553 188.789 191.579 189.016 191.674C189.243 191.77 189.437 191.93 189.573 192.136C189.709 192.341 189.78 192.582 189.779 192.829C189.777 193.157 189.645 193.472 189.412 193.704C189.179 193.935 188.864 194.066 188.535 194.066V194.066Z" fill="#DD56FF"/>
<path d="M191.875 193.617C191.722 193.617 191.572 193.572 191.445 193.487C191.318 193.402 191.218 193.281 191.16 193.139C191.101 192.998 191.086 192.842 191.115 192.691C191.145 192.541 191.219 192.403 191.328 192.295C191.436 192.186 191.574 192.113 191.724 192.083C191.875 192.053 192.03 192.068 192.172 192.127C192.313 192.185 192.434 192.285 192.52 192.412C192.605 192.54 192.65 192.689 192.65 192.843C192.65 192.944 192.63 193.045 192.591 193.139C192.552 193.233 192.495 193.319 192.423 193.391C192.351 193.462 192.266 193.52 192.172 193.558C192.078 193.597 191.977 193.617 191.875 193.617V193.617Z" fill="#DD56FF"/>
<path d="M115.995 192.495H64.5605V193.156H115.995V192.495Z" fill="#DD56FF"/>
<path d="M64.0065 190.952C64.3776 190.952 64.7404 191.062 65.049 191.268C65.3576 191.474 65.5981 191.767 65.7402 192.11C65.8822 192.453 65.9194 192.831 65.847 193.195C65.7746 193.559 65.5958 193.893 65.3334 194.155C65.0709 194.418 64.7366 194.597 64.3725 194.669C64.0085 194.741 63.6312 194.704 63.2883 194.562C62.9455 194.42 62.6524 194.18 62.4462 193.871C62.24 193.562 62.1299 193.2 62.1299 192.828C62.1299 192.331 62.3276 191.853 62.6795 191.502C63.0314 191.15 63.5088 190.952 64.0065 190.952V190.952Z" fill="#DD56FF"/>
<path d="M59.0874 191.585C59.3337 191.583 59.5749 191.655 59.7804 191.791C59.9859 191.927 60.1465 192.12 60.2417 192.348C60.3369 192.575 60.3626 192.825 60.3154 193.067C60.2682 193.309 60.1503 193.531 59.9766 193.706C59.8029 193.88 59.5813 194 59.3398 194.048C59.0983 194.097 58.8478 194.073 58.6201 193.979C58.3924 193.885 58.1977 193.725 58.0607 193.52C57.9237 193.316 57.8506 193.075 57.8506 192.829C57.8506 192.5 57.9806 192.185 58.2124 191.952C58.4441 191.718 58.7587 191.587 59.0874 191.585V191.585Z" fill="#DD56FF"/>
<path d="M55.7748 192.054C55.928 192.054 56.0778 192.099 56.2052 192.184C56.3326 192.269 56.4319 192.39 56.4906 192.532C56.5492 192.674 56.5646 192.829 56.5347 192.98C56.5048 193.13 56.431 193.268 56.3226 193.376C56.2143 193.485 56.0762 193.559 55.9259 193.588C55.7756 193.618 55.6199 193.603 55.4783 193.544C55.3367 193.486 55.2157 193.386 55.1305 193.259C55.0454 193.132 55 192.982 55 192.829C55 192.623 55.0816 192.426 55.2269 192.281C55.3722 192.135 55.5693 192.054 55.7748 192.054Z" fill="#DD56FF"/>
<path d="M124.156 133.561H123.495V184.995H124.156V133.561Z" fill="#DD56FF"/>
<path d="M125.705 133.006C125.705 133.377 125.595 133.74 125.389 134.049C125.183 134.357 124.89 134.598 124.547 134.74C124.204 134.882 123.827 134.919 123.463 134.847C123.099 134.774 122.764 134.596 122.502 134.333C122.239 134.071 122.061 133.736 121.988 133.372C121.916 133.008 121.953 132.631 122.095 132.288C122.237 131.945 122.478 131.652 122.786 131.446C123.095 131.24 123.458 131.13 123.829 131.13C124.326 131.13 124.804 131.327 125.156 131.679C125.508 132.031 125.705 132.508 125.705 133.006V133.006Z" fill="#DD56FF"/>
<path d="M123.829 129.331C124.516 129.331 125.073 128.774 125.073 128.087C125.073 127.4 124.516 126.843 123.829 126.843C123.142 126.843 122.585 127.4 122.585 128.087C122.585 128.774 123.142 129.331 123.829 129.331Z" fill="#DD56FF"/>
<path d="M124.603 124.775C124.603 124.928 124.558 125.078 124.473 125.205C124.388 125.333 124.267 125.432 124.125 125.491C123.983 125.549 123.828 125.565 123.677 125.535C123.527 125.505 123.389 125.431 123.281 125.323C123.172 125.214 123.098 125.076 123.069 124.926C123.039 124.776 123.054 124.62 123.113 124.478C123.171 124.337 123.271 124.216 123.398 124.131C123.525 124.045 123.675 124 123.828 124C124.034 124 124.231 124.082 124.376 124.227C124.522 124.372 124.603 124.569 124.603 124.775Z" fill="#DD56FF"/>
<path d="M124.156 200.655H123.495V252.09H124.156V200.655Z" fill="#DD56FF"/>
<path d="M121.952 252.616C121.952 252.244 122.062 251.882 122.268 251.573C122.475 251.264 122.768 251.024 123.111 250.882C123.453 250.74 123.831 250.703 124.195 250.775C124.559 250.847 124.893 251.026 125.156 251.289C125.418 251.551 125.597 251.885 125.669 252.25C125.742 252.614 125.704 252.991 125.562 253.334C125.42 253.677 125.18 253.97 124.871 254.176C124.563 254.382 124.2 254.492 123.829 254.492C123.331 254.492 122.854 254.294 122.502 253.943C122.15 253.591 121.952 253.113 121.952 252.616V252.616Z" fill="#DD56FF"/>
<path d="M122.585 257.591C122.585 257.345 122.658 257.105 122.795 256.9C122.931 256.695 123.126 256.536 123.353 256.442C123.58 256.348 123.83 256.323 124.072 256.371C124.313 256.419 124.535 256.538 124.709 256.712C124.882 256.885 125.001 257.107 125.049 257.348C125.097 257.59 125.072 257.84 124.978 258.067C124.884 258.294 124.725 258.489 124.52 258.625C124.315 258.762 124.075 258.835 123.829 258.835C123.499 258.835 123.183 258.704 122.949 258.471C122.716 258.237 122.585 257.921 122.585 257.591Z" fill="#DD56FF"/>
<path d="M123.054 260.875C123.054 260.722 123.099 260.572 123.184 260.445C123.269 260.317 123.39 260.218 123.532 260.159C123.674 260.101 123.829 260.085 123.98 260.115C124.13 260.145 124.268 260.219 124.376 260.327C124.485 260.436 124.559 260.574 124.588 260.724C124.618 260.874 124.603 261.03 124.544 261.172C124.486 261.313 124.386 261.434 124.259 261.519C124.132 261.604 123.982 261.65 123.828 261.65C123.623 261.65 123.426 261.568 123.281 261.423C123.135 261.278 123.054 261.081 123.054 260.875Z" fill="#DD56FF"/>
<path d="M183.089 192.495H131.654V193.156H183.089V192.495Z" fill="#DD56FF"/>
<path d="M183.644 194.705C183.273 194.705 182.91 194.595 182.602 194.389C182.293 194.183 182.052 193.889 181.91 193.547C181.768 193.204 181.731 192.826 181.804 192.462C181.876 192.098 182.055 191.764 182.317 191.502C182.58 191.239 182.914 191.06 183.278 190.988C183.642 190.916 184.019 190.953 184.362 191.095C184.705 191.237 184.998 191.477 185.204 191.786C185.411 192.095 185.521 192.457 185.521 192.828C185.521 193.326 185.323 193.803 184.971 194.155C184.619 194.507 184.142 194.705 183.644 194.705V194.705Z" fill="#DD56FF"/>
<path d="M188.535 194.066C188.289 194.065 188.048 193.992 187.843 193.855C187.638 193.718 187.479 193.524 187.385 193.296C187.291 193.068 187.267 192.818 187.315 192.576C187.364 192.335 187.483 192.113 187.658 191.939C187.833 191.766 188.055 191.648 188.297 191.601C188.538 191.553 188.789 191.579 189.016 191.674C189.243 191.77 189.437 191.93 189.573 192.136C189.709 192.341 189.78 192.582 189.779 192.829C189.777 193.157 189.645 193.472 189.412 193.704C189.179 193.935 188.864 194.066 188.535 194.066V194.066Z" fill="#DD56FF"/>
<path d="M191.875 193.617C191.722 193.617 191.572 193.572 191.445 193.487C191.318 193.402 191.218 193.281 191.16 193.139C191.101 192.998 191.086 192.842 191.115 192.691C191.145 192.541 191.219 192.403 191.328 192.295C191.436 192.186 191.574 192.113 191.724 192.083C191.875 192.053 192.03 192.068 192.172 192.127C192.313 192.185 192.434 192.285 192.52 192.412C192.605 192.54 192.65 192.689 192.65 192.843C192.65 192.944 192.63 193.045 192.591 193.139C192.552 193.233 192.495 193.319 192.423 193.391C192.351 193.462 192.266 193.52 192.172 193.558C192.078 193.597 191.977 193.617 191.875 193.617V193.617Z" fill="#DD56FF"/>
<path d="M115.995 192.495H64.5605V193.156H115.995V192.495Z" fill="#DD56FF"/>
<path d="M64.0065 190.952C64.3776 190.952 64.7404 191.062 65.049 191.268C65.3576 191.474 65.5981 191.767 65.7402 192.11C65.8822 192.453 65.9194 192.831 65.847 193.195C65.7746 193.559 65.5958 193.893 65.3334 194.155C65.0709 194.418 64.7366 194.597 64.3725 194.669C64.0085 194.741 63.6312 194.704 63.2883 194.562C62.9455 194.42 62.6524 194.18 62.4462 193.871C62.24 193.562 62.1299 193.2 62.1299 192.828C62.1299 192.331 62.3276 191.853 62.6795 191.502C63.0314 191.15 63.5088 190.952 64.0065 190.952V190.952Z" fill="#DD56FF"/>
<path d="M59.0874 191.585C59.3337 191.583 59.5749 191.655 59.7804 191.791C59.9859 191.927 60.1465 192.12 60.2417 192.348C60.3369 192.575 60.3626 192.825 60.3154 193.067C60.2682 193.309 60.1503 193.531 59.9766 193.706C59.8029 193.88 59.5813 194 59.3398 194.048C59.0983 194.097 58.8478 194.073 58.6201 193.979C58.3924 193.885 58.1977 193.725 58.0607 193.52C57.9237 193.316 57.8506 193.075 57.8506 192.829C57.8506 192.5 57.9806 192.185 58.2124 191.952C58.4441 191.718 58.7587 191.587 59.0874 191.585V191.585Z" fill="#DD56FF"/>
<path d="M55.7748 192.054C55.928 192.054 56.0778 192.099 56.2052 192.184C56.3326 192.269 56.4319 192.39 56.4906 192.532C56.5492 192.674 56.5646 192.829 56.5347 192.98C56.5048 193.13 56.431 193.268 56.3226 193.376C56.2143 193.485 56.0762 193.559 55.9259 193.588C55.7756 193.618 55.6199 193.603 55.4783 193.544C55.3367 193.486 55.2157 193.386 55.1305 193.259C55.0454 193.132 55 192.982 55 192.829C55 192.623 55.0816 192.426 55.2269 192.281C55.3722 192.135 55.5693 192.054 55.7748 192.054Z" fill="#DD56FF"/>
<path d="M94.5211 149.497L94.3008 157.885C94.3008 157.885 121.234 137.797 151.92 157.885V148.836C151.92 148.836 124.326 133.383 94.5211 149.497Z" fill="#DD56FF"/>
<path d="M151.699 236.203L151.92 227.815C151.92 227.815 124.987 247.91 94.3008 227.815V236.871C94.3008 236.871 121.902 252.324 151.699 236.203Z" fill="#DD56FF"/>
<ellipse cx="123.5" cy="192.5" rx="30.5" ry="29.5" fill="#DD56FF"/>
<path d="M122.789 211.75C119.555 211.75 116.781 210.883 114.469 209.148C112.156 207.398 110.766 205.141 110.297 202.375H117.281C117.625 203.516 118.305 204.43 119.32 205.117C120.352 205.805 121.547 206.148 122.906 206.148C125.266 206.148 127.094 205.078 128.391 202.938C129.703 200.797 130.312 197.805 130.219 193.961H130.148H130.102H130.078C129.453 195.648 128.344 196.992 126.75 197.992C125.156 198.992 123.266 199.492 121.078 199.492C117.875 199.492 115.203 198.438 113.062 196.328C110.922 194.203 109.852 191.539 109.852 188.336C109.852 184.867 111.078 182.016 113.531 179.781C115.984 177.531 119.102 176.406 122.883 176.406C125.336 176.406 127.531 176.938 129.469 178C131.422 179.062 132.984 180.594 134.156 182.594C136.047 185.5 136.992 189.234 136.992 193.797C136.992 199.406 135.734 203.805 133.219 206.992C130.719 210.164 127.242 211.75 122.789 211.75ZM118.523 192.461C119.695 193.602 121.164 194.172 122.93 194.172C124.695 194.172 126.164 193.602 127.336 192.461C128.523 191.305 129.117 189.875 129.117 188.172C129.117 186.453 128.523 185.008 127.336 183.836C126.148 182.648 124.695 182.055 122.977 182.055C121.242 182.055 119.773 182.641 118.57 183.812C117.367 184.984 116.766 186.422 116.766 188.125C116.766 189.859 117.352 191.305 118.523 192.461Z" fill="#0A101B"/>
</g>
<g filter="url(#filter0_d_81_2)">
<rect x="213" y="422" width="118" height="32" fill="#DD56FF"/>
<rect x="213.5" y="422.5" width="117" height="31" stroke="#DD56FF"/>
</g>
<path d="M223.22 410.152C223.161 410.154 223.282 410.349 223.238 410.291C223.021 410.003 223 409.923 223 409.839C223 409.756 223.021 409.675 223.06 409.614L229.597 400.597C229.616 400.563 229.641 400.537 229.669 400.519C229.696 400.501 229.727 400.493 229.757 400.495H346.911V360.32C346.911 360.235 346.935 360.154 346.976 360.094C347.017 360.034 347.073 360 347.132 360C347.19 360 347.246 360.034 347.287 360.094C347.329 360.154 347.352 360.235 347.352 360.32V400.815C347.352 400.9 347.329 400.982 347.287 401.042C347.246 401.102 347.19 401.135 347.132 401.135H229.847L223.371 410.065C223.33 410.121 223.276 410.152 223.22 410.152Z" fill="#7EFACD"/>
<path d="M241.763 403.682L243.445 400.815H285.921L284.018 403.042H273.785L272.033 404.745H249.663L245.858 402.62L241.763 403.682Z" fill="#7EFACD"/>
<path d="M322.23 286L322.132 294.193L299.16 314.806L321.617 336.002L321.508 345L254.571 314.644L322.23 286Z" fill="#7EFACD"/>
<path d="M301.188 338.558L301.317 330.507L281.481 315.007L301.772 299.91L301.881 292.431L238 314.795L301.188 338.558ZM299.922 331.171L299.843 336.556L242.096 314.876L300.466 294.414L300.397 299.195L279.176 314.956L299.922 331.171Z" fill="#7EFACD"/>
<path d="M325.644 340.652L326 290.328L267.571 315.057L325.644 340.652ZM325.357 291.334L325.011 339.646L269.223 315.057L325.357 291.334Z" fill="#7EFACD"/>
<path d="M75.9629 315.926V312.094H79.0391C80.2461 312.094 81.2246 311.766 81.9746 311.109C82.7246 310.453 83.0996 309.604 83.0996 308.561C83.0996 307.518 82.7422 306.691 82.0273 306.082C81.3125 305.461 80.3047 305.15 79.0039 305.15C77.7734 305.15 76.7773 305.484 76.0156 306.152C75.2539 306.82 74.8379 307.711 74.7676 308.824H69.8809C69.9746 306.469 70.8711 304.588 72.5703 303.182C74.2695 301.775 76.4902 301.072 79.2324 301.072C81.8809 301.072 84.0195 301.693 85.6484 302.936C87.2891 304.178 88.1094 305.812 88.1094 307.84C88.1094 309.375 87.6289 310.676 86.668 311.742C85.707 312.809 84.4414 313.482 82.8711 313.764V313.869C84.7812 314.033 86.293 314.66 87.4062 315.75C88.5312 316.828 89.0938 318.24 89.0938 319.986C89.0938 322.248 88.1621 324.076 86.2988 325.471C84.4473 326.865 82.0508 327.562 79.1094 327.562C76.2617 327.562 73.959 326.848 72.2012 325.418C70.4551 323.988 69.5176 322.096 69.3887 319.74H74.4688C74.5508 320.818 75.0078 321.68 75.8398 322.324C76.6836 322.969 77.7969 323.291 79.1797 323.291C80.5039 323.291 81.5879 322.951 82.4316 322.271C83.2754 321.592 83.6973 320.719 83.6973 319.652C83.6973 318.492 83.2871 317.584 82.4668 316.928C81.6465 316.26 80.5215 315.926 79.0918 315.926H75.9629ZM102.594 327.58C100.766 327.58 99.125 327.182 97.6719 326.385C96.2305 325.576 95.0645 324.416 94.1738 322.904C92.7559 320.736 92.0469 317.941 92.0469 314.52C92.0469 310.336 92.9961 307.049 94.8945 304.658C96.793 302.256 99.3887 301.055 102.682 301.055C105.096 301.055 107.164 301.705 108.887 303.006C110.609 304.307 111.646 305.994 111.998 308.068H106.777C106.52 307.225 106.016 306.545 105.266 306.029C104.516 305.514 103.643 305.256 102.646 305.256C100.865 305.256 99.4766 306.064 98.4805 307.682C97.4961 309.299 97.0332 311.531 97.0918 314.379H97.1973C97.7129 313.125 98.5684 312.123 99.7637 311.373C100.959 310.623 102.354 310.248 103.947 310.248C106.361 310.248 108.359 311.045 109.941 312.639C111.535 314.221 112.332 316.213 112.332 318.615C112.332 321.229 111.418 323.379 109.59 325.066C107.762 326.742 105.43 327.58 102.594 327.58ZM102.541 323.344C103.83 323.344 104.92 322.904 105.811 322.025C106.713 321.135 107.164 320.051 107.164 318.773C107.164 317.461 106.725 316.377 105.846 315.521C104.979 314.666 103.883 314.238 102.559 314.238C101.234 314.238 100.127 314.666 99.2363 315.521C98.3574 316.377 97.918 317.443 97.918 318.721C97.918 320.01 98.3633 321.105 99.2539 322.008C100.145 322.898 101.24 323.344 102.541 323.344Z" fill="#7EFACD"/>
<defs>
<filter id="filter0_d_81_2" x="209" y="421" width="126" height="40" filterUnits="userSpaceOnUse" color-interpolation-filters="sRGB">
<feFlood flood-opacity="0" result="BackgroundImageFix"/>
<feColorMatrix in="SourceAlpha" type="matrix" values="0 0 0 0 0 0 0 0 0 0 0 0 0 0 0 0 0 0 127 0" result="hardAlpha"/>
<feOffset dy="3"/>
<feGaussianBlur stdDeviation="2"/>
<feColorMatrix type="matrix" values="0 0 0 0 0.0117647 0 0 0 0 0.180392 0 0 0 0 0.909804 0 0 0 0.21 0"/>
<feBlend mode="normal" in2="BackgroundImageFix" result="effect1_dropShadow_81_2"/>
<feBlend mode="normal" in="SourceGraphic" in2="effect1_dropShadow_81_2" result="shape"/>
</filter>
<clipPath id="clip0_81_2">
<rect width="137.65" height="137.65" fill="white" transform="translate(55 124)"/>
</clipPath>
</defs>
</svg>
