<svg width="381" height="511" viewBox="0 0 381 511" fill="none" xmlns="http://www.w3.org/2000/svg">
<rect x="144" y="7" width="206" height="29" fill="#07090C"/>
<path d="M367 71.0152V304.2L355.272 356.82V471.637L344.255 496.736H282.503L270.933 488.37H101.913L87.8653 494.342H49.2012L32.8079 470.427V423.779L42.1642 396.285V250.397L25.7709 228.875V151.156H21.0796V22H343.833L367 71.0152Z" fill="#0A101B"/>
<path d="M19.7948 21.0104V151.807H24.4862V229.015L40.8795 250.537V395.995L31.523 423.515V470.54L48.312 495.02H87.5292L101.603 489.048H270.281L281.851 497.415H344.367L355.673 471.643V356.772L367.402 304.152V70.671V70.5098L344.024 21.0104H19.7948ZM21.4028 150.139V22.6244H342.944L365.794 71.0477V303.964L354.066 356.584V471.293L343.339 495.774H282.352L270.781 487.407H101.366L87.2924 493.379H49.2083L33.2101 470.029V423.784L42.5666 396.264V249.972L26.1733 228.45V150.166L21.4028 150.139Z" fill="#7EFACD"/>
<path d="M381 163.052V177.068H372.882V180.888H381V189.174H372.882V192.994H381V201.279H372.882V205.1H381V213.385H372.882V217.205H381V225.491H372.882V229.311H381V240.153H372.882V287.904L366.03 308.349V177.821L366.531 70.8596L381 163.052Z" fill="#7EFACD"/>
<path d="M332.743 501.638V511H327.683V504.49H324.757V511H318.379V504.49H315.427V511H309.049V504.49H306.124V511H299.746V504.49H296.794V511H290.416V504.49H287.49V511H283.721V501.638H332.743Z" fill="#7EFACD"/>
<path d="M19.3711 147.073L19.3183 152.238H4.37463V147.799H12.4922V144.113H4.37463V136.123H12.4922V132.438H4.37463V124.448H12.4922V120.763H4.37463V112.773H12.4922V109.087H4.37463V101.097H12.4922V97.4118H4.37463V86.9739H12.4922V40.8911L19.3711 21.172V147.073Z" fill="#7EFACD"/>
<path d="M344.418 496.581L335.352 503.226H276.684L265.957 494.94H102.34L88.4501 500.67H58.7997L46.8605 494.186L84.0487 493.675L100.152 488.214H270.279L281.981 496.581H344.418Z" fill="#7EFACD"/>
<path d="M346.686 359.247H352.932L354.804 360.538V471.481L346.686 464.272V359.247Z" fill="#7EFACD"/>
<path d="M279.268 26.7408L263.692 31.2064H66.7871L57.6153 21.8446H343.365L333.587 26.7408H279.268Z" fill="#7EFACD"/>
<path d="M32.3399 470.271L21.2442 459.268V413.4L33.0779 391.099V333.771L36.2142 321.046V266.893L41.1955 250.967L41.6963 396.129L32.3399 423.623V470.271Z" fill="#7EFACD"/>
<path d="M17.6847 466.289C17.662 466.368 17.662 466.452 17.6847 466.531L42.6442 501.504L51.3939 506.615H51.5785H92.7724H92.9307L104.712 501.558H257.101L265.008 506.588C265.082 506.662 265.181 506.703 265.285 506.703C265.388 506.703 265.488 506.662 265.561 506.588C265.59 506.542 265.61 506.491 265.619 506.438C265.628 506.385 265.625 506.33 265.613 506.277C265.601 506.224 265.578 506.175 265.547 506.131C265.515 506.087 265.475 506.051 265.43 506.023L257.312 500.939C257.245 500.912 257.169 500.912 257.101 500.939H104.237L92.4565 505.996H51.4466L42.881 500.993L17.9749 466.02C17.901 465.946 17.8017 465.905 17.6982 465.905C17.5947 465.905 17.4954 465.946 17.4215 466.02C17.4439 466.082 17.479 466.137 17.5244 466.184C17.5699 466.23 17.6244 466.266 17.6847 466.289V466.289Z" fill="#7EFACD"/>
<path d="M350.638 499.405C350.633 499.486 350.653 499.566 350.696 499.634C350.739 499.701 350.802 499.753 350.875 499.782C350.974 499.82 351.082 499.819 351.18 499.779C351.277 499.739 351.356 499.663 351.402 499.567L361.945 472.665C361.945 472.665 361.945 472.665 361.945 472.504V357.956L380.024 289.221V247.712C380.025 247.657 380.014 247.602 379.992 247.551C379.971 247.5 379.939 247.455 379.9 247.417C379.86 247.379 379.814 247.35 379.763 247.331C379.711 247.313 379.657 247.305 379.603 247.309C379.498 247.309 379.398 247.351 379.324 247.427C379.25 247.502 379.208 247.605 379.208 247.712V289.06L361.127 357.794V472.369L350.585 499.056C350.563 499.113 350.556 499.176 350.565 499.238C350.574 499.299 350.599 499.357 350.638 499.405V499.405Z" fill="#7EFACD"/>
<path d="M377.696 24.8303V20.3647L367.707 0H329.017L318.422 4.4387H176.443L165.189 8.25888H368.946L377.696 24.8303Z" fill="#7EFACD"/>
<path d="M176.006 501.934L169.127 505.755H107.981L96.1213 510.22H54.9272L51.8172 506.4H93.0114L104.845 501.316L176.006 501.934Z" fill="#7EFACD"/>
<path d="M16.4477 170.72V266.894C16.4477 267.001 16.4894 267.103 16.5635 267.179C16.6377 267.255 16.7386 267.297 16.8434 267.297H28.3078V323.522L24.5919 332.991C24.5796 333.044 24.5796 333.1 24.5919 333.153V391.664L20.2692 401.134C20.2428 401.181 20.2271 401.233 20.2222 401.286C20.2173 401.34 20.2234 401.395 20.2409 401.446C20.2584 401.497 20.2865 401.543 20.3232 401.582C20.36 401.621 20.4046 401.652 20.4539 401.672C20.5482 401.718 20.6568 401.724 20.7556 401.689C20.8545 401.653 20.9353 401.58 20.9808 401.483L25.3563 391.933C25.3691 391.871 25.3691 391.807 25.3563 391.745V333.234L29.0723 323.737V267.028C29.0723 266.975 29.0619 266.922 29.042 266.874C29.0222 266.825 28.9932 266.78 28.9564 266.743C28.9197 266.705 28.8764 266.675 28.8284 266.655C28.7804 266.635 28.7291 266.625 28.6772 266.625H17.2385V170.854C17.2386 170.799 17.2278 170.744 17.2064 170.693C17.1849 170.642 17.1532 170.596 17.1137 170.559C17.0741 170.521 17.027 170.492 16.976 170.473C16.9249 170.455 16.8712 170.447 16.8171 170.451C16.736 170.451 16.6566 170.477 16.5906 170.525C16.5246 170.574 16.4748 170.641 16.4477 170.72V170.72Z" fill="#7EFACD"/>
<path d="M24.988 371.353L19.3742 380.284V328.04L23.7229 318.49V271.977H13.1279V228.047L16.2379 219.115L16.8704 266.893H28.7305V323.575L24.988 333.152V371.353Z" fill="#7EFACD"/>
<path d="M3.34769 31.7708V66.232H4.16471V31.9052L13.3893 6.77902H94.249V5.94507H12.8358L3.34769 31.7708Z" fill="#7EFACD"/>
<path d="M61.8572 0L68.0244 5.7301H13.1252L3.76887 31.8518V44.5763L6.17118e-07 39.4919V26.7404L11.0695 0H61.8572Z" fill="#7EFACD"/>
<path d="M157.475 38.8461C157.475 38.9603 157.52 39.0698 157.599 39.1505C157.678 39.2312 157.786 39.2766 157.898 39.2766H341.413L356.252 70.1599V179.623C356.251 179.733 356.292 179.838 356.366 179.918C356.439 179.998 356.54 180.047 356.647 180.054C356.701 180.054 356.755 180.043 356.804 180.021C356.854 179.999 356.899 179.967 356.936 179.926C356.973 179.886 357.002 179.838 357.02 179.786C357.038 179.734 357.045 179.678 357.042 179.623V70.106C357.056 70.0441 357.056 69.9797 357.042 69.9178L342.072 38.7115C342.041 38.6384 341.989 38.5766 341.923 38.5335C341.858 38.4904 341.781 38.4681 341.703 38.4694H157.924C157.816 38.4617 157.709 38.4966 157.626 38.5666C157.543 38.6367 157.489 38.7367 157.475 38.8461V38.8461Z" fill="#7EFACD"/>
<path d="M42.0389 422.95V464.379C42.0124 464.448 42.0124 464.525 42.0389 464.594L56.377 486.116C56.4165 486.171 56.4676 486.217 56.5269 486.25C56.5862 486.282 56.652 486.301 56.7193 486.304H80.4395H80.5978L91.1402 481.246H134.759C134.811 481.246 134.862 481.236 134.91 481.216C134.958 481.196 135.002 481.166 135.038 481.128C135.075 481.091 135.104 481.046 135.124 480.997C135.144 480.948 135.154 480.896 135.154 480.843C135.154 480.736 135.113 480.633 135.038 480.558C134.964 480.482 134.864 480.44 134.759 480.44H90.9027L80.3604 485.497H56.9567L42.7769 464.137V422.923L53.3193 395.618C53.3316 395.565 53.3316 395.509 53.3193 395.456V292.907C53.3193 292.8 53.2776 292.697 53.2035 292.622C53.1293 292.546 53.0291 292.503 52.9242 292.503C52.8168 292.503 52.713 292.545 52.6346 292.62C52.5563 292.695 52.5095 292.797 52.5027 292.907V395.618L41.9604 422.95C41.9866 422.954 42.0127 422.954 42.0389 422.95V422.95Z" fill="#7EFACD"/>
<path d="M223.22 410.152C223.161 410.154 223.282 410.349 223.238 410.291C223.021 410.003 223 409.923 223 409.839C223 409.756 223.021 409.675 223.06 409.614L229.597 400.597C229.616 400.563 229.641 400.537 229.669 400.519C229.696 400.501 229.727 400.493 229.757 400.495H346.911V360.32C346.911 360.235 346.935 360.154 346.976 360.094C347.017 360.034 347.073 360 347.132 360C347.19 360 347.246 360.034 347.287 360.094C347.329 360.154 347.352 360.235 347.352 360.32V400.815C347.352 400.9 347.329 400.982 347.287 401.042C347.246 401.102 347.19 401.135 347.132 401.135H229.847L223.371 410.065C223.33 410.121 223.276 410.152 223.22 410.152Z" fill="#7EFACD"/>
<path d="M241.763 403.682L243.445 400.815H285.921L284.018 403.042H273.785L272.033 404.745H249.663L245.858 402.62L241.763 403.682Z" fill="#7EFACD"/>
<path d="M322.23 286L322.132 294.193L299.16 314.806L321.617 336.002L321.508 345L254.571 314.644L322.23 286Z" fill="#7EFACD"/>
<path d="M301.188 338.558L301.317 330.507L281.481 315.007L301.772 299.91L301.881 292.431L238 314.795L301.188 338.558ZM299.922 331.171L299.843 336.556L242.096 314.876L300.466 294.414L300.397 299.195L279.176 314.956L299.922 331.171Z" fill="#7EFACD"/>
<path d="M325.644 340.652L326 290.328L267.571 315.057L325.644 340.652ZM325.357 291.334L325.011 339.646L269.223 315.057L325.357 291.334Z" fill="#7EFACD"/>
</svg>
