<svg width="43" height="43" viewBox="0 0 43 43" fill="none" xmlns="http://www.w3.org/2000/svg">
<path d="M21.3539 41.1955C32.4535 41.1955 41.4516 32.1974 41.4516 21.0978C41.4516 9.99807 32.4535 1 21.3539 1C10.2542 1 1.2561 9.99807 1.2561 21.0978C1.2561 32.1974 10.2542 41.1955 21.3539 41.1955Z" stroke="#7EFACD" stroke-width="2" stroke-linejoin="round"/>
<path d="M35.5691 16.0734C35.8585 16.8902 36.0758 17.7308 36.2185 18.5856" stroke="#7EFACD" stroke-width="2" stroke-linejoin="round"/>
<path d="M36.4272 21.0979C36.4263 24.7548 35.096 28.2867 32.6841 31.0355C30.2722 33.7844 26.9433 35.5626 23.3175 36.039C19.6917 36.5154 16.0164 35.6575 12.9763 33.625C9.93621 31.5925 7.73867 28.5242 6.79312 24.9916C5.84756 21.459 6.21849 17.7032 7.83679 14.4238C9.45509 11.1444 12.2104 8.56521 15.5893 7.16669C18.9683 5.76816 22.7404 5.64572 26.203 6.82216C29.6655 7.99861 32.5823 10.3937 34.4098 13.5612" stroke="#7EFACD" stroke-width="2" stroke-linejoin="round"/>
<path d="M21.3538 16.0734C21.6856 16.0664 22.0154 16.1265 22.3234 16.2503C22.6314 16.3741 22.9111 16.5589 23.1458 16.7936C23.3805 17.0283 23.5653 17.308 23.6891 17.616C23.8128 17.9239 23.873 18.2538 23.866 18.5856C23.866 21.0978 16.3294 26.1223 16.3294 26.1223V29.8906H27.6343V26.1223H22.6099L25.8582 22.874C26.4213 22.3108 26.868 21.6422 27.1728 20.9064C27.4775 20.1706 27.6344 19.382 27.6343 18.5856C27.6343 18.5856 27.6343 12.3051 21.3538 12.3051C15.0732 12.3051 15.0732 18.5856 15.0732 18.5856H18.8416C18.8345 18.2538 18.8947 17.9239 19.0185 17.616C19.1423 17.308 19.3271 17.0283 19.5617 16.7936C19.7964 16.5589 20.0762 16.3741 20.3842 16.2503C20.6921 16.1265 21.022 16.0664 21.3538 16.0734Z" stroke="white" stroke-width="2" stroke-linejoin="round"/>
</svg>

