<svg width="101" height="60" viewBox="0 0 101 60" fill="none" xmlns="http://www.w3.org/2000/svg">
<path d="M0.451172 50.1904H2.44043C2.486 50.5915 2.69792 50.9173 3.07617 51.168C3.45898 51.4141 3.92611 51.5371 4.47754 51.5371C5.02441 51.5371 5.46875 51.4209 5.81055 51.1885C6.1569 50.9515 6.33008 50.6507 6.33008 50.2861C6.33008 49.9671 6.20247 49.7096 5.94727 49.5137C5.69206 49.3177 5.26595 49.1536 4.66895 49.0215L3.38379 48.7412C1.57454 48.3538 0.669922 47.4355 0.669922 45.9863C0.669922 45.084 1.02083 44.3548 1.72266 43.7988C2.42904 43.2428 3.33594 42.9648 4.44336 42.9648C5.58268 42.9648 6.49186 43.236 7.1709 43.7783C7.84993 44.3161 8.19857 45.0339 8.2168 45.9316H6.28223C6.25033 45.5169 6.06576 45.1911 5.72852 44.9541C5.39583 44.7126 4.96973 44.5918 4.4502 44.5918C3.93978 44.5918 3.52734 44.7035 3.21289 44.9268C2.90299 45.1501 2.74805 45.444 2.74805 45.8086C2.74805 46.1094 2.87337 46.3532 3.12402 46.54C3.37923 46.7269 3.79167 46.8864 4.36133 47.0186L5.55762 47.2715C6.54655 47.4811 7.2666 47.8092 7.71777 48.2559C8.16895 48.6979 8.39453 49.2949 8.39453 50.0469C8.39453 51.0039 8.03451 51.765 7.31445 52.3301C6.5944 52.8906 5.62142 53.1709 4.39551 53.1709C3.20605 53.1709 2.25814 52.9066 1.55176 52.3779C0.849935 51.8447 0.483073 51.1156 0.451172 50.1904ZM11.8355 53H9.77102V43.1357H11.8355V53ZM19.959 51.291V53H13.5811V43.1357H15.6455V51.291H19.959ZM25.6421 53H23.1539L19.8384 43.1357H22.149L24.4048 50.874H24.4527L26.7086 43.1357H28.9576L25.6421 53ZM36.6095 51.291V53H30.0743V43.1357H36.6095V44.8379H32.1388V47.2168H36.3565V48.8027H32.1388V51.291H36.6095ZM40.2691 44.749V47.8936H42.0465C42.566 47.8936 42.9693 47.7546 43.2564 47.4766C43.5481 47.1986 43.6939 46.8135 43.6939 46.3213C43.6939 45.8428 43.5436 45.4622 43.2428 45.1797C42.942 44.8926 42.5364 44.749 42.026 44.749H40.2691ZM40.2691 49.3906V53H38.2047V43.1357H42.2447C43.3704 43.1357 44.2454 43.416 44.8697 43.9766C45.4986 44.5326 45.8131 45.3005 45.8131 46.2803C45.8131 46.9229 45.6536 47.4971 45.3346 48.0029C45.0201 48.5042 44.5826 48.8643 44.0221 49.083L46.1002 53H43.7623L41.9234 49.3906H40.2691ZM49.7897 50.1904H51.7789C51.8245 50.5915 52.0364 50.9173 52.4147 51.168C52.7975 51.4141 53.2646 51.5371 53.8161 51.5371C54.3629 51.5371 54.8073 51.4209 55.1491 51.1885C55.4954 50.9515 55.6686 50.6507 55.6686 50.2861C55.6686 49.9671 55.541 49.7096 55.2858 49.5137C55.0306 49.3177 54.6045 49.1536 54.0075 49.0215L52.7223 48.7412C50.9131 48.3538 50.0084 47.4355 50.0084 45.9863C50.0084 45.084 50.3593 44.3548 51.0612 43.7988C51.7676 43.2428 52.6745 42.9648 53.7819 42.9648C54.9212 42.9648 55.8304 43.236 56.5094 43.7783C57.1885 44.3161 57.5371 45.0339 57.5553 45.9316H55.6207C55.5888 45.5169 55.4043 45.1911 55.067 44.9541C54.7343 44.7126 54.3082 44.5918 53.7887 44.5918C53.2783 44.5918 52.8659 44.7035 52.5514 44.9268C52.2415 45.1501 52.0866 45.444 52.0866 45.8086C52.0866 46.1094 52.2119 46.3532 52.4625 46.54C52.7177 46.7269 53.1302 46.8864 53.6998 47.0186L54.8961 47.2715C55.8851 47.4811 56.6051 47.8092 57.0563 48.2559C57.5075 48.6979 57.733 49.2949 57.733 50.0469C57.733 51.0039 57.373 51.765 56.653 52.3301C55.9329 52.8906 54.9599 53.1709 53.734 53.1709C52.5446 53.1709 51.5967 52.9066 50.8903 52.3779C50.1885 51.8447 49.8216 51.1156 49.7897 50.1904ZM64.9064 46.2598L63.0334 53H61.0851L58.4738 43.1357H60.6134L62.1652 50.2793H62.2199L64.0656 43.1357H65.8088L67.6545 50.2793H67.7091L69.2677 43.1357H71.4074L68.7892 53H66.841L64.9679 46.2598H64.9064ZM73.2555 44.3389C74.1123 43.4229 75.2721 42.9648 76.735 42.9648C78.1979 42.9648 79.3555 43.4229 80.2077 44.3389C81.0645 45.2549 81.4929 46.499 81.4929 48.0713C81.4929 49.639 81.0645 50.8809 80.2077 51.7969C79.3509 52.7129 78.1934 53.1709 76.735 53.1709C75.2721 53.1709 74.1123 52.7129 73.2555 51.7969C72.4033 50.8809 71.9772 49.639 71.9772 48.0713C71.9772 46.499 72.4033 45.2549 73.2555 44.3389ZM78.6628 45.6035C78.1843 44.9928 77.5417 44.6875 76.735 44.6875C75.9284 44.6875 75.2835 44.9928 74.8005 45.6035C74.322 46.2142 74.0827 47.0368 74.0827 48.0713C74.0827 49.1012 74.322 49.9215 74.8005 50.5322C75.279 51.1383 75.9238 51.4414 76.735 51.4414C77.5417 51.4414 78.1843 51.1383 78.6628 50.5322C79.1413 49.9215 79.3805 49.1012 79.3805 48.0713C79.3805 47.0368 79.1413 46.2142 78.6628 45.6035ZM84.9953 44.749V47.8936H86.7727C87.2922 47.8936 87.6955 47.7546 87.9826 47.4766C88.2743 47.1986 88.4201 46.8135 88.4201 46.3213C88.4201 45.8428 88.2697 45.4622 87.9689 45.1797C87.6682 44.8926 87.2626 44.749 86.7522 44.749H84.9953ZM84.9953 49.3906V53H82.9309V43.1357H86.9709C88.0966 43.1357 88.9716 43.416 89.5959 43.9766C90.2248 44.5326 90.5393 45.3005 90.5393 46.2803C90.5393 46.9229 90.3798 47.4971 90.0607 48.0029C89.7463 48.5042 89.3088 48.8643 88.7482 49.083L90.8264 53H88.4885L86.6496 49.3906H84.9953ZM92.0046 43.1357H95.7712C97.2569 43.1357 98.4122 43.5618 99.237 44.4141C100.062 45.2663 100.474 46.4717 100.474 48.0303C100.474 49.5934 100.06 50.8125 99.2302 51.6875C98.4053 52.5625 97.2523 53 95.7712 53H92.0046V43.1357ZM94.0691 44.8379V51.291H95.5251C96.4502 51.291 97.1543 51.0153 97.6374 50.4639C98.1251 49.9079 98.3689 49.099 98.3689 48.0371C98.3689 47.0072 98.1228 46.2165 97.6306 45.665C97.1384 45.1136 96.4366 44.8379 95.5251 44.8379H94.0691Z" fill="white"/>
<path d="M65.0408 1.11457e-07H58.5259C58.3833 -6.45043e-05 58.242 0.0279667 58.1103 0.0824926C57.9785 0.137019 57.8587 0.216971 57.7578 0.317784L41.5147 16.5617L40.473 15.5193C40.2693 15.3156 39.9931 15.2011 39.705 15.2011C39.4169 15.2011 39.1407 15.3156 38.937 15.5193C38.7333 15.723 38.6188 15.9992 38.6188 16.2873C38.6188 16.43 38.6469 16.5712 38.7015 16.703C38.7561 16.8348 38.8361 16.9545 38.937 17.0554L41.789 19.9067L37.4899 24.2051L35.3183 26.3768C35.2174 26.4776 35.1373 26.5973 35.0827 26.7291C35.0281 26.8609 35 27.0021 35 27.1448C35 27.2874 35.0281 27.4287 35.0827 27.5605C35.1373 27.6923 35.2174 27.812 35.3183 27.9128L38.2138 30.8084C38.3146 30.9093 38.4344 30.9893 38.5661 31.0439C38.6979 31.0985 38.8392 31.1266 38.9818 31.1266C39.1245 31.1266 39.2657 31.0985 39.3975 31.0439C39.5293 30.9893 39.649 30.9093 39.7499 30.8084L46.2206 24.3369L49.072 27.189C49.2757 27.3927 49.552 27.5071 49.84 27.5071C50.1281 27.5071 50.4044 27.3927 50.6081 27.189C50.8118 26.9853 50.9262 26.709 50.9262 26.4209C50.9262 26.1328 50.8118 25.8566 50.6081 25.6529L49.565 24.6119L65.8089 8.36878C65.9097 8.26791 65.9896 8.14816 66.0441 8.01638C66.0987 7.88459 66.1267 7.74336 66.1266 7.60075V1.08582C66.1266 0.797843 66.0122 0.521661 65.8086 0.31803C65.605 0.114399 65.3288 1.11457e-07 65.0408 1.11457e-07ZM38.9811 28.5057L37.6209 27.1455L38.7068 26.0597H41.4271L38.9811 28.5057ZM43.5691 23.9177C43.4889 23.8987 43.4068 23.8887 43.3244 23.8881H40.8784L43.3244 21.4421L44.6846 22.8022L43.5691 23.9177ZM63.955 7.15122L48.0296 23.0766L46.988 22.0342L46.3075 21.3545L48.8881 18.7746C49.0918 18.5709 49.2063 18.2946 49.2063 18.0065C49.2063 17.7185 49.0918 17.4422 48.8881 17.2385C48.6844 17.0348 48.4082 16.9204 48.1201 16.9204C47.832 16.9204 47.5558 17.0348 47.3521 17.2385L44.7722 19.8191L44.0924 19.1387L43.05 18.097L58.9754 2.17164H63.955V7.15122Z" fill="white"/>
<path d="M51.9238 14.7888C51.8998 14.7227 51.8682 14.6595 51.8297 14.6006C51.7876 14.5421 51.7417 14.4865 51.6922 14.4342C51.64 14.3844 51.5844 14.3385 51.5257 14.2966C51.4666 14.258 51.4032 14.2264 51.3368 14.2025C51.2722 14.1733 51.2044 14.1514 51.1349 14.1374C50.9601 14.1033 50.7795 14.1125 50.6091 14.1642C50.4386 14.2159 50.2835 14.3086 50.1571 14.4342C50.1078 14.4865 50.0621 14.5421 50.0203 14.6006C49.982 14.6609 49.9479 14.7238 49.9183 14.7888C49.8952 14.8552 49.8762 14.9228 49.8611 14.9914C49.8463 15.0604 49.839 15.1308 49.8394 15.2013C49.8394 15.4893 49.9537 15.7654 50.1573 15.969C50.3609 16.1726 50.6371 16.287 50.925 16.287C50.9955 16.2873 51.0659 16.28 51.1349 16.2653C51.2034 16.2503 51.2708 16.2309 51.3368 16.2074C51.47 16.1521 51.5908 16.0709 51.6922 15.9685C51.7434 15.9177 51.7895 15.8619 51.8297 15.8021C51.8682 15.7432 51.8998 15.68 51.9238 15.6139C51.953 15.549 51.9749 15.481 51.9889 15.4112C52.0179 15.2728 52.0179 15.1299 51.9889 14.9914C51.9749 14.9217 51.953 14.8537 51.9238 14.7888Z" fill="white"/>
</svg>
