<svg width="368" height="263" viewBox="0 0 368 263" fill="none" xmlns="http://www.w3.org/2000/svg">
<path opacity="0.8" d="M80.7634 55.8936H71.6713C70.8979 55.8936 70.271 56.5205 70.271 57.2939V83.1698C70.271 83.9432 70.8979 84.5701 71.6713 84.5701H80.7634C81.5367 84.5701 82.1637 83.9432 82.1637 83.1698V57.2939C82.1637 56.5205 81.5367 55.8936 80.7634 55.8936Z" fill="#DD56FF"/>
<path opacity="0.6" d="M97.1926 55.8936H88.1005C87.3271 55.8936 86.7002 56.5205 86.7002 57.2939V83.1698C86.7002 83.9432 87.3271 84.5701 88.1005 84.5701H97.1926C97.9659 84.5701 98.5929 83.9432 98.5929 83.1698V57.2939C98.5929 56.5205 97.9659 55.8936 97.1926 55.8936Z" fill="#DD56FF"/>
<path opacity="0.4" d="M113.622 55.8936H104.53C103.756 55.8936 103.129 56.5205 103.129 57.2939V83.1698C103.129 83.9432 103.756 84.5701 104.53 84.5701H113.622C114.395 84.5701 115.022 83.9432 115.022 83.1698V57.2939C115.022 56.5205 114.395 55.8936 113.622 55.8936Z" fill="#DD56FF"/>
<path opacity="0.2" d="M130.05 55.8936H120.958C120.185 55.8936 119.558 56.5205 119.558 57.2939V83.1698C119.558 83.9432 120.185 84.5701 120.958 84.5701H130.05C130.824 84.5701 131.451 83.9432 131.451 83.1698V57.2939C131.451 56.5205 130.824 55.8936 130.05 55.8936Z" fill="#DD56FF"/>
<path opacity="0.1" d="M146.459 55.8936H137.367C136.594 55.8936 135.967 56.5205 135.967 57.2939V83.1698C135.967 83.9432 136.594 84.5701 137.367 84.5701H146.459C147.233 84.5701 147.859 83.9432 147.859 83.1698V57.2939C147.859 56.5205 147.233 55.8936 146.459 55.8936Z" fill="#DD56FF"/>
<path opacity="0.8" d="M80.7634 125.909H71.6713C70.8979 125.909 70.271 126.536 70.271 127.309V153.185C70.271 153.958 70.8979 154.585 71.6713 154.585H80.7634C81.5367 154.585 82.1637 153.958 82.1637 153.185V127.309C82.1637 126.536 81.5367 125.909 80.7634 125.909Z" fill="#DD56FF"/>
<path opacity="0.6" d="M97.1926 125.909H88.1005C87.3271 125.909 86.7002 126.536 86.7002 127.309V153.185C86.7002 153.958 87.3271 154.585 88.1005 154.585H97.1926C97.9659 154.585 98.5929 153.958 98.5929 153.185V127.309C98.5929 126.536 97.9659 125.909 97.1926 125.909Z" fill="#DD56FF"/>
<path opacity="0.4" d="M113.622 125.909H104.53C103.756 125.909 103.129 126.536 103.129 127.309V153.185C103.129 153.958 103.756 154.585 104.53 154.585H113.622C114.395 154.585 115.022 153.958 115.022 153.185V127.309C115.022 126.536 114.395 125.909 113.622 125.909Z" fill="#DD56FF"/>
<path opacity="0.2" d="M130.05 125.909H120.958C120.185 125.909 119.558 126.536 119.558 127.309V153.185C119.558 153.958 120.185 154.585 120.958 154.585H130.05C130.824 154.585 131.451 153.958 131.451 153.185V127.309C131.451 126.536 130.824 125.909 130.05 125.909Z" fill="#DD56FF"/>
<path opacity="0.1" d="M146.459 125.909H137.367C136.594 125.909 135.967 126.536 135.967 127.309V153.185C135.967 153.958 136.594 154.585 137.367 154.585H146.459C147.233 154.585 147.859 153.958 147.859 153.185V127.309C147.859 126.536 147.233 125.909 146.459 125.909Z" fill="#DD56FF"/>
<path opacity="0.8" d="M80.7634 195.352H71.6713C70.8979 195.352 70.271 195.979 70.271 196.752V222.628C70.271 223.401 70.8979 224.028 71.6713 224.028H80.7634C81.5367 224.028 82.1637 223.401 82.1637 222.628V196.752C82.1637 195.979 81.5367 195.352 80.7634 195.352Z" fill="#DD56FF"/>
<path opacity="0.6" d="M97.1926 195.352H88.1005C87.3271 195.352 86.7002 195.979 86.7002 196.752V222.628C86.7002 223.401 87.3271 224.028 88.1005 224.028H97.1926C97.9659 224.028 98.5929 223.401 98.5929 222.628V196.752C98.5929 195.979 97.9659 195.352 97.1926 195.352Z" fill="#DD56FF"/>
<path opacity="0.4" d="M113.622 195.352H104.53C103.756 195.352 103.129 195.979 103.129 196.752V222.628C103.129 223.401 103.756 224.028 104.53 224.028H113.622C114.395 224.028 115.022 223.401 115.022 222.628V196.752C115.022 195.979 114.395 195.352 113.622 195.352Z" fill="#DD56FF"/>
<path opacity="0.2" d="M130.05 195.352H120.958C120.185 195.352 119.558 195.979 119.558 196.752V222.628C119.558 223.401 120.185 224.028 120.958 224.028H130.05C130.824 224.028 131.451 223.401 131.451 222.628V196.752C131.451 195.979 130.824 195.352 130.05 195.352Z" fill="#DD56FF"/>
<path opacity="0.1" d="M146.459 195.352H137.367C136.594 195.352 135.967 195.979 135.967 196.752V222.628C135.967 223.401 136.594 224.028 137.367 224.028H146.459C147.233 224.028 147.859 223.401 147.859 222.628V196.752C147.859 195.979 147.233 195.352 146.459 195.352Z" fill="#DD56FF"/>
<path d="M151.587 70.2319C151.591 70.7905 151.429 71.3378 151.122 71.8042C150.814 72.2705 150.375 72.6351 149.86 72.8516C149.345 73.068 148.777 73.1268 148.229 73.0202C147.681 72.9136 147.176 72.6465 146.78 72.2529C146.383 71.8593 146.113 71.3567 146.002 70.8091C145.892 70.2615 145.947 69.6934 146.16 69.1769C146.372 68.6604 146.734 68.2188 147.198 67.908C147.662 67.5973 148.208 67.4314 148.767 67.4313C149.136 67.4287 149.503 67.4993 149.845 67.6389C150.187 67.7785 150.498 67.9843 150.76 68.2446C151.022 68.5049 151.23 68.8145 151.372 69.1556C151.514 69.4967 151.587 69.8625 151.587 70.2319V70.2319Z" fill="#DD56FF"/>
<path d="M64.0983 38.0844H49.3853C48.1326 38.0844 47.1172 39.0998 47.1172 40.3524V82.2628C47.1172 83.5155 48.1326 84.5309 49.3853 84.5309H64.0983C65.3509 84.5309 66.3664 83.5155 66.3664 82.2628V40.3524C66.3664 39.0998 65.3509 38.0844 64.0983 38.0844Z" fill="#DD56FF"/>
<path d="M64.236 108.316H49.523C48.2703 108.316 47.2549 109.332 47.2549 110.584V152.495C47.2549 153.747 48.2703 154.763 49.523 154.763H64.236C65.4886 154.763 66.5041 153.747 66.5041 152.495V110.584C66.5041 109.332 65.4886 108.316 64.236 108.316Z" fill="#DD56FF"/>
<path d="M64.236 177.759H49.523C48.2703 177.759 47.2549 178.775 47.2549 180.027V221.938C47.2549 223.19 48.2703 224.206 49.523 224.206H64.236C65.4886 224.206 66.5041 223.19 66.5041 221.938V180.027C66.5041 178.775 65.4886 177.759 64.236 177.759Z" fill="#DD56FF"/>
<path d="M59.5615 37.6699C59.5654 38.2294 59.4028 38.7774 59.0944 39.2442C58.786 39.711 58.3457 40.0756 57.8296 40.2915C57.3134 40.5074 56.7447 40.5648 56.1958 40.4566C55.6469 40.3484 55.1426 40.0794 54.747 39.6838C54.3513 39.2882 54.0823 38.7839 53.9741 38.2349C53.8659 37.686 53.9235 37.1173 54.1394 36.6012C54.3553 36.085 54.7198 35.6448 55.1866 35.3364C55.6534 35.028 56.2014 34.8654 56.7609 34.8693C57.502 34.8745 58.2114 35.1713 58.7355 35.6954C59.2596 36.2195 59.5563 36.9287 59.5615 37.6699V37.6699Z" fill="#DD56FF"/>
<path d="M59.6803 225.33C59.6803 225.884 59.5161 226.425 59.2083 226.886C58.9006 227.347 58.4632 227.706 57.9514 227.918C57.4397 228.13 56.8766 228.185 56.3333 228.077C55.7901 227.969 55.2911 227.702 54.8994 227.31C54.5077 226.919 54.241 226.42 54.1329 225.877C54.0249 225.333 54.0803 224.77 54.2923 224.258C54.5043 223.747 54.8632 223.309 55.3238 223.001C55.7843 222.694 56.3258 222.53 56.8797 222.53C57.2482 222.527 57.6136 222.598 57.9545 222.737C58.2955 222.877 58.6053 223.083 58.8659 223.344C59.1265 223.605 59.3326 223.914 59.4725 224.255C59.6123 224.596 59.6829 224.962 59.6803 225.33V225.33Z" fill="#DD56FF"/>
<path d="M220 70H152V71H220V70Z" fill="#DD56FF"/>
<path d="M150.976 140.563C150.976 141.121 150.81 141.667 150.499 142.131C150.189 142.596 149.747 142.957 149.23 143.17C148.714 143.383 148.146 143.438 147.598 143.327C147.051 143.217 146.548 142.946 146.155 142.55C145.761 142.153 145.494 141.649 145.387 141.101C145.281 140.552 145.339 139.985 145.556 139.47C145.772 138.955 146.137 138.515 146.603 138.208C147.07 137.9 147.617 137.738 148.175 137.742C148.92 137.747 149.632 138.047 150.157 138.575C150.682 139.103 150.976 139.818 150.976 140.563V140.563Z" fill="#DD56FF"/>
<path d="M182 140H151V141H182V140Z" fill="#DD56FF"/>
<path d="M150.443 209.434C150.443 209.988 150.279 210.529 149.972 210.99C149.664 211.45 149.226 211.809 148.715 212.021C148.203 212.233 147.64 212.289 147.097 212.181C146.553 212.072 146.054 211.806 145.663 211.414C145.271 211.022 145.004 210.523 144.896 209.98C144.788 209.437 144.844 208.874 145.055 208.362C145.267 207.85 145.626 207.413 146.087 207.105C146.548 206.797 147.089 206.633 147.643 206.633C148.386 206.633 149.098 206.928 149.623 207.453C150.148 207.979 150.443 208.691 150.443 209.434V209.434Z" fill="#DD56FF"/>
<path d="M368 209H150V210H368V209Z" fill="#DD56FF"/>
<path d="M28.4202 263C20.8825 262.99 13.6568 259.989 8.32864 254.657C3.00052 249.326 0.0052164 242.098 0 234.56V28.4201C0.195199 21.0096 3.27616 13.9682 8.58654 8.79588C13.8969 3.62353 21.017 0.729067 28.43 0.729067C35.8431 0.729067 42.9632 3.62353 48.2735 8.79588C53.5839 13.9682 56.6649 21.0096 56.8601 28.4201V234.56C56.8548 242.101 53.8568 249.332 48.5244 254.664C43.1921 259.997 35.9613 262.995 28.4202 263V263ZM28.4202 0.690186C21.0971 0.690186 14.074 3.59929 8.89586 8.77746C3.71769 13.9556 0.808631 20.9787 0.808631 28.3017V234.56C0.808631 241.883 3.71769 248.906 8.89586 254.084C14.074 259.263 21.0971 262.172 28.4202 262.172C35.7432 262.172 42.7663 259.263 47.9445 254.084C53.1227 248.906 56.0317 241.883 56.0317 234.56V28.4201C56.0343 24.7924 55.322 21.1999 53.9356 17.8476C52.5491 14.4953 50.5157 11.4491 47.9515 8.88303C45.3872 6.31697 42.3425 4.28132 38.9912 2.89248C35.6399 1.50364 32.0478 0.788773 28.4202 0.788774V0.690186Z" fill="#DD56FF"/>
<path d="M21.34 8.34265C16.8465 10.6307 13.0853 14.134 10.4843 18.4539C7.88328 22.7739 6.54684 27.737 6.62702 32.7789V229.669C6.54593 234.708 7.88219 239.669 10.4835 243.986C13.0848 248.303 16.8466 251.803 21.34 254.085V8.34265Z" fill="url(#paint0_linear_81_2)"/>
<path opacity="0.5" d="M30.7276 7.88904H25.6392V253.099H30.7276V7.88904Z" fill="url(#paint1_linear_81_2)"/>
<path opacity="0.3" d="M38.8931 8.91467H33.8047V254.125H38.8931V8.91467Z" fill="url(#paint2_linear_81_2)"/>
<defs>
<linearGradient id="paint0_linear_81_2" x1="13.9835" y1="254.085" x2="13.9835" y2="8.34265" gradientUnits="userSpaceOnUse">
<stop stop-color="#DD56FF"/>
<stop offset="0.24" stop-color="#970BBA"/>
<stop offset="1" stop-color="#00FFC2"/>
</linearGradient>
<linearGradient id="paint1_linear_81_2" x1="97.5384" y1="31532.1" x2="97.5384" y2="1045.13" gradientUnits="userSpaceOnUse">
<stop stop-color="#430EB3"/>
<stop offset="0.526042" stop-color="#580BBA"/>
<stop offset="1" stop-color="#00FFF0"/>
</linearGradient>
<linearGradient id="paint2_linear_81_2" x1="127.584" y1="31604.3" x2="127.584" y2="1117.27" gradientUnits="userSpaceOnUse">
<stop stop-color="#430EB3"/>
<stop offset="0.24" stop-color="#770BBA"/>
<stop offset="1" stop-color="#00FFF0"/>
</linearGradient>
</defs>
</svg>
