<svg width="235" height="110" viewBox="0 0 235 110" fill="none" xmlns="http://www.w3.org/2000/svg">
<path d="M229.302 94.2795H29.1381C29.0215 94.2787 28.9099 94.2106 28.8277 94.0903L0.129868 52.3727C0.0479316 52.2527 0.00195313 52.0905 0.00195312 51.9215C0.00195313 51.7524 0.0479316 51.5901 0.129868 51.4702L28.7176 9.86905C28.7579 9.80882 28.8062 9.76101 28.8595 9.7285C28.9129 9.69599 28.9702 9.67944 29.028 9.67982H229.292C229.409 9.67982 229.521 9.74725 229.604 9.86736C229.686 9.98747 229.733 10.1504 229.733 10.3203V93.6391C229.733 93.8064 229.688 93.9671 229.607 94.0868C229.527 94.2065 229.417 94.2757 229.302 94.2795ZM29.3184 92.9986H228.862V10.9462H29.2383L1.0611 51.8778L29.3184 92.9986ZM217.567 49.3305H136.56C136.443 49.3305 136.331 49.263 136.248 49.1429C136.166 49.0228 136.119 48.8599 136.119 48.69V25.2984C136.119 25.1286 136.166 24.9657 136.248 24.8456C136.331 24.7255 136.443 24.658 136.56 24.658H217.567C217.684 24.658 217.796 24.7255 217.878 24.8456C217.961 24.9657 218.007 25.1286 218.007 25.2984V48.6754C218.008 48.8357 217.967 48.9903 217.893 49.1089C217.819 49.2275 217.717 49.3013 217.607 49.3159L217.567 49.3305ZM137 48.0641H217.106V25.9389H137V48.0641Z" fill="#7EFACD"/>
<path d="M111.017 4.78894L113.65 3.18777H122.642L126.587 0H143.69L139.815 5.09461L111.017 4.78894Z" fill="#7EFACD"/>
<path d="M232.987 52.2999C232.929 52.2999 232.873 52.2662 232.831 52.2062C232.79 52.1461 232.767 52.0646 232.767 51.9797V5.40036H214.533C214.474 5.40036 214.418 5.36659 214.377 5.30654C214.336 5.24648 214.312 5.16501 214.312 5.08008C214.312 4.99515 214.336 4.91376 214.377 4.85371C214.418 4.79365 214.474 4.75989 214.533 4.75989H232.987C233.046 4.75989 233.102 4.79365 233.143 4.85371C233.184 4.91376 233.207 4.99515 233.207 5.08008V51.9505C233.21 51.995 233.207 52.0398 233.197 52.082C233.187 52.1243 233.171 52.1632 233.15 52.1961C233.13 52.229 233.104 52.2552 233.076 52.273C233.048 52.2909 233.018 52.3001 232.987 52.2999Z" fill="#7EFACD"/>
<path d="M224.477 4.89078L226.82 3.18773H230.474L232.227 1.28088H235V22.1106L232.958 27.4235V5.09457L224.477 4.89078Z" fill="#7EFACD"/>
<path d="M108.603 89.5924H31.6213C31.5625 89.5915 31.5058 89.5606 31.4611 89.5051L5.58696 52.1979C5.5654 52.1693 5.54819 52.1345 5.53642 52.0957C5.52464 52.0568 5.51855 52.0148 5.51855 51.9723C5.51855 51.9299 5.52464 51.8879 5.53642 51.849C5.54819 51.8102 5.5654 51.7753 5.58696 51.7467L28.8276 17.3217C28.8473 17.2904 28.8713 17.2654 28.898 17.2482C28.9247 17.2311 28.9536 17.2223 28.9828 17.2223C29.012 17.2223 29.0409 17.2311 29.0676 17.2482C29.0943 17.2654 29.1183 17.2904 29.138 17.3217C29.158 17.3502 29.1739 17.3842 29.1847 17.4217C29.1956 17.4591 29.2011 17.4993 29.2011 17.54C29.2011 17.5807 29.1956 17.6209 29.1847 17.6584C29.1739 17.6959 29.158 17.7299 29.138 17.7584L6.03755 51.9651L31.7214 88.9519H108.613C108.671 88.9519 108.727 88.9857 108.769 89.0457C108.81 89.1058 108.833 89.1873 108.833 89.2722C108.833 89.3571 108.81 89.4386 108.769 89.4986C108.727 89.5587 108.671 89.5924 108.613 89.5924H108.603Z" fill="#7EFACD"/>
<path d="M49.0146 89.0539L50.6268 88.0786H58.6674L63.4937 86.9287H97.4185L104.728 89.0539H49.0146Z" fill="#7EFACD"/>
<path d="M27.6765 19.5488L26.2046 19.7672L19.4857 29.3305L19.0852 31.3683L18.975 31.3829L14.5993 37.5983L14.2188 39.5343L19.9163 31.2373L19.5958 31.2956L27.6765 19.5488Z" fill="#7EFACD"/>
<path d="M109.086 109.774C109.026 109.776 109.147 109.971 109.103 109.913C108.887 109.625 108.865 109.544 108.865 109.461C108.865 109.378 108.887 109.297 108.925 109.235L115.462 100.218C115.481 100.185 115.506 100.158 115.534 100.141C115.562 100.123 115.592 100.115 115.622 100.116H232.777V59.9418C232.777 59.8568 232.8 59.7755 232.841 59.7154C232.882 59.6553 232.938 59.6216 232.997 59.6216C233.055 59.6216 233.111 59.6553 233.153 59.7154C233.194 59.7755 233.217 59.8568 233.217 59.9418V100.437C233.217 100.522 233.194 100.603 233.153 100.663C233.111 100.723 233.055 100.757 232.997 100.757H115.712L109.236 109.687C109.195 109.742 109.141 109.774 109.086 109.774Z" fill="#7EFACD"/>
<path d="M127.628 103.304L129.31 100.437H171.786L169.884 102.664H159.65L157.898 104.367H135.528L131.723 102.242L127.628 103.304Z" fill="#7EFACD"/>
</svg>
